font.ufo
<glyph name="dollar" format="2">
	<unicode hex="0024"/>
	<advance width="528"/>
	<outline>
		<contour>
			<point x="246" y="-12" type="curve" smooth="yes"/>
			<point x="392" y="-12"/>
			<point x="468" y="72"/>
			<point x="468" y="188" type="curve" smooth="yes"/>
			<point x="468" y="372"/>
			<point x="204" y="373"/>
			<point x="204" y="464" type="curve" smooth="yes"/>
			<point x="204" y="507"/>
			<point x="230" y="528"/>
			<point x="275" y="528" type="curve" smooth="yes"/>
			<point x="318" y="528"/>
			<point x="354" y="511"/>
			<point x="387" y="480" type="curve"/>
			<point x="462" y="560" type="line"/>
			<point x="415" y="612"/>
			<point x="356" y="647"/>
			<point x="270" y="647" type="curve" smooth="yes"/>
			<point x="144" y="647"/>
			<point x="63" y="573"/>
			<point x="63" y="457" type="curve" smooth="yes"/>
			<point x="63" y="281"/>
			<point x="327" y="274"/>
			<point x="327" y="176" type="curve" smooth="yes"/>
			<point x="327" y="132"/>
			<point x="302" y="107"/>
			<point x="246" y="107" type="curve" smooth="yes"/>
			<point x="198" y="107"/>
			<point x="154" y="121"/>
			<point x="105" y="162" type="curve"/>
			<point x="39" y="71" type="line"/>
			<point x="95" y="14"/>
			<point x="171" y="-12"/>
		</contour>
		<contour>
			<point x="215" y="-110" type="line"/>
			<point x="312" y="-110" type="line"/>
			<point x="312" y="48" type="line"/>
			<point x="215" y="48" type="line"/>
		</contour>
		<contour>
			<point x="215" y="601" type="line"/>
			<point x="312" y="601" type="line"/>
			<point x="312" y="745" type="line"/>
			<point x="215" y="745" type="line"/>
		</contour>
	</outline>
</glyph>
<glyph name="ampersand" format="2">
	<unicode hex="0026"/>
	<advance width="667"/>
	<outline>
		<contour>
			<point x="250" y="-12" type="curve" smooth="yes"/>
			<point x="363" y="-12"/>
			<point x="437" y="33"/>
			<point x="497" y="100" type="curve" smooth="yes"/>
			<point x="569" y="182"/>
			<point x="619" y="272"/>
			<point x="645" y="368" type="curve"/>
			<point x="511" y="368" type="line"/>
			<point x="489" y="284"/>
			<point x="447" y="217"/>
			<point x="396" y="166" type="curve" smooth="yes"/>
			<point x="354" y="126"/>
			<point x="306" y="100"/>
			<point x="261" y="100" type="curve" smooth="yes"/>
			<point x="206" y="100"/>
			<point x="164" y="127"/>
			<point x="164" y="183" type="curve" smooth="yes"/>
			<point x="164" y="302"/>
			<point x="441" y="343"/>
			<point x="441" y="516" type="curve" smooth="yes"/>
			<point x="441" y="606"/>
			<point x="379" y="664"/>
			<point x="281" y="664" type="curve" smooth="yes"/>
			<point x="172" y="664"/>
			<point x="104" y="586"/>
			<point x="104" y="493" type="curve" smooth="yes"/>
			<point x="104" y="363"/>
			<point x="248" y="184"/>
			<point x="411" y="76" type="curve" smooth="yes"/>
			<point x="478" y="32"/>
			<point x="549" y="1"/>
			<point x="614" y="-12" type="curve"/>
			<point x="649" y="107" type="line"/>
			<point x="615" y="114"/>
			<point x="554" y="135"/>
			<point x="499" y="169" type="curve" smooth="yes"/>
			<point x="367" y="253"/>
			<point x="226" y="387"/>
			<point x="226" y="494" type="curve" smooth="yes"/>
			<point x="226" y="539"/>
			<point x="252" y="567"/>
			<point x="284" y="567" type="curve" smooth="yes"/>
			<point x="315" y="567"/>
			<point x="329" y="547"/>
			<point x="329" y="516" type="curve" smooth="yes"/>
			<point x="329" y="389"/>
			<point x="25" y="387"/>
			<point x="25" y="174" type="curve" smooth="yes"/>
			<point x="25" y="63"/>
			<point x="111" y="-12"/>
		</contour>
	</outline>
</glyph>
<glyph name="two" format="2">
	<unicode hex="0032"/>
	<advance width="528"/>
	<outline>
		<contour>
			<point x="37" y="0" type="line"/>
			<point x="484" y="0" type="line"/>
			<point x="484" y="124" type="line"/>
			<point x="342" y="124" type="line" smooth="yes"/>
			<point x="313" y="124"/>
			<point x="269" y="120"/>
			<point x="236" y="116" type="curve"/>
			<point x="349" y="227"/>
			<point x="453" y="331"/>
			<point x="453" y="446" type="curve" smooth="yes"/>
			<point x="453" y="567"/>
			<point x="368" y="647"/>
			<point x="243" y="647" type="curve" smooth="yes"/>
			<point x="154" y="647"/>
			<point x="94" y="612"/>
			<point x="33" y="543" type="curve"/>
			<point x="110" y="467" type="line"/>
			<point x="142" y="501"/>
			<point x="177" y="532"/>
			<point x="223" y="532" type="curve" smooth="yes"/>
			<point x="278" y="532"/>
			<point x="313" y="498"/>
			<point x="313" y="436" type="curve" smooth="yes"/>
			<point x="313" y="347"/>
			<point x="197" y="233"/>
			<point x="37" y="91" type="curve"/>
		</contour>
	</outline>
</glyph>
<glyph name="seven" format="2">
	<unicode hex="0037"/>
	<advance width="528"/>
	<outline>
		<contour>
			<point x="150" y="0" type="curve"/>
			<point x="298" y="0" type="line"/>
			<point x="309" y="248"/>
			<point x="335" y="365"/>
			<point x="486" y="545" type="curve"/>
			<point x="486" y="635" type="line"/>
			<point x="44" y="635" type="line"/>
			<point x="44" y="511" type="line"/>
			<point x="329" y="511" type="line"/>
			<point x="205" y="343"/>
			<point x="162" y="211"/>
		</contour>
	</outline>
</glyph>
<glyph name="F" format="2">
	<unicode hex="0046"/>
	<advance width="524"/>
	<outline>
		<contour>
			<point x="77" y="0" type="line"/>
			<point x="224" y="0" type="line"/>
			<point x="224" y="253" type="line"/>
			<point x="450" y="253" type="line"/>
			<point x="450" y="377" type="line"/>
			<point x="224" y="377" type="line"/>
			<point x="224" y="528" type="line"/>
			<point x="488" y="528" type="line"/>
			<point x="488" y="652" type="line"/>
			<point x="77" y="652" type="line"/>
		</contour>
	</outline>
	<anchor name="aboveUC" x="289" y="674"/>
	<anchor name="belowLC" x="159" y="-22"/>
</glyph>
<glyph name="I" format="2">
	<unicode hex="0049"/>
	<advance width="301"/>
	<outline>
		<contour>
			<point x="77" y="0" type="line"/>
			<point x="224" y="0" type="line"/>
			<point x="224" y="652" type="line"/>
			<point x="77" y="652" type="line"/>
		</contour>
	</outline>
	<anchor name="aboveUC" x="152" y="674"/>
	<anchor name="belowLC" x="152" y="-22"/>
	<anchor name="ogonekUC" x="151" y="0"/>
</glyph>
<glyph name="J" format="2">
	<unicode hex="004A"/>
	<advance width="509"/>
	<outline>
		<contour>
			<point x="216" y="-12" type="curve" smooth="yes"/>
			<point x="367" y="-12"/>
			<point x="435" y="93"/>
			<point x="435" y="222" type="curve" smooth="yes"/>
			<point x="435" y="652" type="line"/>
			<point x="288" y="652" type="line"/>
			<point x="288" y="234" type="line" smooth="yes"/>
			<point x="288" y="144"/>
			<point x="260" y="115"/>
			<point x="202" y="115" type="curve" smooth="yes"/>
			<point x="165" y="115"/>
			<point x="132" y="136"/>
			<point x="113" y="172" type="curve"/>
			<point x="19" y="108" type="line"/>
			<point x="61" y="25"/>
			<point x="125" y="-12"/>
		</contour>
	</outline>
	<anchor name="aboveUC" x="356" y="674"/>
	<anchor name="belowLC" x="265" y="-22"/>
</glyph>
<glyph name="K" format="2">
	<unicode hex="004B"/>
	<advance width="614"/>
	<outline>
		<contour>
			<point x="77" y="0" type="line"/>
			<point x="224" y="0" type="line"/>
			<point x="224" y="175" type="line"/>
			<point x="300" y="275" type="line"/>
			<point x="459" y="0" type="line"/>
			<point x="620" y="0" type="line"/>
			<point x="387" y="392" type="line"/>
			<point x="584" y="652" type="line"/>
			<point x="422" y="652" type="line"/>
			<point x="228" y="385" type="line"/>
			<point x="224" y="385" type="line"/>
			<point x="224" y="652" type="line"/>
			<point x="77" y="652" type="line"/>
		</contour>
	</outline>
	<anchor name="aboverightUC" x="525" y="674"/>
	<anchor name="aboveUC" x="319" y="674"/>
	<anchor name="belowLC" x="332" y="-22"/>
</glyph>
<glyph name="L" format="2">
	<unicode hex="004C"/>
	<advance width="518"/>
	<outline>
		<contour>
			<point x="77" y="0" type="line"/>
			<point x="482" y="0" type="line"/>
			<point x="482" y="124" type="line"/>
			<point x="224" y="124" type="line"/>
			<point x="224" y="652" type="line"/>
			<point x="77" y="652" type="line"/>
		</contour>
	</outline>
	<anchor name="aboveUC" x="153" y="674"/>
	<anchor name="belowLC" x="288" y="-22"/>
	<anchor name="center" x="153" y="352"/>
</glyph>
<glyph name="N" format="2">
	<unicode hex="004E"/>
	<advance width="665"/>
	<outline>
		<contour>
			<point x="77" y="0" type="line"/>
			<point x="218" y="0" type="line"/>
			<point x="218" y="231" type="line" smooth="yes"/>
			<point x="218" y="308"/>
			<point x="206" y="396"/>
			<point x="198" y="468" type="curve"/>
			<point x="202" y="468" type="line"/>
			<point x="222" y="417"/>
			<point x="244" y="365"/>
			<point x="267" y="321" type="curve" smooth="yes"/>
			<point x="434" y="0" type="line"/>
			<point x="588" y="0" type="line"/>
			<point x="588" y="652" type="line"/>
			<point x="447" y="652" type="line"/>
			<point x="447" y="421" type="line" smooth="yes"/>
			<point x="447" y="344"/>
			<point x="459" y="254"/>
			<point x="466" y="184" type="curve"/>
			<point x="462" y="184" type="line"/>
			<point x="442" y="235"/>
			<point x="421" y="287"/>
			<point x="398" y="331" type="curve" smooth="yes"/>
			<point x="231" y="652" type="line"/>
			<point x="77" y="652" type="line"/>
		</contour>
	</outline>
	<anchor name="aboveUC" x="338" y="674"/>
	<anchor name="belowLC" x="345" y="-22"/>
</glyph>
<glyph name="O" format="2">
	<unicode hex="004F"/>
	<advance width="684"/>
	<outline>
		<contour>
			<point x="342" y="-12" type="curve" smooth="yes"/>
			<point x="518" y="-12"/>
			<point x="638" y="116"/>
			<point x="638" y="329" type="curve" smooth="yes"/>
			<point x="638" y="541"/>
			<point x="518" y="664"/>
			<point x="342" y="664" type="curve" smooth="yes"/>
			<point x="166" y="664"/>
			<point x="46" y="542"/>
			<point x="46" y="329" type="curve" smooth="yes"/>
			<point x="46" y="116"/>
			<point x="166" y="-12"/>
		</contour>
		<contour>
			<point x="342" y="115" type="curve" smooth="yes"/>
			<point x="253" y="115"/>
			<point x="197" y="198"/>
			<point x="197" y="329" type="curve" smooth="yes"/>
			<point x="197" y="459"/>
			<point x="253" y="537"/>
			<point x="342" y="537" type="curve" smooth="yes"/>
			<point x="431" y="537"/>
			<point x="487" y="459"/>
			<point x="487" y="329" type="curve" smooth="yes"/>
			<point x="487" y="198"/>
			<point x="431" y="115"/>
		</contour>
	</outline>
	<anchor name="aboverightUC" x="592" y="674"/>
	<anchor name="aboveUC" x="342" y="674"/>
	<anchor name="belowLC" x="342" y="-22"/>
	<anchor name="hornLC" x="484" y="642"/>
	<anchor name="ogonekUC" x="342" y="0"/>
</glyph>
<glyph name="U" format="2">
	<unicode hex="0055"/>
	<advance width="665"/>
	<outline>
		<contour>
			<point x="334" y="-12" type="curve" smooth="yes"/>
			<point x="502" y="-12"/>
			<point x="591" y="81"/>
			<point x="591" y="294" type="curve" smooth="yes"/>
			<point x="591" y="652" type="line"/>
			<point x="449" y="652" type="line"/>
			<point x="449" y="279" type="line" smooth="yes"/>
			<point x="449" y="157"/>
			<point x="407" y="115"/>
			<point x="334" y="115" type="curve" smooth="yes"/>
			<point x="261" y="115"/>
			<point x="221" y="157"/>
			<point x="221" y="279" type="curve" smooth="yes"/>
			<point x="221" y="652" type="line"/>
			<point x="73" y="652" type="line"/>
			<point x="73" y="294" type="line" smooth="yes"/>
			<point x="73" y="81"/>
			<point x="165" y="-12"/>
		</contour>
	</outline>
	<anchor name="aboveUC" x="332" y="674"/>
	<anchor name="belowLC" x="332" y="-22"/>
	<anchor name="hornLC" x="545" y="662"/>
	<anchor name="ogonekUC" x="332" y="0"/>
</glyph>
<glyph name="W" format="2">
	<unicode hex="0057"/>
	<advance width="813"/>
	<outline>
		<contour>
			<point x="132" y="0" type="line"/>
			<point x="319" y="0" type="line"/>
			<point x="380" y="296" type="line"/>
			<point x="390" y="345"/>
			<point x="397" y="397"/>
			<point x="404" y="450" type="curve"/>
			<point x="408" y="450" type="line"/>
			<point x="414" y="397"/>
			<point x="422" y="345"/>
			<point x="432" y="296" type="curve"/>
			<point x="493" y="0" type="line"/>
			<point x="683" y="0" type="line"/>
			<point x="800" y="652" type="line"/>
			<point x="656" y="652" type="line"/>
			<point x="610" y="348" type="line"/>
			<point x="602" y="280"/>
			<point x="593" y="211"/>
			<point x="586" y="139" type="curve"/>
			<point x="582" y="139" type="line"/>
			<point x="570" y="211"/>
			<point x="556" y="281"/>
			<point x="543" y="348" type="curve"/>
			<point x="477" y="652" type="line"/>
			<point x="346" y="652" type="line"/>
			<point x="277" y="348" type="line"/>
			<point x="263" y="280"/>
			<point x="251" y="211"/>
			<point x="239" y="139" type="curve"/>
			<point x="235" y="139" type="line"/>
			<point x="228" y="211"/>
			<point x="219" y="279"/>
			<point x="210" y="348" type="curve"/>
			<point x="167" y="652" type="line"/>
			<point x="14" y="652" type="line"/>
		</contour>
	</outline>
	<anchor name="aboverightUC" x="735" y="674"/>
	<anchor name="aboveUC" x="405" y="674"/>
	<anchor name="belowLC" x="406" y="-22"/>
</glyph>
<glyph name="Y" format="2">
	<unicode hex="0059"/>
	<advance width="525"/>
	<outline>
		<contour>
			<point x="189" y="0" type="line"/>
			<point x="336" y="0" type="line"/>
			<point x="336" y="232" type="line"/>
			<point x="533" y="652" type="line"/>
			<point x="379" y="652" type="line"/>
			<point x="320" y="502" type="line"/>
			<point x="302" y="453"/>
			<point x="284" y="408"/>
			<point x="265" y="358" type="curve"/>
			<point x="261" y="358" type="line"/>
			<point x="243" y="408"/>
			<point x="226" y="453"/>
			<point x="208" y="502" type="curve"/>
			<point x="150" y="652" type="line"/>
			<point x="-8" y="652" type="line"/>
			<point x="189" y="232" type="line"/>
		</contour>
	</outline>
	<anchor name="aboverightUC" x="488" y="674"/>
	<anchor name="aboveUC" x="261" y="674"/>
	<anchor name="belowLC" x="261" y="-22"/>
</glyph>
<glyph name="Z" format="2">
	<unicode hex="005A"/>
	<advance width="541"/>
	<outline>
		<contour>
			<point x="36" y="0" type="line"/>
			<point x="508" y="0" type="line"/>
			<point x="508" y="124" type="line"/>
			<point x="217" y="124" type="line"/>
			<point x="505" y="563" type="line"/>
			<point x="505" y="652" type="line"/>
			<point x="63" y="652" type="line"/>
			<point x="63" y="528" type="line"/>
			<point x="324" y="528" type="line"/>
			<point x="36" y="89" type="line"/>
		</contour>
	</outline>
	<anchor name="aboveUC" x="283" y="674"/>
	<anchor name="belowLC" x="282" y="-22"/>
</glyph>
<glyph name="bracketleft" format="2">
	<unicode hex="005B"/>
	<advance width="344"/>
	<outline>
		<contour>
			<point x="87" y="-152" type="line"/>
			<point x="298" y="-152" type="line"/>
			<point x="298" y="-74" type="line"/>
			<point x="197" y="-74" type="line"/>
			<point x="197" y="630" type="line"/>
			<point x="298" y="630" type="line"/>
			<point x="298" y="708" type="line"/>
			<point x="87" y="708" type="line"/>
		</contour>
	</outline>
</glyph>
<glyph name="underscore" format="2">
	<unicode hex="005F"/>
	<advance width="500"/>
	<outline>
		<contour>
			<point x="12" y="-140" type="line"/>
			<point x="488" y="-140" type="line"/>
			<point x="488" y="-57" type="line"/>
			<point x="12" y="-57" type="line"/>
		</contour>
	</outline>
</glyph>
<glyph name="a" format="2">
	<unicode hex="0061"/>
	<advance width="527"/>
	<outline>
		<contour>
			<point x="190" y="-12" type="curve" smooth="yes"/>
			<point x="246" y="-12"/>
			<point x="291" y="14"/>
			<point x="334" y="51" type="curve"/>
			<point x="338" y="51" type="line"/>
			<point x="348" y="0" type="line"/>
			<point x="468" y="0" type="line"/>
			<point x="468" y="283" type="line" smooth="yes"/>
			<point x="468" y="436"/>
			<point x="398" y="508"/>
			<point x="271" y="508" type="curve" smooth="yes"/>
			<point x="193" y="508"/>
			<point x="122" y="482"/>
			<point x="59" y="443" type="curve"/>
			<point x="111" y="347" type="line"/>
			<point x="160" y="375"/>
			<point x="201" y="390"/>
			<point x="243" y="390" type="curve" smooth="yes"/>
			<point x="296" y="390"/>
			<point x="318" y="363"/>
			<point x="321" y="320" type="curve"/>
			<point x="125" y="300"/>
			<point x="42" y="244"/>
			<point x="42" y="138" type="curve" smooth="yes"/>
			<point x="42" y="54"/>
			<point x="99" y="-12"/>
		</contour>
		<contour>
			<point x="239" y="103" type="curve" smooth="yes"/>
			<point x="205" y="103"/>
			<point x="183" y="118"/>
			<point x="183" y="149" type="curve" smooth="yes"/>
			<point x="183" y="187"/>
			<point x="217" y="214"/>
			<point x="321" y="228" type="curve"/>
			<point x="321" y="144" type="line"/>
			<point x="296" y="118"/>
			<point x="272" y="103"/>
		</contour>
	</outline>
	<anchor name="aboveLC" x="276" y="518"/>
	<anchor name="belowLC" x="256" y="-22"/>
	<anchor name="ogonekLC" x="376" y="0"/>
</glyph>
<glyph name="c" format="2">
	<unicode hex="0063"/>
	<advance width="467"/>
	<outline>
		<contour>
			<point x="284" y="-12" type="curve" smooth="yes"/>
			<point x="345" y="-12"/>
			<point x="404" y="11"/>
			<point x="445" y="49" type="curve"/>
			<point x="387" y="140" type="line"/>
			<point x="362" y="119"/>
			<point x="332" y="107"/>
			<point x="299" y="107" type="curve" smooth="yes"/>
			<point x="234" y="107"/>
			<point x="187" y="162"/>
			<point x="187" y="248" type="curve" smooth="yes"/>
			<point x="187" y="334"/>
			<point x="234" y="389"/>
			<point x="303" y="389" type="curve" smooth="yes"/>
			<point x="332" y="389"/>
			<point x="352" y="379"/>
			<point x="370" y="364" type="curve"/>
			<point x="439" y="455" type="line"/>
			<point x="404" y="487"/>
			<point x="355" y="508"/>
			<point x="294" y="508" type="curve" smooth="yes"/>
			<point x="157" y="508"/>
			<point x="36" y="413"/>
			<point x="36" y="248" type="curve" smooth="yes"/>
			<point x="36" y="83"/>
			<point x="143" y="-12"/>
		</contour>
	</outline>
	<anchor name="aboveLC" x="278" y="518"/>
	<anchor name="aboverightLC" x="418" y="518"/>
	<anchor name="baseLC" x="262" y="0"/>
	<anchor name="belowLC" x="262" y="-22"/>
</glyph>
<glyph name="u" format="2">
	<unicode hex="0075"/>
	<advance width="568"/>
	<outline>
		<contour>
			<point x="214" y="-12" type="curve" smooth="yes"/>
			<point x="282" y="-12"/>
			<point x="328" y="19"/>
			<point x="370" y="69" type="curve"/>
			<point x="373" y="69" type="line"/>
			<point x="384" y="0" type="line"/>
			<point x="504" y="0" type="line"/>
			<point x="504" y="496" type="line"/>
			<point x="357" y="496" type="line"/>
			<point x="357" y="168" type="line"/>
			<point x="328" y="129"/>
			<point x="306" y="113"/>
			<point x="269" y="113" type="curve" smooth="yes"/>
			<point x="226" y="113"/>
			<point x="207" y="136"/>
			<point x="207" y="207" type="curve" smooth="yes"/>
			<point x="207" y="496" type="line"/>
			<point x="60" y="496" type="line"/>
			<point x="60" y="188" type="line" smooth="yes"/>
			<point x="60" y="64"/>
			<point x="106" y="-12"/>
		</contour>
	</outline>
	<anchor name="aboveLC" x="285" y="518"/>
	<anchor name="baseLC" x="252" y="0"/>
	<anchor name="belowLC" x="278" y="-22"/>
	<anchor name="hornLC" x="431" y="507"/>
	<anchor name="ogonekLC" x="412" y="0"/>
</glyph>
<glyph name="w" format="2">
	<unicode hex="0077"/>
	<advance width="776"/>
	<outline>
		<contour>
			<point x="148" y="0" type="line"/>
			<point x="321" y="0" type="line"/>
			<point x="362" y="198" type="line"/>
			<point x="371" y="243"/>
			<point x="379" y="286"/>
			<point x="385" y="346" type="curve"/>
			<point x="389" y="346" type="line"/>
			<point x="397" y="286"/>
			<point x="405" y="243"/>
			<point x="414" y="198" type="curve"/>
			<point x="456" y="0" type="line"/>
			<point x="633" y="0" type="line"/>
			<point x="752" y="496" type="line"/>
			<point x="615" y="496" type="line"/>
			<point x="568" y="266" type="line"/>
			<point x="559" y="219"/>
			<point x="555" y="172"/>
			<point x="546" y="117" type="curve"/>
			<point x="542" y="117" type="line"/>
			<point x="533" y="172"/>
			<point x="524" y="219"/>
			<point x="513" y="266" type="curve"/>
			<point x="458" y="496" type="line"/>
			<point x="324" y="496" type="line"/>
			<point x="272" y="266" type="line"/>
			<point x="261" y="220"/>
			<point x="253" y="172"/>
			<point x="244" y="117" type="curve"/>
			<point x="240" y="117" type="line"/>
			<point x="233" y="172"/>
			<point x="227" y="219"/>
			<point x="218" y="266" type="curve"/>
			<point x="171" y="496" type="line"/>
			<point x="24" y="496" type="line"/>
		</contour>
	</outline>
	<anchor name="aboveLC" x="389" y="518"/>
	<anchor name="aboverightLC" x="698" y="518"/>
	<anchor name="belowLC" x="389" y="-22"/>
</glyph>
<glyph name="braceleft" format="2">
	<unicode hex="007B"/>
	<advance width="344"/>
	<outline>
		<contour>
			<point x="235" y="-152" type="curve" smooth="yes"/>
			<point x="298" y="-152" type="line"/>
			<point x="298" y="-74" type="line"/>
			<point x="279" y="-74" type="line" smooth="yes"/>
			<point x="238" y="-74"/>
			<point x="226" y="-59"/>
			<point x="226" y="-4" type="curve" smooth="yes"/>
			<point x="226" y="50"/>
			<point x="230" y="98"/>
			<point x="230" y="159" type="curve" smooth="yes"/>
			<point x="230" y="235"/>
			<point x="206" y="264"/>
			<point x="156" y="276" type="curve"/>
			<point x="156" y="280" type="line"/>
			<point x="206" y="292"/>
			<point x="230" y="321"/>
			<point x="230" y="397" type="curve" smooth="yes"/>
			<point x="230" y="458"/>
			<point x="226" y="506"/>
			<point x="226" y="560" type="curve" smooth="yes"/>
			<point x="226" y="615"/>
			<point x="238" y="630"/>
			<point x="279" y="630" type="curve" smooth="yes"/>
			<point x="298" y="630" type="line"/>
			<point x="298" y="708" type="line"/>
			<point x="235" y="708" type="line" smooth="yes"/>
			<point x="147" y="708"/>
			<point x="107" y="674"/>
			<point x="107" y="566" type="curve" smooth="yes"/>
			<point x="107" y="495"/>
			<point x="117" y="458"/>
			<point x="117" y="395" type="curve" smooth="yes"/>
			<point x="117" y="360"/>
			<point x="96" y="323"/>
			<point x="31" y="321" type="curve"/>
			<point x="31" y="235" type="line"/>
			<point x="96" y="233"/>
			<point x="117" y="196"/>
			<point x="117" y="161" type="curve" smooth="yes"/>
			<point x="117" y="98"/>
			<point x="107" y="61"/>
			<point x="107" y="-10" type="curve" smooth="yes"/>
			<point x="107" y="-118"/>
			<point x="147" y="-152"/>
		</contour>
	</outline>
</glyph>
<glyph name="braceright" format="2">
	<unicode hex="007D"/>
	<advance width="344"/>
	<outline>
		<contour>
			<point x="46" y="-152" type="line"/>
			<point x="109" y="-152" type="line" smooth="yes"/>
			<point x="197" y="-152"/>
			<point x="237" y="-118"/>
			<point x="237" y="-10" type="curve" smooth="yes"/>
			<point x="237" y="61"/>
			<point x="227" y="98"/>
			<point x="227" y="161" type="curve" smooth="yes"/>
			<point x="227" y="196"/>
			<point x="248" y="233"/>
			<point x="313" y="235" type="curve"/>
			<point x="313" y="321" type="line"/>
			<point x="248" y="323"/>
			<point x="227" y="360"/>
			<point x="227" y="395" type="curve" smooth="yes"/>
			<point x="227" y="458"/>
			<point x="237" y="495"/>
			<point x="237" y="566" type="curve" smooth="yes"/>
			<point x="237" y="674"/>
			<point x="197" y="708"/>
			<point x="109" y="708" type="curve" smooth="yes"/>
			<point x="46" y="708" type="line"/>
			<point x="46" y="630" type="line"/>
			<point x="65" y="630" type="line" smooth="yes"/>
			<point x="107" y="630"/>
			<point x="118" y="615"/>
			<point x="118" y="560" type="curve" smooth="yes"/>
			<point x="118" y="506"/>
			<point x="114" y="458"/>
			<point x="114" y="397" type="curve" smooth="yes"/>
			<point x="114" y="321"/>
			<point x="138" y="292"/>
			<point x="188" y="280" type="curve"/>
			<point x="188" y="276" type="line"/>
			<point x="138" y="264"/>
			<point x="114" y="235"/>
			<point x="114" y="159" type="curve" smooth="yes"/>
			<point x="114" y="98"/>
			<point x="118" y="50"/>
			<point x="118" y="-4" type="curve" smooth="yes"/>
			<point x="118" y="-59"/>
			<point x="107" y="-74"/>
			<point x="65" y="-74" type="curve" smooth="yes"/>
			<point x="46" y="-74" type="line"/>
		</contour>
	</outline>
</glyph>
<glyph name="sterling" format="2">
	<unicode hex="00A3"/>
	<advance width="528"/>
	<outline>
		<contour>
			<point x="48" y="0" type="line"/>
			<point x="497" y="0" type="line"/>
			<point x="497" y="124" type="line"/>
			<point x="238" y="124" type="line"/>
			<point x="238" y="128" type="line"/>
			<point x="270" y="164"/>
			<point x="283" y="195"/>
			<point x="283" y="243" type="curve" smooth="yes"/>
			<point x="283" y="312"/>
			<point x="251" y="372"/>
			<point x="251" y="434" type="curve" smooth="yes"/>
			<point x="251" y="494"/>
			<point x="285" y="528"/>
			<point x="340" y="528" type="curve" smooth="yes"/>
			<point x="373" y="528"/>
			<point x="398" y="516"/>
			<point x="421" y="488" type="curve"/>
			<point x="497" y="562" type="line"/>
			<point x="459" y="612"/>
			<point x="403" y="647"/>
			<point x="322" y="647" type="curve" smooth="yes"/>
			<point x="200" y="647"/>
			<point x="110" y="568"/>
			<point x="110" y="442" type="curve" smooth="yes"/>
			<point x="110" y="380"/>
			<point x="154" y="310"/>
			<point x="154" y="244" type="curve" smooth="yes"/>
			<point x="154" y="173"/>
			<point x="108" y="118"/>
			<point x="48" y="91" type="curve"/>
		</contour>
		<contour>
			<point x="52" y="271" type="line"/>
			<point x="410" y="271" type="line"/>
			<point x="410" y="362" type="line"/>
			<point x="120" y="362" type="line"/>
			<point x="52" y="357" type="line"/>
		</contour>
	</outline>
</glyph>
<glyph name="yen" format="2">
	<unicode hex="00A5"/>
	<advance width="528"/>
	<outline>
		<contour>
			<point x="190" y="0" type="line"/>
			<point x="338" y="0" type="line"/>
			<point x="338" y="142" type="line"/>
			<point x="491" y="142" type="line"/>
			<point x="491" y="219" type="line"/>
			<point x="338" y="219" type="line"/>
			<point x="338" y="269" type="line"/>
			<point x="491" y="269" type="line"/>
			<point x="491" y="346" type="line"/>
			<point x="369" y="346" type="line"/>
			<point x="516" y="635" type="line"/>
			<point x="368" y="635" type="line"/>
			<point x="318" y="502" type="line" smooth="yes"/>
			<point x="301" y="459"/>
			<point x="285" y="415"/>
			<point x="268" y="371" type="curve"/>
			<point x="264" y="371" type="line"/>
			<point x="246" y="414"/>
			<point x="230" y="458"/>
			<point x="214" y="502" type="curve" smooth="yes"/>
			<point x="163" y="635" type="line"/>
			<point x="12" y="635" type="line"/>
			<point x="159" y="346" type="line"/>
			<point x="37" y="346" type="line"/>
			<point x="37" y="269" type="line"/>
			<point x="190" y="269" type="line"/>
			<point x="190" y="219" type="line"/>
			<point x="37" y="219" type="line"/>
			<point x="37" y="142" type="line"/>
			<point x="190" y="142" type="line"/>
		</contour>
	</outline>
</glyph>
<glyph name="brokenbar" format="2">
	<unicode hex="00A6"/>
	<advance width="268"/>
	<outline>
		<contour>
			<point x="86" y="312" type="line"/>
			<point x="182" y="312" type="line"/>
			<point x="182" y="750" type="line"/>
			<point x="86" y="750" type="line"/>
		</contour>
		<contour>
			<point x="86" y="-250" type="line"/>
			<point x="182" y="-250" type="line"/>
			<point x="182" y="204" type="line"/>
			<point x="86" y="204" type="line"/>
		</contour>
	</outline>
</glyph>
<glyph name="copyright" format="2">
	<unicode hex="00A9"/>
	<advance width="750"/>
	<outline>
		<contour>
			<point x="375" y="-9" type="curve" smooth="yes"/>
			<point x="552" y="-9"/>
			<point x="704" y="118"/>
			<point x="704" y="325" type="curve" smooth="yes"/>
			<point x="704" y="531"/>
			<point x="552" y="655"/>
			<point x="375" y="655" type="curve" smooth="yes"/>
			<point x="198" y="655"/>
			<point x="45" y="532"/>
			<point x="45" y="325" type="curve" smooth="yes"/>
			<point x="45" y="118"/>
			<point x="198" y="-9"/>
		</contour>
		<contour>
			<point x="375" y="52" type="curve" smooth="yes"/>
			<point x="228" y="52"/>
			<point x="113" y="161"/>
			<point x="113" y="325" type="curve" smooth="yes"/>
			<point x="113" y="489"/>
			<point x="228" y="595"/>
			<point x="375" y="595" type="curve" smooth="yes"/>
			<point x="522" y="595"/>
			<point x="637" y="489"/>
			<point x="637" y="325" type="curve" smooth="yes"/>
			<point x="637" y="161"/>
			<point x="522" y="52"/>
		</contour>
		<contour>
			<point x="387" y="128" type="curve" smooth="yes"/>
			<point x="439" y="128"/>
			<point x="481" y="149"/>
			<point x="518" y="180" type="curve"/>
			<point x="471" y="248" type="line"/>
			<point x="445" y="227"/>
			<point x="425" y="214"/>
			<point x="391" y="214" type="curve" smooth="yes"/>
			<point x="335" y="214"/>
			<point x="299" y="256"/>
			<point x="299" y="323" type="curve" smooth="yes"/>
			<point x="299" y="383"/>
			<point x="333" y="431"/>
			<point x="396" y="431" type="curve" smooth="yes"/>
			<point x="423" y="431"/>
			<point x="444" y="419"/>
			<point x="464" y="397" type="curve"/>
			<point x="520" y="458" type="line"/>
			<point x="488" y="490"/>
			<point x="448" y="517"/>
			<point x="387" y="517" type="curve" smooth="yes"/>
			<point x="286" y="517"/>
			<point x="194" y="442"/>
			<point x="194" y="323" type="curve" smooth="yes"/>
			<point x="194" y="203"/>
			<point x="275" y="128"/>
		</contour>
	</outline>
</glyph>
<glyph name="mu" format="2">
	<unicode hex="00B5"/>
	<unicode hex="03BC"/>
	<advance width="594"/>
	<outline>
		<contour>
			<point x="65" y="-177" type="line"/>
			<point x="213" y="-177" type="line"/>
			<point x="206" y="-108"/>
			<point x="204" y="-58"/>
			<point x="203" y="16" type="curve"/>
			<point x="219" y="-3"/>
			<point x="241" y="-7"/>
			<point x="265" y="-7" type="curve" smooth="yes"/>
			<point x="309" y="-7"/>
			<point x="346" y="20"/>
			<point x="370" y="71" type="curve"/>
			<point x="374" y="71" type="line"/>
			<point x="390" y="17"/>
			<point x="433" y="-11"/>
			<point x="502" y="-11" type="curve" smooth="yes"/>
			<point x="544" y="-11"/>
			<point x="568" y="-4"/>
			<point x="589" y="5" type="curve"/>
			<point x="572" y="113" type="line"/>
			<point x="561" y="109"/>
			<point x="549" y="107"/>
			<point x="540" y="107" type="curve" smooth="yes"/>
			<point x="513" y="107"/>
			<point x="496" y="118"/>
			<point x="496" y="150" type="curve" smooth="yes"/>
			<point x="496" y="233"/>
			<point x="503" y="380"/>
			<point x="506" y="496" type="curve"/>
			<point x="358" y="496" type="line"/>
			<point x="358" y="178" type="line"/>
			<point x="332" y="130"/>
			<point x="306" y="113"/>
			<point x="273" y="113" type="curve" smooth="yes"/>
			<point x="231" y="113"/>
			<point x="212" y="137"/>
			<point x="212" y="207" type="curve" smooth="yes"/>
			<point x="212" y="496" type="line"/>
			<point x="65" y="496" type="line"/>
		</contour>
	</outline>
	<anchor name="aboveLC" x="278" y="518"/>
	<anchor name="belowLC" x="313" y="-182"/>
</glyph>
<glyph name="Eth" format="2">
	<unicode hex="00D0"/>
	<advance width="657"/>
	<outline>
		<contour>
			<point x="26" y="287" type="line"/>
			<point x="372" y="287" type="line"/>
			<point x="372" y="388" type="line"/>
			<point x="101" y="388" type="line"/>
			<point x="26" y="382" type="line"/>
		</contour>
		<component base="D" xOffset="23"/>
	</outline>
</glyph>
<glyph name="Oslash" format="2">
	<unicode hex="00D8"/>
	<advance width="684"/>
	<outline>
		<contour>
			<point x="118" y="-43" type="line"/>
			<point x="662" y="632" type="line"/>
			<point x="582" y="695" type="line"/>
			<point x="38" y="19" type="line"/>
		</contour>
		<component base="O" xOffset="1"/>
	</outline>
	<anchor name="aboveUC" x="342" y="674"/>
	<anchor name="belowLC" x="342" y="-22"/>
</glyph>
<glyph name="germandbls" format="2">
	<unicode hex="00DF"/>
	<advance width="632"/>
	<outline>
		<contour>
			<point x="421" y="-12" type="curve" smooth="yes"/>
			<point x="542" y="-12"/>
			<point x="605" y="61"/>
			<point x="605" y="152" type="curve" smooth="yes"/>
			<point x="605" y="306"/>
			<point x="443" y="302"/>
			<point x="443" y="368" type="curve" smooth="yes"/>
			<point x="443" y="419"/>
			<point x="527" y="449"/>
			<point x="527" y="544" type="curve" smooth="yes"/>
			<point x="527" y="630"/>
			<point x="450" y="711"/>
			<point x="312" y="711" type="curve" smooth="yes"/>
			<point x="150" y="711"/>
			<point x="65" y="614"/>
			<point x="65" y="484" type="curve" smooth="yes"/>
			<point x="65" y="0" type="line"/>
			<point x="210" y="0" type="line"/>
			<point x="210" y="466" type="line" smooth="yes"/>
			<point x="210" y="547"/>
			<point x="250" y="597"/>
			<point x="312" y="597" type="curve" smooth="yes"/>
			<point x="354" y="597"/>
			<point x="386" y="568"/>
			<point x="386" y="527" type="curve" smooth="yes"/>
			<point x="386" y="454"/>
			<point x="308" y="427"/>
			<point x="308" y="350" type="curve" smooth="yes"/>
			<point x="308" y="218"/>
			<point x="471" y="221"/>
			<point x="471" y="145" type="curve" smooth="yes"/>
			<point x="471" y="117"/>
			<point x="450" y="97"/>
			<point x="416" y="97" type="curve" smooth="yes"/>
			<point x="385" y="97"/>
			<point x="353" y="104"/>
			<point x="320" y="126" type="curve"/>
			<point x="272" y="37" type="line"/>
			<point x="320" y="1"/>
			<point x="367" y="-12"/>
		</contour>
	</outline>
</glyph>
<glyph name="eth" format="2">
	<unicode hex="00F0"/>
	<advance width="558"/>
	<outline>
		<contour>
			<point x="273" y="-12" type="curve" smooth="yes"/>
			<point x="420" y="-12"/>
			<point x="510" y="105"/>
			<point x="510" y="266" type="curve" smooth="yes"/>
			<point x="510" y="533"/>
			<point x="333" y="661"/>
			<point x="153" y="740" type="curve"/>
			<point x="89" y="651" type="line"/>
			<point x="278" y="567"/>
			<point x="373" y="463"/>
			<point x="373" y="258" type="curve" smooth="yes"/>
			<point x="373" y="155"/>
			<point x="334" y="107"/>
			<point x="277" y="107" type="curve" smooth="yes"/>
			<point x="223" y="107"/>
			<point x="176" y="149"/>
			<point x="176" y="228" type="curve" smooth="yes"/>
			<point x="176" y="308"/>
			<point x="217" y="346"/>
			<point x="275" y="346" type="curve" smooth="yes"/>
			<point x="312" y="346"/>
			<point x="347" y="334"/>
			<point x="378" y="295" type="curve"/>
			<point x="376" y="372" type="line"/>
			<point x="352" y="433"/>
			<point x="299" y="455"/>
			<point x="248" y="455" type="curve" smooth="yes"/>
			<point x="142" y="455"/>
			<point x="42" y="371"/>
			<point x="42" y="228" type="curve" smooth="yes"/>
			<point x="42" y="81"/>
			<point x="149" y="-12"/>
		</contour>
		<contour>
			<point x="114" y="470" type="line"/>
			<point x="487" y="657" type="line"/>
			<point x="444" y="733" type="line"/>
			<point x="73" y="546" type="line"/>
		</contour>
	</outline>
	<anchor name="aboveUC" x="296" y="724"/>
	<anchor name="belowLC" x="270" y="-22"/>
</glyph>
<glyph name="oslash" format="2">
	<unicode hex="00F8"/>
	<advance width="555"/>
	<outline>
		<contour>
			<point x="278" y="-12" type="curve" smooth="yes"/>
			<point x="403" y="-12"/>
			<point x="520" y="83"/>
			<point x="520" y="247" type="curve" smooth="yes"/>
			<point x="520" y="413"/>
			<point x="403" y="508"/>
			<point x="277" y="508" type="curve" smooth="yes"/>
			<point x="152" y="508"/>
			<point x="36" y="413"/>
			<point x="36" y="247" type="curve" smooth="yes"/>
			<point x="36" y="83"/>
			<point x="152" y="-12"/>
		</contour>
		<contour>
			<point x="278" y="102" type="curve" smooth="yes"/>
			<point x="215" y="102"/>
			<point x="179" y="152"/>
			<point x="179" y="256" type="curve" smooth="yes"/>
			<point x="179" y="339"/>
			<point x="217" y="395"/>
			<point x="277" y="395" type="curve" smooth="yes"/>
			<point x="340" y="395"/>
			<point x="377" y="344"/>
			<point x="377" y="239" type="curve" smooth="yes"/>
			<point x="377" y="157"/>
			<point x="338" y="102"/>
		</contour>
		<contour>
			<point x="104" y="-30" type="line"/>
			<point x="514" y="477" type="line"/>
			<point x="452" y="527" type="line"/>
			<point x="42" y="20" type="line"/>
		</contour>
	</outline>
	<anchor name="aboveLC" x="277" y="518"/>
	<anchor name="belowLC" x="277" y="-22"/>
</glyph>
<glyph name="Aogonek" format="2">
	<unicode hex="0104"/>
	<advance width="573"/>
	<outline>
		<contour>
			<point x="501" y="-226" type="curve" smooth="yes"/>
			<point x="539" y="-226"/>
			<point x="585" y="-210"/>
			<point x="613" y="-189" type="curve"/>
			<point x="579" y="-107" type="line"/>
			<point x="568" y="-114"/>
			<point x="552" y="-122"/>
			<point x="534" y="-122" type="curve" smooth="yes"/>
			<point x="508" y="-122"/>
			<point x="489" y="-110"/>
			<point x="489" y="-83" type="curve" smooth="yes"/>
			<point x="489" y="-47"/>
			<point x="526" y="-6"/>
			<point x="579" y="0" type="curve"/>
			<point x="375" y="652" type="line"/>
			<point x="198" y="652" type="line"/>
			<point x="-6" y="0" type="line"/>
			<point x="144" y="0" type="line"/>
			<point x="230" y="330" type="line" smooth="yes"/>
			<point x="248" y="395"/>
			<point x="265" y="471"/>
			<point x="281" y="540" type="curve"/>
			<point x="285" y="540" type="line"/>
			<point x="302" y="472"/>
			<point x="320" y="395"/>
			<point x="338" y="330" type="curve" smooth="yes"/>
			<point x="423" y="0" type="line"/>
			<point x="455" y="0" type="line"/>
			<point x="422" y="-18"/>
			<point x="374" y="-65"/>
			<point x="374" y="-126" type="curve" smooth="yes"/>
			<point x="374" y="-190"/>
			<point x="430" y="-226"/>
		</contour>
		<contour>
			<point x="128" y="155" type="line"/>
			<point x="442" y="155" type="line"/>
			<point x="442" y="270" type="line"/>
			<point x="128" y="270" type="line"/>
		</contour>
	</outline>
	<anchor name="aboveUC" x="285" y="674"/>
</glyph>
<glyph name="aogonek" format="2">
	<unicode hex="0105"/>
	<advance width="527"/>
	<outline>
		<contour>
			<point x="401" y="-219" type="curve" smooth="yes"/>
			<point x="438" y="-219"/>
			<point x="482" y="-205"/>
			<point x="510" y="-184" type="curve"/>
			<point x="479" y="-107" type="line"/>
			<point x="466" y="-115"/>
			<point x="450" y="-121"/>
			<point x="432" y="-121" type="curve" smooth="yes"/>
			<point x="412" y="-121"/>
			<point x="390" y="-109"/>
			<point x="390" y="-84" type="curve" smooth="yes"/>
			<point x="390" y="-54"/>
			<point x="412" y="-16"/>
			<point x="468" y="0" type="curve"/>
			<point x="468" y="283" type="line" smooth="yes"/>
			<point x="468" y="436"/>
			<point x="398" y="508"/>
			<point x="271" y="508" type="curve" smooth="yes"/>
			<point x="193" y="508"/>
			<point x="122" y="482"/>
			<point x="59" y="443" type="curve"/>
			<point x="111" y="347" type="line"/>
			<point x="160" y="375"/>
			<point x="201" y="390"/>
			<point x="243" y="390" type="curve" smooth="yes"/>
			<point x="296" y="390"/>
			<point x="318" y="363"/>
			<point x="321" y="320" type="curve"/>
			<point x="125" y="300"/>
			<point x="42" y="244"/>
			<point x="42" y="138" type="curve" smooth="yes"/>
			<point x="42" y="54"/>
			<point x="99" y="-12"/>
			<point x="190" y="-12" type="curve" smooth="yes"/>
			<point x="246" y="-12"/>
			<point x="291" y="14"/>
			<point x="334" y="51" type="curve"/>
			<point x="338" y="51" type="line"/>
			<point x="349" y="-2" type="line"/>
			<point x="322" y="-19"/>
			<point x="282" y="-61"/>
			<point x="282" y="-118" type="curve" smooth="yes"/>
			<point x="282" y="-186"/>
			<point x="335" y="-219"/>
		</contour>
		<contour>
			<point x="239" y="103" type="curve" smooth="yes"/>
			<point x="205" y="103"/>
			<point x="183" y="118"/>
			<point x="183" y="149" type="curve" smooth="yes"/>
			<point x="183" y="187"/>
			<point x="217" y="214"/>
			<point x="321" y="228" type="curve"/>
			<point x="321" y="144" type="line"/>
			<point x="296" y="118"/>
			<point x="272" y="103"/>
		</contour>
	</outline>
	<anchor name="aboveLC" x="276" y="518"/>
</glyph>
<glyph name="dcroat" format="2">
	<unicode hex="0111"/>
	<advance width="573"/>
	<outline>
		<contour>
			<point x="243" y="-12" type="curve" smooth="yes"/>
			<point x="292" y="-12"/>
			<point x="338" y="11"/>
			<point x="372" y="44" type="curve"/>
			<point x="376" y="44" type="line"/>
			<point x="385" y="0" type="line"/>
			<point x="508" y="0" type="line"/>
			<point x="508" y="700" type="line"/>
			<point x="361" y="700" type="line"/>
			<point x="361" y="485" type="line"/>
			<point x="367" y="409" type="line"/>
			<point x="333" y="441"/>
			<point x="300" y="461"/>
			<point x="245" y="461" type="curve" smooth="yes"/>
			<point x="141" y="461"/>
			<point x="39" y="368"/>
			<point x="39" y="225" type="curve" smooth="yes"/>
			<point x="39" y="81"/>
			<point x="119" y="-12"/>
		</contour>
		<contour>
			<point x="280" y="108" type="curve" smooth="yes"/>
			<point x="223" y="108"/>
			<point x="190" y="149"/>
			<point x="190" y="227" type="curve" smooth="yes"/>
			<point x="190" y="302"/>
			<point x="232" y="341"/>
			<point x="279" y="341" type="curve" smooth="yes"/>
			<point x="307" y="341"/>
			<point x="335" y="332"/>
			<point x="361" y="307" type="curve"/>
			<point x="361" y="153" type="line"/>
			<point x="337" y="120"/>
			<point x="312" y="108"/>
		</contour>
		<contour>
			<point x="192" y="528" type="line"/>
			<point x="501" y="528" type="line"/>
			<point x="577" y="534" type="line"/>
			<point x="577" y="629" type="line"/>
			<point x="192" y="629" type="line"/>
		</contour>
	</outline>
</glyph>
<glyph name="eogonek" format="2">
	<unicode hex="0119"/>
	<advance width="518"/>
	<outline>
		<contour>
			<point x="366" y="-218" type="curve" smooth="yes"/>
			<point x="402" y="-218"/>
			<point x="447" y="-205"/>
			<point x="474" y="-184" type="curve"/>
			<point x="444" y="-107" type="line"/>
			<point x="431" y="-115"/>
			<point x="415" y="-120"/>
			<point x="396" y="-120" type="curve" smooth="yes"/>
			<point x="376" y="-120"/>
			<point x="355" y="-110"/>
			<point x="355" y="-84" type="curve" smooth="yes"/>
			<point x="355" y="-45"/>
			<point x="377" y="-14"/>
			<point x="463" y="43" type="curve"/>
			<point x="415" y="133" type="line"/>
			<point x="380" y="112"/>
			<point x="344" y="101"/>
			<point x="307" y="101" type="curve" smooth="yes"/>
			<point x="241" y="101"/>
			<point x="176" y="136"/>
			<point x="174" y="248" type="curve" smooth="yes"/>
			<point x="172" y="362"/>
			<point x="225" y="395"/>
			<point x="273" y="395" type="curve" smooth="yes"/>
			<point x="332" y="395"/>
			<point x="355" y="357"/>
			<point x="355" y="305" type="curve"/>
			<point x="148" y="305" type="line"/>
			<point x="150" y="203" type="line"/>
			<point x="475" y="203" type="line"/>
			<point x="478" y="218"/>
			<point x="481" y="244"/>
			<point x="481" y="270" type="curve" smooth="yes"/>
			<point x="481" y="405"/>
			<point x="412" y="508"/>
			<point x="270" y="508" type="curve" smooth="yes"/>
			<point x="151" y="508"/>
			<point x="36" y="409"/>
			<point x="36" y="248" type="curve" smooth="yes"/>
			<point x="36" y="83"/>
			<point x="145" y="-12"/>
			<point x="287" y="-12" type="curve" smooth="yes"/>
			<point x="299" y="-12"/>
			<point x="316" y="-8"/>
			<point x="326" y="-4" type="curve"/>
			<point x="324" y="0" type="line"/>
			<point x="272" y="-34"/>
			<point x="246" y="-71"/>
			<point x="246" y="-118" type="curve" smooth="yes"/>
			<point x="246" y="-186"/>
			<point x="300" y="-218"/>
		</contour>
	</outline>
	<anchor name="aboveLC" x="268" y="518"/>
	<anchor name="belowLC" x="276" y="-222"/>
</glyph>
<glyph name="Hbar" format="2">
	<unicode hex="0126"/>
	<advance width="714"/>
	<outline>
		<contour>
			<point x="22" y="473" type="line"/>
			<point x="691" y="473" type="line"/>
			<point x="691" y="574" type="line"/>
			<point x="102" y="574" type="line"/>
			<point x="22" y="568" type="line"/>
		</contour>
		<component base="H" xOffset="20"/>
	</outline>
</glyph>
<glyph name="Iogonek" format="2">
	<unicode hex="012E"/>
	<advance width="301"/>
	<outline>
		<contour>
			<point x="160" y="-226" type="curve" smooth="yes"/>
			<point x="198" y="-226"/>
			<point x="244" y="-210"/>
			<point x="271" y="-189" type="curve"/>
			<point x="238" y="-107" type="line"/>
			<point x="226" y="-114"/>
			<point x="210" y="-122"/>
			<point x="193" y="-122" type="curve" smooth="yes"/>
			<point x="167" y="-122"/>
			<point x="148" y="-110"/>
			<point x="148" y="-83" type="curve" smooth="yes"/>
			<point x="148" y="-52"/>
			<point x="171" y="-22"/>
			<point x="224" y="0" type="curve"/>
			<point x="224" y="652" type="line"/>
			<point x="77" y="652" type="line"/>
			<point x="77" y="0" type="line"/>
			<point x="111" y="0" type="line"/>
			<point x="75" y="-23"/>
			<point x="32" y="-68"/>
			<point x="32" y="-126" type="curve" smooth="yes"/>
			<point x="32" y="-190"/>
			<point x="89" y="-226"/>
		</contour>
	</outline>
	<anchor name="aboveUC" x="152" y="674"/>
</glyph>
<glyph name="dotlessi" format="2">
	<unicode hex="0131"/>
	<advance width="276"/>
	<outline>
		<contour>
			<point x="65" y="0" type="line"/>
			<point x="212" y="0" type="line"/>
			<point x="212" y="496" type="line"/>
			<point x="65" y="496" type="line"/>
		</contour>
	</outline>
	<anchor name="aboveLC" x="138" y="518"/>
	<anchor name="belowLC" x="138" y="-22"/>
	<anchor name="ogonekLC" x="133" y="0"/>
</glyph>
<glyph name="Eng" format="2">
	<unicode hex="014A"/>
	<advance width="666"/>
	<outline>
		<contour>
			<point x="412" y="-12" type="curve" smooth="yes"/>
			<point x="554" y="-12"/>
			<point x="620" y="99"/>
			<point x="620" y="331" type="curve" smooth="yes"/>
			<point x="620" y="574"/>
			<point x="524" y="664"/>
			<point x="396" y="664" type="curve" smooth="yes"/>
			<point x="329" y="664"/>
			<point x="269" y="635"/>
			<point x="219" y="582" type="curve"/>
			<point x="219" y="652" type="line"/>
			<point x="77" y="652" type="line"/>
			<point x="77" y="0" type="line"/>
			<point x="224" y="0" type="line"/>
			<point x="224" y="455" type="line"/>
			<point x="257" y="508"/>
			<point x="311" y="537"/>
			<point x="352" y="537" type="curve" smooth="yes"/>
			<point x="425" y="537"/>
			<point x="469" y="481"/>
			<point x="469" y="331" type="curve" smooth="yes"/>
			<point x="469" y="162"/>
			<point x="435" y="125"/>
			<point x="395" y="125" type="curve" smooth="yes"/>
			<point x="378" y="125"/>
			<point x="365" y="128"/>
			<point x="354" y="133" type="curve"/>
			<point x="322" y="7" type="line"/>
			<point x="342" y="-5"/>
			<point x="383" y="-12"/>
		</contour>
	</outline>
	<anchor name="aboveUC" x="363" y="674"/>
	<anchor name="belowLC" x="326" y="-22"/>
</glyph>
<glyph name="eng" format="2">
	<unicode hex="014B"/>
	<advance width="572"/>
	<outline>
		<contour>
			<point x="335" y="-196" type="curve" smooth="yes"/>
			<point x="470" y="-196"/>
			<point x="512" y="-105"/>
			<point x="512" y="3" type="curve" smooth="yes"/>
			<point x="512" y="308" type="line" smooth="yes"/>
			<point x="512" y="432"/>
			<point x="466" y="508"/>
			<point x="358" y="508" type="curve" smooth="yes"/>
			<point x="291" y="508"/>
			<point x="241" y="473"/>
			<point x="199" y="433" type="curve"/>
			<point x="195" y="433" type="line"/>
			<point x="185" y="496" type="line"/>
			<point x="65" y="496" type="line"/>
			<point x="65" y="0" type="line"/>
			<point x="212" y="0" type="line"/>
			<point x="212" y="335" type="line"/>
			<point x="244" y="366"/>
			<point x="267" y="383"/>
			<point x="304" y="383" type="curve" smooth="yes"/>
			<point x="346" y="383"/>
			<point x="365" y="361"/>
			<point x="365" y="289" type="curve" smooth="yes"/>
			<point x="365" y="-1" type="line" smooth="yes"/>
			<point x="365" y="-56"/>
			<point x="352" y="-81"/>
			<point x="312" y="-81" type="curve" smooth="yes"/>
			<point x="299" y="-81"/>
			<point x="287" y="-78"/>
			<point x="274" y="-74" type="curve"/>
			<point x="247" y="-182" type="line"/>
			<point x="268" y="-190"/>
			<point x="294" y="-196"/>
		</contour>
	</outline>
	<anchor name="aboveLC" x="313" y="518"/>
	<anchor name="belowLC" x="286" y="-189"/>
</glyph>
<glyph name="tbar" format="2">
	<unicode hex="0167"/>
	<advance width="383"/>
	<outline>
		<contour>
			<point x="17" y="198" type="line"/>
			<point x="351" y="198" type="line"/>
			<point x="351" y="300" type="line"/>
			<point x="93" y="300" type="line"/>
			<point x="17" y="294" type="line"/>
		</contour>
		<component base="t"/>
	</outline>
	<anchor name="aboveLC" x="171" y="657"/>
	<anchor name="belowLC" x="233" y="-22"/>
</glyph>
<glyph name="Uogonek" format="2">
	<unicode hex="0172"/>
	<advance width="665"/>
	<outline>
		<contour>
			<point x="349" y="-226" type="curve" smooth="yes"/>
			<point x="387" y="-226"/>
			<point x="433" y="-210"/>
			<point x="461" y="-189" type="curve"/>
			<point x="427" y="-107" type="line"/>
			<point x="415" y="-114"/>
			<point x="399" y="-122"/>
			<point x="382" y="-122" type="curve" smooth="yes"/>
			<point x="356" y="-122"/>
			<point x="337" y="-110"/>
			<point x="337" y="-83" type="curve" smooth="yes"/>
			<point x="337" y="-56"/>
			<point x="359" y="-23"/>
			<point x="407" y="-8" type="curve" smooth="yes"/>
			<point x="533" y="30"/>
			<point x="591" y="117"/>
			<point x="591" y="302" type="curve" smooth="yes"/>
			<point x="591" y="652" type="line"/>
			<point x="449" y="652" type="line"/>
			<point x="449" y="287" type="line" smooth="yes"/>
			<point x="449" y="156"/>
			<point x="407" y="112"/>
			<point x="334" y="112" type="curve" smooth="yes"/>
			<point x="261" y="112"/>
			<point x="221" y="156"/>
			<point x="221" y="287" type="curve" smooth="yes"/>
			<point x="221" y="652" type="line"/>
			<point x="73" y="652" type="line"/>
			<point x="73" y="302" type="line" smooth="yes"/>
			<point x="73" y="83"/>
			<point x="165" y="-12"/>
			<point x="334" y="-12" type="curve"/>
			<point x="298" y="2" type="line"/>
			<point x="260" y="-23"/>
			<point x="222" y="-74"/>
			<point x="222" y="-126" type="curve" smooth="yes"/>
			<point x="222" y="-190"/>
			<point x="278" y="-226"/>
		</contour>
	</outline>
	<anchor name="aboveUC" x="332" y="674"/>
</glyph>
<glyph name="uogonek" format="2">
	<unicode hex="0173"/>
	<advance width="568"/>
	<outline>
		<contour>
			<point x="437" y="-219" type="curve" smooth="yes"/>
			<point x="473" y="-219"/>
			<point x="517" y="-205"/>
			<point x="545" y="-184" type="curve"/>
			<point x="514" y="-108" type="line"/>
			<point x="501" y="-115"/>
			<point x="485" y="-121"/>
			<point x="467" y="-121" type="curve" smooth="yes"/>
			<point x="447" y="-121"/>
			<point x="425" y="-110"/>
			<point x="425" y="-84" type="curve" smooth="yes"/>
			<point x="425" y="-54"/>
			<point x="447" y="-16"/>
			<point x="504" y="0" type="curve"/>
			<point x="504" y="496" type="line"/>
			<point x="357" y="496" type="line"/>
			<point x="357" y="168" type="line"/>
			<point x="328" y="129"/>
			<point x="306" y="113"/>
			<point x="269" y="113" type="curve" smooth="yes"/>
			<point x="226" y="113"/>
			<point x="207" y="136"/>
			<point x="207" y="207" type="curve" smooth="yes"/>
			<point x="207" y="496" type="line"/>
			<point x="60" y="496" type="line"/>
			<point x="60" y="188" type="line" smooth="yes"/>
			<point x="60" y="64"/>
			<point x="106" y="-12"/>
			<point x="214" y="-12" type="curve" smooth="yes"/>
			<point x="282" y="-12"/>
			<point x="328" y="19"/>
			<point x="370" y="69" type="curve"/>
			<point x="373" y="69" type="line"/>
			<point x="386" y="-2" type="line"/>
			<point x="358" y="-19"/>
			<point x="318" y="-61"/>
			<point x="318" y="-118" type="curve" smooth="yes"/>
			<point x="318" y="-186"/>
			<point x="370" y="-219"/>
		</contour>
	</outline>
	<anchor name="aboveLC" x="275" y="502"/>
</glyph>
<glyph name="Dhook" format="2">
	<unicode hex="018A"/>
	<advance width="827"/>
	<outline>
		<contour>
			<point x="281" y="0" type="line"/>
			<point x="456" y="0" type="line" smooth="yes"/>
			<point x="649" y="0"/>
			<point x="779" y="105"/>
			<point x="779" y="335" type="curve" smooth="yes"/>
			<point x="779" y="560"/>
			<point x="653" y="664"/>
			<point x="417" y="664" type="curve" smooth="yes"/>
			<point x="139" y="664"/>
			<point x="36" y="557"/>
			<point x="36" y="408" type="curve" smooth="yes"/>
			<point x="36" y="312"/>
			<point x="85" y="256"/>
			<point x="163" y="221" type="curve"/>
			<point x="223" y="319" type="line"/>
			<point x="184" y="340"/>
			<point x="163" y="367"/>
			<point x="163" y="413" type="curve" smooth="yes"/>
			<point x="163" y="481"/>
			<point x="216" y="537"/>
			<point x="351" y="537" type="curve" smooth="yes"/>
			<point x="418" y="537" type="line" smooth="yes"/>
			<point x="556" y="537"/>
			<point x="628" y="485"/>
			<point x="628" y="335" type="curve" smooth="yes"/>
			<point x="628" y="173"/>
			<point x="553" y="119"/>
			<point x="460" y="119" type="curve" smooth="yes"/>
			<point x="429" y="119" type="line"/>
			<point x="429" y="586" type="line"/>
			<point x="281" y="586" type="line"/>
		</contour>
	</outline>
	<anchor name="aboveUC" x="486" y="674"/>
	<anchor name="belowLC" x="504" y="-22"/>
</glyph>
<glyph name="Schwa" format="2">
	<unicode hex="018F"/>
	<advance width="665"/>
	<outline>
		<contour>
			<point x="335" y="-12" type="curve" smooth="yes"/>
			<point x="504" y="-12"/>
			<point x="619" y="104"/>
			<point x="619" y="327" type="curve" smooth="yes"/>
			<point x="619" y="548"/>
			<point x="506" y="664"/>
			<point x="327" y="664" type="curve" smooth="yes"/>
			<point x="223" y="664"/>
			<point x="139" y="626"/>
			<point x="76" y="567" type="curve"/>
			<point x="149" y="477" type="line"/>
			<point x="195" y="518"/>
			<point x="252" y="543"/>
			<point x="318" y="543" type="curve" smooth="yes"/>
			<point x="419" y="543"/>
			<point x="473" y="475"/>
			<point x="473" y="327" type="curve" smooth="yes"/>
			<point x="473" y="172"/>
			<point x="419" y="108"/>
			<point x="336" y="108" type="curve" smooth="yes"/>
			<point x="257" y="108"/>
			<point x="200" y="155"/>
			<point x="198" y="266" type="curve"/>
			<point x="510" y="266" type="line"/>
			<point x="510" y="373" type="line"/>
			<point x="56" y="373" type="line"/>
			<point x="52" y="356"/>
			<point x="51" y="337"/>
			<point x="51" y="321" type="curve" smooth="yes"/>
			<point x="51" y="101"/>
			<point x="161" y="-12"/>
		</contour>
	</outline>
	<anchor name="aboveUC" x="345" y="674"/>
	<anchor name="belowLC" x="336" y="-22"/>
</glyph>
<glyph name="Gammalatin" format="2">
	<unicode hex="0194"/>
	<advance width="556"/>
	<outline>
		<contour>
			<point x="278" y="-211" type="curve" smooth="yes"/>
			<point x="385" y="-211"/>
			<point x="441" y="-155"/>
			<point x="441" y="-73" type="curve" smooth="yes"/>
			<point x="441" y="-18"/>
			<point x="417" y="23"/>
			<point x="364" y="114" type="curve"/>
			<point x="377" y="57" type="line"/>
			<point x="563" y="652" type="line"/>
			<point x="413" y="652" type="line"/>
			<point x="332" y="358" type="line" smooth="yes"/>
			<point x="312" y="285"/>
			<point x="299" y="223"/>
			<point x="280" y="146" type="curve"/>
			<point x="276" y="146" type="line"/>
			<point x="256" y="223"/>
			<point x="242" y="285"/>
			<point x="223" y="358" type="curve" smooth="yes"/>
			<point x="149" y="652" type="line"/>
			<point x="-7" y="652" type="line"/>
			<point x="172" y="57" type="line"/>
			<point x="188" y="114" type="line"/>
			<point x="136" y="25"/>
			<point x="113" y="-18"/>
			<point x="113" y="-73" type="curve" smooth="yes"/>
			<point x="113" y="-155"/>
			<point x="168" y="-211"/>
		</contour>
		<contour>
			<point x="278" y="-119" type="curve" smooth="yes"/>
			<point x="255" y="-119"/>
			<point x="240" y="-102"/>
			<point x="240" y="-76" type="curve" smooth="yes"/>
			<point x="240" y="-49"/>
			<point x="252" y="-22"/>
			<point x="274" y="20" type="curve"/>
			<point x="279" y="20" type="line"/>
			<point x="303" y="-22"/>
			<point x="315" y="-49"/>
			<point x="315" y="-76" type="curve" smooth="yes"/>
			<point x="315" y="-102"/>
			<point x="300" y="-119"/>
		</contour>
	</outline>
	<anchor name="aboveUC" x="281" y="674"/>
	<anchor name="belowLC" x="281" y="-189"/>
</glyph>
<glyph name="Iotalatin" format="2">
	<unicode hex="0196"/>
	<advance width="300"/>
	<outline>
		<contour>
			<point x="214" y="-11" type="curve" smooth="yes"/>
			<point x="248" y="-11"/>
			<point x="274" y="-6"/>
			<point x="291" y="2" type="curve"/>
			<point x="271" y="118" type="line"/>
			<point x="263" y="116"/>
			<point x="259" y="116"/>
			<point x="253" y="116" type="curve" smooth="yes"/>
			<point x="240" y="116"/>
			<point x="224" y="125"/>
			<point x="224" y="158" type="curve" smooth="yes"/>
			<point x="224" y="652" type="line"/>
			<point x="77" y="652" type="line"/>
			<point x="77" y="156" type="line" smooth="yes"/>
			<point x="77" y="54"/>
			<point x="112" y="-11"/>
		</contour>
	</outline>
	<anchor name="aboveUC" x="152" y="674"/>
	<anchor name="belowLC" x="181" y="-22"/>
</glyph>
<glyph name="Istroke" format="2">
	<unicode hex="0197"/>
	<advance width="341"/>
	<outline>
		<contour>
			<point x="22" y="287" type="line"/>
			<point x="319" y="287" type="line"/>
			<point x="319" y="388" type="line"/>
			<point x="102" y="388" type="line"/>
			<point x="22" y="382" type="line"/>
		</contour>
		<component base="I" xOffset="20"/>
	</outline>
	<anchor name="aboveUC" x="172" y="674"/>
	<anchor name="belowLC" x="172" y="-22"/>
</glyph>
<glyph name="ohorn" format="2">
	<unicode hex="01A1"/>
	<advance width="555"/>
	<outline>
		<contour>
			<point x="443" y="439" type="line"/>
			<point x="511" y="460"/>
			<point x="565" y="508"/>
			<point x="565" y="588" type="curve" smooth="yes"/>
			<point x="565" y="625"/>
			<point x="550" y="662"/>
			<point x="535" y="682" type="curve"/>
			<point x="426" y="635" type="line"/>
			<point x="434" y="621"/>
			<point x="442" y="600"/>
			<point x="442" y="578" type="curve" smooth="yes"/>
			<point x="442" y="522"/>
			<point x="414" y="498"/>
			<point x="373" y="488" type="curve"/>
		</contour>
		<component base="o"/>
	</outline>
	<anchor name="aboveLC" x="278" y="518"/>
	<anchor name="belowLC" x="278" y="-22"/>
</glyph>
<glyph name="Uhorn" format="2">
	<unicode hex="01AF"/>
	<advance width="683"/>
	<outline>
		<contour>
			<point x="591" y="598" type="line"/>
			<point x="674" y="613"/>
			<point x="725" y="654"/>
			<point x="725" y="736" type="curve" smooth="yes"/>
			<point x="725" y="776"/>
			<point x="710" y="812"/>
			<point x="695" y="834" type="curve"/>
			<point x="586" y="790" type="line"/>
			<point x="594" y="775"/>
			<point x="602" y="751"/>
			<point x="602" y="725" type="curve" smooth="yes"/>
			<point x="602" y="664"/>
			<point x="559" y="654"/>
			<point x="519" y="652" type="curve"/>
		</contour>
		<component base="U"/>
	</outline>
	<anchor name="aboveUC" x="332" y="674"/>
	<anchor name="belowLC" x="332" y="-22"/>
</glyph>
<glyph name="uhorn" format="2">
	<unicode hex="01B0"/>
	<advance width="568"/>
	<outline>
		<contour>
			<point x="501" y="450" type="line"/>
			<point x="560" y="469"/>
			<point x="607" y="517"/>
			<point x="607" y="598" type="curve" smooth="yes"/>
			<point x="607" y="635"/>
			<point x="593" y="672"/>
			<point x="577" y="692" type="curve"/>
			<point x="469" y="645" type="line"/>
			<point x="476" y="631"/>
			<point x="484" y="610"/>
			<point x="484" y="588" type="curve" smooth="yes"/>
			<point x="484" y="511"/>
			<point x="441" y="498"/>
			<point x="403" y="496" type="curve"/>
		</contour>
		<component base="u"/>
	</outline>
	<anchor name="aboveLC" x="281" y="518"/>
	<anchor name="belowLC" x="298" y="-22"/>
</glyph>
<glyph name="Ezh" format="2">
	<unicode hex="01B7"/>
	<advance width="556"/>
	<outline>
		<contour>
			<point x="283" y="-12" type="curve" smooth="yes"/>
			<point x="411" y="-12"/>
			<point x="523" y="66"/>
			<point x="523" y="210" type="curve" smooth="yes"/>
			<point x="523" y="313"/>
			<point x="463" y="375"/>
			<point x="350" y="393" type="curve"/>
			<point x="506" y="556" type="line"/>
			<point x="506" y="652" type="line"/>
			<point x="64" y="652" type="line"/>
			<point x="64" y="528" type="line"/>
			<point x="320" y="528" type="line"/>
			<point x="154" y="361" type="line"/>
			<point x="202" y="282" type="line"/>
			<point x="230" y="291"/>
			<point x="243" y="293"/>
			<point x="278" y="293" type="curve" smooth="yes"/>
			<point x="331" y="293"/>
			<point x="379" y="265"/>
			<point x="379" y="206" type="curve" smooth="yes"/>
			<point x="379" y="145"/>
			<point x="334" y="115"/>
			<point x="265" y="115" type="curve" smooth="yes"/>
			<point x="210" y="115"/>
			<point x="153" y="133"/>
			<point x="104" y="178" type="curve"/>
			<point x="27" y="87" type="line"/>
			<point x="97" y="14"/>
			<point x="175" y="-12"/>
		</contour>
	</outline>
	<anchor name="aboveUC" x="282" y="674"/>
	<anchor name="belowLC" x="280" y="-22"/>
</glyph>
<glyph name="wynn" format="2">
	<unicode hex="01BF"/>
	<advance width="569"/>
	<outline>
		<contour>
			<point x="65" y="-184" type="line"/>
			<point x="212" y="-184" type="line"/>
			<point x="212" y="-86" type="line"/>
			<point x="208" y="-12" type="line"/>
			<point x="422" y="44"/>
			<point x="530" y="174"/>
			<point x="530" y="336" type="curve" smooth="yes"/>
			<point x="530" y="440"/>
			<point x="458" y="508"/>
			<point x="360" y="508" type="curve" smooth="yes"/>
			<point x="288" y="508"/>
			<point x="242" y="474"/>
			<point x="199" y="428" type="curve"/>
			<point x="195" y="428" type="line"/>
			<point x="185" y="496" type="line"/>
			<point x="65" y="496" type="line"/>
		</contour>
		<contour>
			<point x="212" y="109" type="curve"/>
			<point x="212" y="314" type="line"/>
			<point x="250" y="368"/>
			<point x="280" y="388"/>
			<point x="313" y="388" type="curve" smooth="yes"/>
			<point x="355" y="388"/>
			<point x="380" y="360"/>
			<point x="380" y="308" type="curve" smooth="yes"/>
			<point x="380" y="224"/>
			<point x="313" y="145"/>
		</contour>
	</outline>
	<anchor name="aboveLC" x="313" y="518"/>
	<anchor name="belowLC" x="143" y="-189"/>
</glyph>
<glyph name="Oogonek" format="2">
	<unicode hex="01EA"/>
	<advance width="684"/>
	<outline>
		<contour>
			<point x="359" y="-226" type="curve" smooth="yes"/>
			<point x="397" y="-226"/>
			<point x="443" y="-210"/>
			<point x="471" y="-189" type="curve"/>
			<point x="437" y="-107" type="line"/>
			<point x="425" y="-114"/>
			<point x="409" y="-122"/>
			<point x="392" y="-122" type="curve" smooth="yes"/>
			<point x="366" y="-122"/>
			<point x="347" y="-110"/>
			<point x="347" y="-83" type="curve" smooth="yes"/>
			<point x="347" y="-56"/>
			<point x="372" y="-19"/>
			<point x="426" y="-2" type="curve" smooth="yes"/>
			<point x="554" y="37"/>
			<point x="638" y="145"/>
			<point x="638" y="329" type="curve" smooth="yes"/>
			<point x="638" y="541"/>
			<point x="518" y="664"/>
			<point x="342" y="664" type="curve" smooth="yes"/>
			<point x="166" y="664"/>
			<point x="46" y="542"/>
			<point x="46" y="329" type="curve" smooth="yes"/>
			<point x="46" y="116"/>
			<point x="166" y="-12"/>
			<point x="342" y="-12" type="curve"/>
			<point x="311" y="2" type="line"/>
			<point x="267" y="-25"/>
			<point x="232" y="-77"/>
			<point x="232" y="-126" type="curve" smooth="yes"/>
			<point x="232" y="-190"/>
			<point x="288" y="-226"/>
		</contour>
		<contour>
			<point x="342" y="112" type="curve" smooth="yes"/>
			<point x="253" y="112"/>
			<point x="197" y="196"/>
			<point x="197" y="329" type="curve" smooth="yes"/>
			<point x="197" y="459"/>
			<point x="253" y="537"/>
			<point x="342" y="537" type="curve" smooth="yes"/>
			<point x="431" y="537"/>
			<point x="487" y="459"/>
			<point x="487" y="329" type="curve" smooth="yes"/>
			<point x="487" y="196"/>
			<point x="431" y="112"/>
		</contour>
	</outline>
	<anchor name="aboveUC" x="341" y="674"/>
	<anchor name="belowLC" x="345" y="-222"/>
</glyph>
<glyph name="Wynn" format="2">
	<unicode hex="01F7"/>
	<advance width="596"/>
	<outline>
		<contour>
			<point x="77" y="-170" type="line"/>
			<point x="224" y="-170" type="line"/>
			<point x="224" y="-2" type="line"/>
			<point x="470" y="122"/>
			<point x="560" y="282"/>
			<point x="560" y="445" type="curve" smooth="yes"/>
			<point x="560" y="598"/>
			<point x="494" y="664"/>
			<point x="386" y="664" type="curve" smooth="yes"/>
			<point x="322" y="664"/>
			<point x="269" y="633"/>
			<point x="219" y="582" type="curve"/>
			<point x="219" y="652" type="line"/>
			<point x="77" y="652" type="line"/>
		</contour>
		<contour>
			<point x="224" y="126" type="curve"/>
			<point x="224" y="455" type="line"/>
			<point x="258" y="507"/>
			<point x="301" y="537"/>
			<point x="339" y="537" type="curve" smooth="yes"/>
			<point x="386" y="537"/>
			<point x="416" y="506"/>
			<point x="416" y="429" type="curve" smooth="yes"/>
			<point x="416" y="324"/>
			<point x="368" y="224"/>
		</contour>
	</outline>
	<anchor name="aboveUC" x="333" y="674"/>
	<anchor name="belowLC" x="161" y="-175"/>
</glyph>
<glyph name="Yogh" format="2">
	<unicode hex="021C"/>
	<advance width="514"/>
	<outline>
		<contour>
			<point x="104" y="-182" type="line"/>
			<point x="361" y="-85"/>
			<point x="478" y="9"/>
			<point x="478" y="171" type="curve" smooth="yes"/>
			<point x="478" y="266"/>
			<point x="413" y="319"/>
			<point x="326" y="325" type="curve"/>
			<point x="408" y="379"/>
			<point x="440" y="438"/>
			<point x="440" y="516" type="curve" smooth="yes"/>
			<point x="440" y="602"/>
			<point x="369" y="664"/>
			<point x="258" y="664" type="curve" smooth="yes"/>
			<point x="165" y="664"/>
			<point x="98" y="635"/>
			<point x="16" y="557" type="curve"/>
			<point x="85" y="470" type="line"/>
			<point x="140" y="517"/>
			<point x="177" y="537"/>
			<point x="228" y="537" type="curve" smooth="yes"/>
			<point x="266" y="537"/>
			<point x="294" y="511"/>
			<point x="294" y="470" type="curve" smooth="yes"/>
			<point x="294" y="415"/>
			<point x="267" y="374"/>
			<point x="99" y="280" type="curve"/>
			<point x="148" y="194" type="line"/>
			<point x="200" y="220"/>
			<point x="223" y="226"/>
			<point x="260" y="226" type="curve" smooth="yes"/>
			<point x="301" y="226"/>
			<point x="331" y="198"/>
			<point x="331" y="148" type="curve" smooth="yes"/>
			<point x="331" y="81"/>
			<point x="258" y="9"/>
			<point x="49" y="-77" type="curve"/>
		</contour>
	</outline>
	<anchor name="aboveUC" x="256" y="674"/>
	<anchor name="belowLC" x="281" y="-175"/>
</glyph>
<glyph name="yogh" format="2">
	<unicode hex="021D"/>
	<advance width="457"/>
	<outline>
		<contour>
			<point x="91" y="-196" type="line"/>
			<point x="322" y="-116"/>
			<point x="423" y="-38"/>
			<point x="423" y="97" type="curve" smooth="yes"/>
			<point x="423" y="186"/>
			<point x="364" y="227"/>
			<point x="289" y="233" type="curve"/>
			<point x="360" y="278"/>
			<point x="390" y="323"/>
			<point x="390" y="384" type="curve" smooth="yes"/>
			<point x="390" y="455"/>
			<point x="328" y="508"/>
			<point x="229" y="508" type="curve" smooth="yes"/>
			<point x="147" y="508"/>
			<point x="84" y="485"/>
			<point x="12" y="419" type="curve"/>
			<point x="74" y="340" type="line"/>
			<point x="121" y="378"/>
			<point x="154" y="396"/>
			<point x="193" y="396" type="curve" smooth="yes"/>
			<point x="226" y="396"/>
			<point x="249" y="377"/>
			<point x="249" y="343" type="curve" smooth="yes"/>
			<point x="249" y="301"/>
			<point x="228" y="265"/>
			<point x="87" y="192" type="curve"/>
			<point x="130" y="113" type="line"/>
			<point x="170" y="133"/>
			<point x="193" y="141"/>
			<point x="218" y="141" type="curve" smooth="yes"/>
			<point x="257" y="141"/>
			<point x="282" y="119"/>
			<point x="282" y="82" type="curve" smooth="yes"/>
			<point x="282" y="26"/>
			<point x="224" y="-33"/>
			<point x="47" y="-100" type="curve"/>
		</contour>
	</outline>
	<anchor name="aboveLC" x="225" y="518"/>
	<anchor name="belowLC" x="243" y="-189"/>
</glyph>
<glyph name="Nlong" format="2">
	<unicode hex="0220"/>
	<advance width="686"/>
	<outline>
		<contour>
			<point x="466" y="-170" type="line"/>
			<point x="613" y="-170" type="line"/>
			<point x="613" y="357" type="line" smooth="yes"/>
			<point x="613" y="573"/>
			<point x="529" y="664"/>
			<point x="397" y="664" type="curve" smooth="yes"/>
			<point x="329" y="664"/>
			<point x="269" y="635"/>
			<point x="219" y="582" type="curve"/>
			<point x="219" y="652" type="line"/>
			<point x="77" y="652" type="line"/>
			<point x="77" y="0" type="line"/>
			<point x="224" y="0" type="line"/>
			<point x="224" y="455" type="line"/>
			<point x="257" y="508"/>
			<point x="311" y="537"/>
			<point x="352" y="537" type="curve" smooth="yes"/>
			<point x="425" y="537"/>
			<point x="466" y="484"/>
			<point x="466" y="340" type="curve" smooth="yes"/>
		</contour>
	</outline>
	<anchor name="aboveUC" x="363" y="674"/>
	<anchor name="belowLC" x="326" y="-175"/>
</glyph>
<glyph name="OU" format="2">
	<unicode hex="0222"/>
	<advance width="684"/>
	<outline>
		<contour>
			<point x="342" y="-12" type="curve" smooth="yes"/>
			<point x="525" y="-12"/>
			<point x="638" y="73"/>
			<point x="638" y="208" type="curve" smooth="yes"/>
			<point x="638" y="311"/>
			<point x="568" y="377"/>
			<point x="461" y="402" type="curve"/>
			<point x="461" y="371" type="line"/>
			<point x="571" y="406"/>
			<point x="600" y="476"/>
			<point x="600" y="580" type="curve" smooth="yes"/>
			<point x="600" y="652" type="line"/>
			<point x="458" y="652" type="line"/>
			<point x="458" y="590" type="line" smooth="yes"/>
			<point x="458" y="480"/>
			<point x="415" y="441"/>
			<point x="342" y="441" type="curve" smooth="yes"/>
			<point x="269" y="441"/>
			<point x="229" y="480"/>
			<point x="229" y="590" type="curve" smooth="yes"/>
			<point x="229" y="652" type="line"/>
			<point x="82" y="652" type="line"/>
			<point x="82" y="580" type="line" smooth="yes"/>
			<point x="82" y="476"/>
			<point x="110" y="406"/>
			<point x="220" y="371" type="curve"/>
			<point x="220" y="402" type="line"/>
			<point x="114" y="377"/>
			<point x="46" y="311"/>
			<point x="46" y="208" type="curve" smooth="yes"/>
			<point x="46" y="73"/>
			<point x="160" y="-12"/>
		</contour>
		<contour>
			<point x="342" y="115" type="curve" smooth="yes"/>
			<point x="255" y="115"/>
			<point x="197" y="152"/>
			<point x="197" y="219" type="curve" smooth="yes"/>
			<point x="197" y="287"/>
			<point x="255" y="324"/>
			<point x="342" y="324" type="curve" smooth="yes"/>
			<point x="430" y="324"/>
			<point x="487" y="287"/>
			<point x="487" y="219" type="curve" smooth="yes"/>
			<point x="487" y="152"/>
			<point x="430" y="115"/>
		</contour>
	</outline>
	<anchor name="aboveUC" x="342" y="674"/>
	<anchor name="belowLC" x="342" y="-22"/>
</glyph>
<glyph name="Astroke" format="2">
	<unicode hex="023A"/>
	<advance width="573"/>
	<outline>
		<contour>
			<point x="221" y="-62" type="line"/>
			<point x="399" y="702" type="line"/>
			<point x="353" y="713" type="line"/>
			<point x="175" y="-51" type="line"/>
		</contour>
		<component base="A"/>
	</outline>
	<anchor name="aboveUC" x="285" y="674"/>
	<anchor name="belowLC" x="285" y="-22"/>
</glyph>
<glyph name="Cstroke" format="2">
	<unicode hex="023B"/>
	<advance width="582"/>
	<outline>
		<contour>
			<point x="254" y="-62" type="line"/>
			<point x="464" y="702" type="line"/>
			<point x="416" y="713" type="line"/>
			<point x="206" y="-51" type="line"/>
		</contour>
		<component base="C"/>
	</outline>
	<anchor name="aboveUC" x="345" y="674"/>
	<anchor name="belowLC" x="348" y="-22"/>
</glyph>
<glyph name="Lbar" format="2">
	<unicode hex="023D"/>
	<advance width="537"/>
	<outline>
		<contour>
			<point x="22" y="311" type="line"/>
			<point x="407" y="311" type="line"/>
			<point x="407" y="412" type="line"/>
			<point x="99" y="412" type="line"/>
			<point x="22" y="406" type="line"/>
		</contour>
		<component base="L" xOffset="20"/>
	</outline>
	<anchor name="aboveUC" x="173" y="674"/>
	<anchor name="belowLC" x="308" y="-22"/>
</glyph>
<glyph name="Ubar" format="2">
	<unicode hex="0244"/>
	<advance width="705"/>
	<outline>
		<contour>
			<point x="18" y="320" type="line"/>
			<point x="686" y="320" type="line"/>
			<point x="686" y="421" type="line"/>
			<point x="95" y="421" type="line"/>
			<point x="18" y="416" type="line"/>
		</contour>
		<component base="U" xOffset="20"/>
	</outline>
	<anchor name="aboveUC" x="352" y="674"/>
	<anchor name="belowLC" x="352" y="-22"/>
</glyph>
<glyph name="Jstroke" format="2">
	<unicode hex="0248"/>
	<advance width="529"/>
	<outline>
		<contour>
			<point x="168" y="320" type="line"/>
			<point x="509" y="320" type="line"/>
			<point x="509" y="421" type="line"/>
			<point x="278" y="421" type="line"/>
			<point x="168" y="415" type="line"/>
		</contour>
		<component base="J"/>
	</outline>
	<anchor name="aboveUC" x="356" y="674"/>
	<anchor name="belowLC" x="265" y="-22"/>
</glyph>
<glyph name="ccurl" format="2">
	<unicode hex="0255"/>
	<advance width="476"/>
	<outline>
		<contour>
			<point x="137" y="-73" type="line"/>
			<point x="186" y="80"/>
			<point x="264" y="175"/>
			<point x="327" y="175" type="curve" smooth="yes"/>
			<point x="350" y="175"/>
			<point x="362" y="164"/>
			<point x="362" y="144" type="curve" smooth="yes"/>
			<point x="362" y="121"/>
			<point x="337" y="100"/>
			<point x="292" y="100" type="curve" smooth="yes"/>
			<point x="228" y="100"/>
			<point x="179" y="158"/>
			<point x="179" y="248" type="curve" smooth="yes"/>
			<point x="179" y="339"/>
			<point x="227" y="396"/>
			<point x="302" y="396" type="curve" smooth="yes"/>
			<point x="327" y="396"/>
			<point x="352" y="387"/>
			<point x="375" y="369" type="curve"/>
			<point x="439" y="455" type="line"/>
			<point x="402" y="487"/>
			<point x="356" y="508"/>
			<point x="294" y="508" type="curve" smooth="yes"/>
			<point x="157" y="508"/>
			<point x="36" y="413"/>
			<point x="36" y="248" type="curve" smooth="yes"/>
			<point x="36" y="83"/>
			<point x="143" y="-12"/>
			<point x="281" y="-12" type="curve" smooth="yes"/>
			<point x="401" y="-12"/>
			<point x="468" y="58"/>
			<point x="468" y="143" type="curve" smooth="yes"/>
			<point x="468" y="224"/>
			<point x="419" y="274"/>
			<point x="343" y="274" type="curve" smooth="yes"/>
			<point x="223" y="274"/>
			<point x="119" y="161"/>
			<point x="44" y="-38" type="curve"/>
		</contour>
	</outline>
	<anchor name="aboveLC" x="286" y="518"/>
	<anchor name="belowLC" x="290" y="-22"/>
</glyph>
<glyph name="eopenreversedrhotic" format="2">
	<unicode hex="025D"/>
	<advance width="624"/>
	<outline>
		<contour>
			<point x="199" y="-12" type="curve" smooth="yes"/>
			<point x="307" y="-12"/>
			<point x="411" y="39"/>
			<point x="411" y="134" type="curve" smooth="yes"/>
			<point x="411" y="205"/>
			<point x="368" y="245"/>
			<point x="307" y="260" type="curve"/>
			<point x="307" y="264" type="line"/>
			<point x="439" y="323" type="line"/>
			<point x="439" y="314" type="line" smooth="yes"/>
			<point x="439" y="227"/>
			<point x="491" y="194"/>
			<point x="548" y="194" type="curve" smooth="yes"/>
			<point x="589" y="194"/>
			<point x="615" y="206"/>
			<point x="636" y="219" type="curve"/>
			<point x="605" y="289" type="line"/>
			<point x="595" y="283"/>
			<point x="583" y="278"/>
			<point x="565" y="278" type="curve" smooth="yes"/>
			<point x="533" y="278"/>
			<point x="513" y="303"/>
			<point x="513" y="376" type="curve" smooth="yes"/>
			<point x="513" y="394"/>
			<point x="513" y="413"/>
			<point x="515" y="439" type="curve"/>
			<point x="504" y="448" type="line"/>
			<point x="351" y="381" type="line"/>
			<point x="353" y="289" type="line"/>
			<point x="375" y="308"/>
			<point x="383" y="334"/>
			<point x="383" y="365" type="curve" smooth="yes"/>
			<point x="383" y="463"/>
			<point x="298" y="508"/>
			<point x="192" y="508" type="curve" smooth="yes"/>
			<point x="130" y="508"/>
			<point x="73" y="492"/>
			<point x="28" y="461" type="curve"/>
			<point x="80" y="372" type="line"/>
			<point x="114" y="391"/>
			<point x="142" y="396"/>
			<point x="179" y="396" type="curve" smooth="yes"/>
			<point x="220" y="396"/>
			<point x="244" y="377"/>
			<point x="244" y="349" type="curve" smooth="yes"/>
			<point x="244" y="318"/>
			<point x="219" y="302"/>
			<point x="175" y="302" type="curve" smooth="yes"/>
			<point x="116" y="302" type="line"/>
			<point x="116" y="205" type="line"/>
			<point x="190" y="205" type="line" smooth="yes"/>
			<point x="243" y="205"/>
			<point x="267" y="188"/>
			<point x="267" y="155" type="curve" smooth="yes"/>
			<point x="267" y="120"/>
			<point x="231" y="100"/>
			<point x="174" y="100" type="curve" smooth="yes"/>
			<point x="143" y="100"/>
			<point x="106" y="109"/>
			<point x="69" y="130" type="curve"/>
			<point x="20" y="43" type="line"/>
			<point x="69" y="2"/>
			<point x="126" y="-12"/>
		</contour>
	</outline>
	<anchor name="aboveLC" x="210" y="518"/>
	<anchor name="belowLC" x="211" y="-22"/>
</glyph>
<glyph name="gsmall" format="2">
	<unicode hex="0262"/>
	<advance width="517"/>
	<outline>
		<contour>
			<point x="288" y="-12" type="curve" smooth="yes"/>
			<point x="366" y="-12"/>
			<point x="434" y="16"/>
			<point x="475" y="53" type="curve"/>
			<point x="475" y="299" type="line"/>
			<point x="266" y="299" type="line"/>
			<point x="266" y="197" type="line"/>
			<point x="350" y="197" type="line"/>
			<point x="350" y="115" type="line"/>
			<point x="337" y="106"/>
			<point x="320" y="102"/>
			<point x="299" y="102" type="curve" smooth="yes"/>
			<point x="232" y="102"/>
			<point x="185" y="154"/>
			<point x="185" y="247" type="curve" smooth="yes"/>
			<point x="185" y="348"/>
			<point x="242" y="394"/>
			<point x="300" y="394" type="curve" smooth="yes"/>
			<point x="346" y="394"/>
			<point x="368" y="380"/>
			<point x="397" y="360" type="curve"/>
			<point x="463" y="448" type="line"/>
			<point x="421" y="481"/>
			<point x="374" y="508"/>
			<point x="291" y="508" type="curve" smooth="yes"/>
			<point x="160" y="508"/>
			<point x="36" y="414"/>
			<point x="36" y="247" type="curve" smooth="yes"/>
			<point x="36" y="70"/>
			<point x="156" y="-12"/>
		</contour>
	</outline>
	<anchor name="aboveLC" x="286" y="518"/>
	<anchor name="belowLC" x="278" y="-22"/>
</glyph>
<glyph name="iotalatin" format="2">
	<unicode hex="0269"/>
	<advance width="286"/>
	<outline>
		<contour>
			<point x="200" y="-11" type="curve" smooth="yes"/>
			<point x="233" y="-11"/>
			<point x="258" y="-6"/>
			<point x="274" y="1" type="curve"/>
			<point x="256" y="109" type="line"/>
			<point x="248" y="107"/>
			<point x="244" y="107"/>
			<point x="239" y="107" type="curve" smooth="yes"/>
			<point x="226" y="107"/>
			<point x="212" y="117"/>
			<point x="212" y="149" type="curve" smooth="yes"/>
			<point x="212" y="496" type="line"/>
			<point x="65" y="496" type="line"/>
			<point x="65" y="155" type="line" smooth="yes"/>
			<point x="65" y="54"/>
			<point x="99" y="-11"/>
		</contour>
	</outline>
	<anchor name="aboveLC" x="143" y="518"/>
	<anchor name="belowLC" x="163" y="-22"/>
</glyph>
<glyph name="lbelt" format="2">
	<unicode hex="026C"/>
	<advance width="435"/>
	<outline>
		<contour>
			<point x="148" y="281" type="curve" smooth="yes"/>
			<point x="424" y="281" type="line"/>
			<point x="424" y="382" type="line"/>
			<point x="135" y="382" type="line" smooth="yes"/>
			<point x="102" y="382"/>
			<point x="85" y="394"/>
			<point x="85" y="413" type="curve" smooth="yes"/>
			<point x="85" y="430"/>
			<point x="95" y="441"/>
			<point x="114" y="441" type="curve" smooth="yes"/>
			<point x="140" y="441"/>
			<point x="160" y="419"/>
			<point x="160" y="384" type="curve"/>
			<point x="213" y="366" type="line"/>
			<point x="213" y="448"/>
			<point x="170" y="512"/>
			<point x="100" y="512" type="curve" smooth="yes"/>
			<point x="39" y="512"/>
			<point x="-5" y="468"/>
			<point x="-5" y="407" type="curve" smooth="yes"/>
			<point x="-5" y="337"/>
			<point x="41" y="281"/>
		</contour>
		<component base="l.a" xOffset="95"/>
	</outline>
	<anchor name="aboveUC" x="239" y="724"/>
	<anchor name="belowLC" x="239" y="-22"/>
</glyph>
<glyph name="mlonglegturned" format="2">
	<unicode hex="0270"/>
	<advance width="857"/>
	<outline>
		<contour>
			<point x="649" y="-184" type="line"/>
			<point x="796" y="-184" type="line"/>
			<point x="796" y="496" type="line"/>
			<point x="649" y="496" type="line"/>
			<point x="649" y="161" type="line"/>
			<point x="617" y="129"/>
			<point x="589" y="113"/>
			<point x="564" y="113" type="curve" smooth="yes"/>
			<point x="523" y="113"/>
			<point x="503" y="136"/>
			<point x="503" y="207" type="curve" smooth="yes"/>
			<point x="503" y="496" type="line"/>
			<point x="356" y="496" type="line"/>
			<point x="356" y="161" type="line"/>
			<point x="325" y="129"/>
			<point x="296" y="113"/>
			<point x="272" y="113" type="curve" smooth="yes"/>
			<point x="230" y="113"/>
			<point x="210" y="136"/>
			<point x="210" y="207" type="curve" smooth="yes"/>
			<point x="210" y="496" type="line"/>
			<point x="63" y="496" type="line"/>
			<point x="63" y="188" type="line" smooth="yes"/>
			<point x="63" y="64"/>
			<point x="111" y="-12"/>
			<point x="218" y="-12" type="curve" smooth="yes"/>
			<point x="284" y="-12"/>
			<point x="331" y="26"/>
			<point x="374" y="72" type="curve"/>
			<point x="399" y="18"/>
			<point x="441" y="-12"/>
			<point x="511" y="-12" type="curve" smooth="yes"/>
			<point x="570" y="-12"/>
			<point x="611" y="14"/>
			<point x="656" y="60" type="curve"/>
			<point x="649" y="-33" type="line"/>
		</contour>
	</outline>
	<anchor name="aboveLC" x="439" y="518"/>
	<anchor name="belowLC" x="434" y="-22"/>
</glyph>
<glyph name="rsmall" format="2">
	<unicode hex="0280"/>
	<advance width="532"/>
	<outline>
		<contour>
			<point x="65" y="0" type="line"/>
			<point x="212" y="0" type="line"/>
			<point x="212" y="163" type="line"/>
			<point x="268" y="163" type="line" smooth="yes"/>
			<point x="363" y="163"/>
			<point x="474" y="208"/>
			<point x="474" y="332" type="curve" smooth="yes"/>
			<point x="474" y="455"/>
			<point x="383" y="496"/>
			<point x="269" y="496" type="curve" smooth="yes"/>
			<point x="65" y="496" type="line"/>
		</contour>
		<contour>
			<point x="212" y="262" type="line"/>
			<point x="212" y="387" type="line"/>
			<point x="252" y="387" type="line" smooth="yes"/>
			<point x="303" y="387"/>
			<point x="330" y="367"/>
			<point x="330" y="327" type="curve" smooth="yes"/>
			<point x="330" y="289"/>
			<point x="304" y="262"/>
			<point x="252" y="262" type="curve" smooth="yes"/>
		</contour>
		<contour>
			<point x="355" y="0" type="line"/>
			<point x="518" y="0" type="line"/>
			<point x="364" y="239" type="line"/>
			<point x="244" y="200" type="line"/>
		</contour>
	</outline>
	<anchor name="aboveLC" x="266" y="518"/>
	<anchor name="belowLC" x="286" y="-22"/>
</glyph>
<glyph name="ubar" format="2">
	<unicode hex="0289"/>
	<advance width="623"/>
	<outline>
		<contour>
			<point x="17" y="253" type="line"/>
			<point x="603" y="253" type="line"/>
			<point x="603" y="355" type="line"/>
			<point x="88" y="355" type="line"/>
			<point x="17" y="349" type="line"/>
		</contour>
		<component base="u" xOffset="28"/>
	</outline>
	<anchor name="aboveLC" x="313" y="518"/>
	<anchor name="baseLC" x="280" y="0"/>
	<anchor name="belowLC" x="306" y="-22"/>
	<anchor name="ogonekLC" x="441" y="0"/>
</glyph>
<glyph name="ysmall" format="2">
	<unicode hex="028F"/>
	<advance width="466"/>
	<outline>
		<contour>
			<point x="160" y="0" type="line"/>
			<point x="307" y="0" type="line"/>
			<point x="307" y="150" type="line"/>
			<point x="474" y="496" type="line"/>
			<point x="321" y="496" type="line"/>
			<point x="280" y="389" type="line"/>
			<point x="265" y="348"/>
			<point x="251" y="313"/>
			<point x="236" y="271" type="curve"/>
			<point x="232" y="271" type="line"/>
			<point x="218" y="313"/>
			<point x="203" y="348"/>
			<point x="190" y="389" type="curve"/>
			<point x="147" y="496" type="line"/>
			<point x="-8" y="496" type="line"/>
			<point x="160" y="150" type="line"/>
		</contour>
	</outline>
	<anchor name="aboveLC" x="231" y="518"/>
	<anchor name="belowLC" x="231" y="-22"/>
</glyph>
<glyph name="clickbilabial" format="2">
	<unicode hex="0298"/>
	<advance width="556"/>
	<outline>
		<contour>
			<point x="278" y="-12" type="curve" smooth="yes"/>
			<point x="414" y="-12"/>
			<point x="508" y="107"/>
			<point x="508" y="353" type="curve" smooth="yes"/>
			<point x="508" y="595"/>
			<point x="414" y="712"/>
			<point x="278" y="712" type="curve" smooth="yes"/>
			<point x="142" y="712"/>
			<point x="48" y="596"/>
			<point x="48" y="353" type="curve" smooth="yes"/>
			<point x="48" y="107"/>
			<point x="142" y="-12"/>
		</contour>
		<contour>
			<point x="278" y="108" type="curve" smooth="yes"/>
			<point x="229" y="108"/>
			<point x="182" y="164"/>
			<point x="182" y="353" type="curve" smooth="yes"/>
			<point x="182" y="535"/>
			<point x="229" y="593"/>
			<point x="278" y="593" type="curve" smooth="yes"/>
			<point x="328" y="593"/>
			<point x="374" y="535"/>
			<point x="374" y="353" type="curve" smooth="yes"/>
			<point x="374" y="164"/>
			<point x="328" y="108"/>
		</contour>
		<contour>
			<point x="278" y="283" type="curve" smooth="yes"/>
			<point x="317" y="283"/>
			<point x="348" y="313"/>
			<point x="348" y="353" type="curve" smooth="yes"/>
			<point x="348" y="393"/>
			<point x="317" y="424"/>
			<point x="278" y="424" type="curve" smooth="yes"/>
			<point x="239" y="424"/>
			<point x="208" y="393"/>
			<point x="208" y="353" type="curve" smooth="yes"/>
			<point x="208" y="313"/>
			<point x="239" y="283"/>
		</contour>
	</outline>
	<anchor name="aboveUC" x="278" y="724"/>
	<anchor name="belowLC" x="278" y="-22"/>
</glyph>
<glyph name="dzed" format="2">
	<unicode hex="02A3"/>
	<advance width="883"/>
	<outline>
		<contour>
			<point x="232" y="-12" type="curve" smooth="yes"/>
			<point x="277" y="-12"/>
			<point x="320" y="15"/>
			<point x="354" y="49" type="curve"/>
			<point x="358" y="49" type="line"/>
			<point x="368" y="0" type="line"/>
			<point x="488" y="0" type="line"/>
			<point x="488" y="701" type="line"/>
			<point x="341" y="701" type="line"/>
			<point x="341" y="532" type="line"/>
			<point x="347" y="456" type="line"/>
			<point x="314" y="487"/>
			<point x="285" y="508"/>
			<point x="235" y="508" type="curve" smooth="yes"/>
			<point x="135" y="508"/>
			<point x="39" y="410"/>
			<point x="39" y="248" type="curve" smooth="yes"/>
			<point x="39" y="86"/>
			<point x="115" y="-12"/>
		</contour>
		<contour>
			<point x="270" y="108" type="curve" smooth="yes"/>
			<point x="220" y="108"/>
			<point x="190" y="152"/>
			<point x="190" y="250" type="curve" smooth="yes"/>
			<point x="190" y="344"/>
			<point x="226" y="388"/>
			<point x="269" y="388" type="curve" smooth="yes"/>
			<point x="293" y="388"/>
			<point x="317" y="379"/>
			<point x="341" y="356" type="curve"/>
			<point x="341" y="153" type="line"/>
			<point x="318" y="121"/>
			<point x="298" y="108"/>
		</contour>
		<contour>
			<point x="534" y="0" type="line"/>
			<point x="859" y="0" type="line"/>
			<point x="859" y="115" type="line"/>
			<point x="699" y="115" type="line"/>
			<point x="852" y="418" type="line"/>
			<point x="852" y="496" type="line"/>
			<point x="476" y="496" type="line"/>
			<point x="476" y="381" type="line"/>
			<point x="688" y="381" type="line"/>
			<point x="534" y="79" type="line"/>
		</contour>
	</outline>
	<anchor name="aboveUC" x="418" y="724"/>
	<anchor name="belowLC" x="509" y="-22"/>
</glyph>
<glyph name="dzcurl" format="2">
	<unicode hex="02A5"/>
	<advance width="979"/>
	<outline>
		<contour>
			<point x="232" y="-12" type="curve" smooth="yes"/>
			<point x="277" y="-12"/>
			<point x="320" y="15"/>
			<point x="354" y="49" type="curve"/>
			<point x="358" y="49" type="line"/>
			<point x="368" y="0" type="line"/>
			<point x="488" y="0" type="line"/>
			<point x="488" y="700" type="line"/>
			<point x="341" y="700" type="line"/>
			<point x="341" y="531" type="line"/>
			<point x="347" y="456" type="line"/>
			<point x="314" y="487"/>
			<point x="285" y="508"/>
			<point x="235" y="508" type="curve" smooth="yes"/>
			<point x="135" y="508"/>
			<point x="39" y="410"/>
			<point x="39" y="248" type="curve" smooth="yes"/>
			<point x="39" y="86"/>
			<point x="115" y="-12"/>
		</contour>
		<contour>
			<point x="270" y="108" type="curve" smooth="yes"/>
			<point x="220" y="108"/>
			<point x="190" y="152"/>
			<point x="190" y="249" type="curve" smooth="yes"/>
			<point x="190" y="344"/>
			<point x="226" y="388"/>
			<point x="269" y="388" type="curve" smooth="yes"/>
			<point x="293" y="388"/>
			<point x="317" y="379"/>
			<point x="341" y="356" type="curve"/>
			<point x="341" y="153" type="line"/>
			<point x="318" y="121"/>
			<point x="298" y="108"/>
		</contour>
		<contour>
			<point x="769" y="-82" type="line"/>
			<point x="804" y="100"/>
			<point x="837" y="173"/>
			<point x="873" y="173" type="curve" smooth="yes"/>
			<point x="888" y="173"/>
			<point x="896" y="165"/>
			<point x="896" y="149" type="curve" smooth="yes"/>
			<point x="896" y="128"/>
			<point x="876" y="108"/>
			<point x="837" y="108" type="curve" smooth="yes"/>
			<point x="789" y="108"/>
			<point x="746" y="110"/>
			<point x="698" y="116" type="curve"/>
			<point x="852" y="418" type="line"/>
			<point x="852" y="496" type="line"/>
			<point x="477" y="496" type="line"/>
			<point x="477" y="381" type="line"/>
			<point x="688" y="381" type="line"/>
			<point x="534" y="79" type="line"/>
			<point x="534" y="0" type="line"/>
			<point x="615" y="-4"/>
			<point x="708" y="-8"/>
			<point x="789" y="-8" type="curve" smooth="yes"/>
			<point x="927" y="-8"/>
			<point x="987" y="63"/>
			<point x="987" y="149" type="curve" smooth="yes"/>
			<point x="987" y="215"/>
			<point x="946" y="255"/>
			<point x="882" y="255" type="curve" smooth="yes"/>
			<point x="771" y="255"/>
			<point x="722" y="117"/>
			<point x="684" y="-68" type="curve"/>
		</contour>
	</outline>
	<anchor name="aboveUC" x="418" y="724"/>
	<anchor name="belowLC" x="509" y="-40"/>
</glyph>
<glyph name="ts" format="2">
	<unicode hex="02A6"/>
	<advance width="723"/>
	<outline>
		<contour>
			<point x="395" y="-12" type="curve" smooth="yes"/>
			<point x="633" y="-12"/>
			<point x="696" y="58"/>
			<point x="696" y="148" type="curve" smooth="yes"/>
			<point x="696" y="239"/>
			<point x="626" y="274"/>
			<point x="563" y="297" type="curve" smooth="yes"/>
			<point x="512" y="316"/>
			<point x="468" y="328"/>
			<point x="468" y="360" type="curve" smooth="yes"/>
			<point x="468" y="385"/>
			<point x="487" y="399"/>
			<point x="524" y="399" type="curve" smooth="yes"/>
			<point x="559" y="399"/>
			<point x="595" y="389"/>
			<point x="631" y="363" type="curve"/>
			<point x="694" y="445" type="line"/>
			<point x="651" y="482"/>
			<point x="591" y="508"/>
			<point x="519" y="508" type="curve" smooth="yes"/>
			<point x="406" y="508"/>
			<point x="331" y="445"/>
			<point x="331" y="353" type="curve" smooth="yes"/>
			<point x="331" y="271"/>
			<point x="399" y="230"/>
			<point x="459" y="207" type="curve" smooth="yes"/>
			<point x="510" y="187"/>
			<point x="558" y="172"/>
			<point x="558" y="139" type="curve" smooth="yes"/>
			<point x="558" y="113"/>
			<point x="528" y="97"/>
			<point x="399" y="97" type="curve" smooth="yes"/>
			<point x="285" y="97"/>
			<point x="232" y="144"/>
			<point x="232" y="206" type="curve" smooth="yes"/>
			<point x="232" y="381" type="line"/>
			<point x="359" y="381" type="line"/>
			<point x="462" y="496" type="line"/>
			<point x="232" y="496" type="line"/>
			<point x="232" y="648" type="line"/>
			<point x="110" y="648" type="line"/>
			<point x="93" y="496" type="line"/>
			<point x="17" y="490" type="line"/>
			<point x="17" y="381" type="line"/>
			<point x="85" y="381" type="line"/>
			<point x="85" y="204" type="line" smooth="yes"/>
			<point x="85" y="91"/>
			<point x="142" y="-12"/>
		</contour>
	</outline>
	<anchor name="aboveLC" x="404" y="657"/>
	<anchor name="belowLC" x="371" y="-22"/>
</glyph>
<glyph name="tccurl" format="2">
	<unicode hex="02A8"/>
	<advance width="797"/>
	<outline>
		<contour>
			<point x="256" y="-11" type="curve" smooth="yes"/>
			<point x="293" y="-11"/>
			<point x="321" y="-3"/>
			<point x="342" y="4" type="curve"/>
			<point x="318" y="110" type="line"/>
			<point x="307" y="106"/>
			<point x="297" y="104"/>
			<point x="288" y="104" type="curve" smooth="yes"/>
			<point x="253" y="104"/>
			<point x="232" y="127"/>
			<point x="232" y="183" type="curve" smooth="yes"/>
			<point x="232" y="381" type="line"/>
			<point x="548" y="381" type="line"/>
			<point x="548" y="496" type="line"/>
			<point x="232" y="496" type="line"/>
			<point x="232" y="648" type="line"/>
			<point x="110" y="648" type="line"/>
			<point x="93" y="496" type="line"/>
			<point x="17" y="490" type="line"/>
			<point x="17" y="381" type="line"/>
			<point x="85" y="381" type="line"/>
			<point x="85" y="181" type="line" smooth="yes"/>
			<point x="85" y="66"/>
			<point x="133" y="-11"/>
		</contour>
		<component base="ccurl" xOffset="321"/>
	</outline>
	<anchor name="aboveUC" x="348" y="706"/>
	<anchor name="belowLC" x="380" y="-22"/>
</glyph>
<glyph name="y.sups" format="2">
	<unicode hex="02B8"/>
	<advance width="353"/>
	<outline>
		<contour>
			<point x="83" y="252" type="curve" smooth="yes"/>
			<point x="164" y="252"/>
			<point x="200" y="292"/>
			<point x="233" y="376" type="curve"/>
			<point x="345" y="705" type="line"/>
			<point x="246" y="705" type="line"/>
			<point x="209" y="568" type="line" smooth="yes"/>
			<point x="201" y="536"/>
			<point x="192" y="506"/>
			<point x="186" y="474" type="curve"/>
			<point x="182" y="474" type="line"/>
			<point x="173" y="508"/>
			<point x="167" y="535"/>
			<point x="157" y="568" type="curve" smooth="yes"/>
			<point x="112" y="705" type="line"/>
			<point x="8" y="705" type="line"/>
			<point x="137" y="386" type="line"/>
			<point x="132" y="372" type="line" smooth="yes"/>
			<point x="124" y="348"/>
			<point x="106" y="331"/>
			<point x="75" y="331" type="curve" smooth="yes"/>
			<point x="68" y="331"/>
			<point x="63" y="331"/>
			<point x="52" y="335" type="curve"/>
			<point x="34" y="258" type="line"/>
			<point x="49" y="254"/>
			<point x="63" y="252"/>
		</contour>
	</outline>
</glyph>
<glyph name="apostrophemod" format="2">
	<unicode hex="02BC"/>
	<advance width="302"/>
	<outline>
		<contour>
			<point x="105" y="369" type="line"/>
			<point x="223" y="409"/>
			<point x="264" y="491"/>
			<point x="264" y="583" type="curve" smooth="yes"/>
			<point x="264" y="663"/>
			<point x="213" y="713"/>
			<point x="139" y="713" type="curve" smooth="yes"/>
			<point x="89" y="713"/>
			<point x="47" y="678"/>
			<point x="47" y="627" type="curve" smooth="yes"/>
			<point x="47" y="579"/>
			<point x="87" y="553"/>
			<point x="126" y="553" type="curve" smooth="yes"/>
			<point x="149" y="553"/>
			<point x="174" y="564"/>
			<point x="187" y="578" type="curve"/>
			<point x="164" y="578" type="line"/>
			<point x="167" y="571"/>
			<point x="168" y="565"/>
			<point x="168" y="556" type="curve" smooth="yes"/>
			<point x="168" y="518"/>
			<point x="136" y="464"/>
			<point x="70" y="440" type="curve"/>
		</contour>
	</outline>
</glyph>
<glyph name="commareversedmod" format="2">
	<unicode hex="02BD"/>
	<advance width="302"/>
	<outline>
		<contour>
			<point x="197" y="369" type="curve"/>
			<point x="233" y="440" type="line"/>
			<point x="167" y="464"/>
			<point x="134" y="518"/>
			<point x="134" y="555" type="curve" smooth="yes"/>
			<point x="134" y="565"/>
			<point x="135" y="571"/>
			<point x="138" y="578" type="curve"/>
			<point x="116" y="578" type="line"/>
			<point x="128" y="564"/>
			<point x="154" y="553"/>
			<point x="176" y="553" type="curve" smooth="yes"/>
			<point x="215" y="553"/>
			<point x="255" y="579"/>
			<point x="255" y="627" type="curve" smooth="yes"/>
			<point x="255" y="678"/>
			<point x="213" y="713"/>
			<point x="163" y="713" type="curve" smooth="yes"/>
			<point x="90" y="713"/>
			<point x="38" y="660"/>
			<point x="38" y="573" type="curve" smooth="yes"/>
			<point x="38" y="485"/>
			<point x="79" y="409"/>
		</contour>
	</outline>
</glyph>
<glyph name="ringhalfleftmod" format="2">
	<unicode hex="02BF"/>
	<advance width="269"/>
	<outline>
		<contour>
			<point x="221" y="393" type="curve"/>
			<point x="221" y="475" type="line"/>
			<point x="166" y="475"/>
			<point x="143" y="497"/>
			<point x="143" y="548" type="curve" smooth="yes"/>
			<point x="143" y="598"/>
			<point x="166" y="622"/>
			<point x="221" y="622" type="curve"/>
			<point x="221" y="704" type="line"/>
			<point x="102" y="709"/>
			<point x="37" y="655"/>
			<point x="37" y="548" type="curve" smooth="yes"/>
			<point x="37" y="442"/>
			<point x="102" y="388"/>
		</contour>
	</outline>
</glyph>
<glyph name="colontriangularhalfmod" format="2">
	<unicode hex="02D1"/>
	<advance width="300"/>
	<outline>
		<contour>
			<point x="143" y="305" type="line"/>
			<point x="157" y="305" type="line"/>
			<point x="257" y="496" type="line"/>
			<point x="43" y="496" type="line"/>
		</contour>
	</outline>
</glyph>
<glyph name="uptackmod" format="2">
	<unicode hex="02D4"/>
	<advance width="376"/>
	<outline>
		<contour>
			<point x="26" y="98" type="line"/>
			<point x="351" y="98" type="line"/>
			<point x="351" y="182" type="line"/>
			<point x="232" y="182" type="line"/>
			<point x="232" y="438" type="line"/>
			<point x="144" y="438" type="line"/>
			<point x="144" y="182" type="line"/>
			<point x="26" y="182" type="line"/>
		</contour>
	</outline>
</glyph>
<glyph name="glottalstopreversed.sups" format="2">
	<unicode hex="02E4"/>
	<advance width="343"/>
	<outline>
		<contour>
			<point x="134" y="375" type="line"/>
			<point x="238" y="375" type="line"/>
			<point x="238" y="582" type="line"/>
			<point x="158" y="628"/>
			<point x="132" y="660"/>
			<point x="132" y="701" type="curve" smooth="yes"/>
			<point x="132" y="738"/>
			<point x="155" y="762"/>
			<point x="194" y="762" type="curve" smooth="yes"/>
			<point x="225" y="762"/>
			<point x="252" y="748"/>
			<point x="273" y="726" type="curve"/>
			<point x="325" y="783" type="line"/>
			<point x="295" y="818"/>
			<point x="247" y="846"/>
			<point x="186" y="846" type="curve" smooth="yes"/>
			<point x="92" y="846"/>
			<point x="28" y="794"/>
			<point x="28" y="702" type="curve" smooth="yes"/>
			<point x="28" y="636"/>
			<point x="71" y="591"/>
			<point x="134" y="546" type="curve"/>
		</contour>
	</outline>
</glyph>
<glyph name="gravecmb" format="2">
	<unicode hex="0300"/>
	<outline>
		<contour>
			<point x="-26" y="570" type="line"/>
			<point x="86" y="570" type="line"/>
			<point x="-29" y="753" type="line"/>
			<point x="-184" y="753" type="line"/>
			<point x="-192" y="737" type="line"/>
		</contour>
	</outline>
	<anchor name="_aboveLC" x="0" y="518"/>
</glyph>
<glyph name="brevecmb" format="2">
	<unicode hex="0306"/>
	<outline>
		<contour>
			<point x="0" y="568" type="curve" smooth="yes"/>
			<point x="115" y="568"/>
			<point x="166" y="638"/>
			<point x="169" y="726" type="curve"/>
			<point x="85" y="740" type="line"/>
			<point x="79" y="697"/>
			<point x="53" y="660"/>
			<point x="0" y="660" type="curve" smooth="yes"/>
			<point x="-53" y="660"/>
			<point x="-79" y="697"/>
			<point x="-85" y="740" type="curve"/>
			<point x="-169" y="726" type="line"/>
			<point x="-166" y="638"/>
			<point x="-114" y="568"/>
		</contour>
	</outline>
	<anchor name="_aboveLC" x="0" y="518"/>
</glyph>
<glyph name="dieresiscmb" format="2">
	<unicode hex="0308"/>
	<outline>
		<contour>
			<point x="-109" y="569" type="curve" smooth="yes"/>
			<point x="-67" y="569"/>
			<point x="-38" y="600"/>
			<point x="-38" y="641" type="curve" smooth="yes"/>
			<point x="-38" y="681"/>
			<point x="-67" y="712"/>
			<point x="-109" y="712" type="curve" smooth="yes"/>
			<point x="-151" y="712"/>
			<point x="-181" y="681"/>
			<point x="-181" y="641" type="curve" smooth="yes"/>
			<point x="-181" y="600"/>
			<point x="-151" y="569"/>
		</contour>
		<contour>
			<point x="109" y="569" type="curve" smooth="yes"/>
			<point x="151" y="569"/>
			<point x="181" y="600"/>
			<point x="181" y="641" type="curve" smooth="yes"/>
			<point x="181" y="681"/>
			<point x="151" y="712"/>
			<point x="109" y="712" type="curve" smooth="yes"/>
			<point x="67" y="712"/>
			<point x="38" y="681"/>
			<point x="38" y="641" type="curve" smooth="yes"/>
			<point x="38" y="600"/>
			<point x="67" y="569"/>
		</contour>
	</outline>
	<anchor name="_aboveLC" x="0" y="518"/>
	<anchor name="aboveLC" x="0" y="722"/>
</glyph>
<glyph name="hoicmb" format="2">
	<unicode hex="0309"/>
	<outline>
		<contour>
			<point x="-43" y="563" type="line"/>
			<point x="32" y="569"/>
			<point x="97" y="608"/>
			<point x="97" y="681" type="curve" smooth="yes"/>
			<point x="97" y="745"/>
			<point x="50" y="780"/>
			<point x="-81" y="784" type="curve"/>
			<point x="-90" y="702" type="line"/>
			<point x="-32" y="698"/>
			<point x="-10" y="684"/>
			<point x="-10" y="661" type="curve" smooth="yes"/>
			<point x="-10" y="639"/>
			<point x="-30" y="627"/>
			<point x="-55" y="622" type="curve"/>
		</contour>
	</outline>
	<anchor name="_aboveLC" x="0" y="518"/>
	<anchor name="aboveLC" x="0" y="788"/>
</glyph>
<glyph name="hungarumlautcmb" format="2">
	<unicode hex="030B"/>
	<outline>
		<contour>
			<point x="-139" y="570" type="line"/>
			<point x="-61" y="570" type="line"/>
			<point x="56" y="737" type="line"/>
			<point x="48" y="753" type="line"/>
			<point x="-65" y="753" type="line"/>
		</contour>
		<contour>
			<point x="35" y="570" type="line"/>
			<point x="114" y="570" type="line"/>
			<point x="231" y="737" type="line"/>
			<point x="223" y="753" type="line"/>
			<point x="110" y="753" type="line"/>
		</contour>
	</outline>
	<anchor name="_aboveLC" x="0" y="518"/>
</glyph>
<glyph name="candrabinducmb" format="2">
	<unicode hex="0310"/>
	<outline>
		<contour>
			<point x="0" y="572" type="curve" smooth="yes"/>
			<point x="118" y="572"/>
			<point x="176" y="641"/>
			<point x="181" y="729" type="curve"/>
			<point x="105" y="743" type="line"/>
			<point x="98" y="695"/>
			<point x="60" y="655"/>
			<point x="0" y="655" type="curve" smooth="yes"/>
			<point x="-61" y="655"/>
			<point x="-98" y="695"/>
			<point x="-105" y="743" type="curve"/>
			<point x="-181" y="729" type="line"/>
			<point x="-176" y="641"/>
			<point x="-118" y="572"/>
		</contour>
		<contour>
			<point x="0" y="722" type="curve" smooth="yes"/>
			<point x="41" y="722"/>
			<point x="73" y="752"/>
			<point x="73" y="791" type="curve" smooth="yes"/>
			<point x="73" y="830"/>
			<point x="41" y="859"/>
			<point x="0" y="859" type="curve" smooth="yes"/>
			<point x="-41" y="859"/>
			<point x="-73" y="830"/>
			<point x="-73" y="791" type="curve" smooth="yes"/>
			<point x="-73" y="752"/>
			<point x="-41" y="722"/>
		</contour>
	</outline>
	<anchor name="_aboveLC" x="0" y="518"/>
</glyph>
<glyph name="commaturnedabovecmb" format="2">
	<unicode hex="0312"/>
	<outline>
		<contour>
			<point x="6" y="563" type="curve" smooth="yes"/>
			<point x="51" y="563"/>
			<point x="85" y="589"/>
			<point x="85" y="630" type="curve" smooth="yes"/>
			<point x="85" y="668"/>
			<point x="55" y="691"/>
			<point x="23" y="691" type="curve" smooth="yes"/>
			<point x="4" y="691"/>
			<point x="-7" y="687"/>
			<point x="-16" y="679" type="curve"/>
			<point x="-16" y="715"/>
			<point x="9" y="739"/>
			<point x="66" y="758" type="curve"/>
			<point x="40" y="811" type="line"/>
			<point x="-44" y="783"/>
			<point x="-86" y="736"/>
			<point x="-86" y="660" type="curve" smooth="yes"/>
			<point x="-86" y="600"/>
			<point x="-47" y="563"/>
		</contour>
	</outline>
	<anchor name="_aboveLC" x="0" y="518"/>
</glyph>
<glyph name="commaabovecmb" format="2">
	<unicode hex="0313"/>
	<outline>
		<contour>
			<point x="-40" y="563" type="line"/>
			<point x="44" y="590"/>
			<point x="86" y="637"/>
			<point x="86" y="713" type="curve" smooth="yes"/>
			<point x="86" y="774"/>
			<point x="47" y="811"/>
			<point x="-6" y="811" type="curve" smooth="yes"/>
			<point x="-51" y="811"/>
			<point x="-85" y="784"/>
			<point x="-85" y="744" type="curve" smooth="yes"/>
			<point x="-85" y="705"/>
			<point x="-55" y="683"/>
			<point x="-23" y="683" type="curve" smooth="yes"/>
			<point x="-4" y="683"/>
			<point x="7" y="687"/>
			<point x="16" y="694" type="curve"/>
			<point x="16" y="659"/>
			<point x="-9" y="635"/>
			<point x="-66" y="616" type="curve"/>
		</contour>
	</outline>
	<anchor name="_aboveLC" x="0" y="518"/>
</glyph>
<glyph name="righttackbelowcmb" format="2">
	<unicode hex="0319"/>
	<outline>
		<contour>
			<point x="-99" y="-257" type="line"/>
			<point x="-21" y="-257" type="line"/>
			<point x="-21" y="-191" type="line"/>
			<point x="87" y="-191" type="line"/>
			<point x="87" y="-120" type="line"/>
			<point x="-21" y="-120" type="line"/>
			<point x="-21" y="-54" type="line"/>
			<point x="-99" y="-54" type="line"/>
		</contour>
	</outline>
	<anchor name="_belowLC" x="0" y="-22"/>
</glyph>
<glyph name="leftangleabovecmb" format="2">
	<unicode hex="031A"/>
	<outline>
		<contour>
			<point x="21" y="574" type="line"/>
			<point x="99" y="574" type="line"/>
			<point x="99" y="724" type="line"/>
			<point x="-87" y="724" type="line"/>
			<point x="-87" y="653" type="line"/>
			<point x="21" y="653" type="line"/>
		</contour>
	</outline>
	<anchor name="_aboverightLC" x="0" y="518"/>
</glyph>
<glyph name="ringhalfleftbelowcmb" format="2">
	<unicode hex="031C"/>
	<outline>
		<contour>
			<point x="76" y="-253" type="curve"/>
			<point x="76" y="-198" type="line"/>
			<point x="29" y="-200"/>
			<point x="11" y="-178"/>
			<point x="11" y="-149" type="curve" smooth="yes"/>
			<point x="11" y="-120"/>
			<point x="29" y="-99"/>
			<point x="76" y="-100" type="curve"/>
			<point x="76" y="-45" type="line"/>
			<point x="-37" y="-40"/>
			<point x="-86" y="-79"/>
			<point x="-86" y="-149" type="curve" smooth="yes"/>
			<point x="-86" y="-219"/>
			<point x="-37" y="-258"/>
		</contour>
	</outline>
	<anchor name="_belowLC" x="0" y="-22"/>
</glyph>
<glyph name="uptackbelowcmb" format="2">
	<unicode hex="031D"/>
	<outline>
		<contour>
			<point x="-107" y="-229" type="line"/>
			<point x="107" y="-229" type="line"/>
			<point x="107" y="-158" type="line"/>
			<point x="39" y="-158" type="line"/>
			<point x="39" y="-54" type="line"/>
			<point x="-39" y="-54" type="line"/>
			<point x="-39" y="-158" type="line"/>
			<point x="-107" y="-158" type="line"/>
		</contour>
	</outline>
	<anchor name="_belowLC" x="0" y="-22"/>
</glyph>
<glyph name="plusbelowcmb" format="2">
	<unicode hex="031F"/>
	<outline>
		<contour>
			<point x="-39" y="-257" type="line"/>
			<point x="39" y="-257" type="line"/>
			<point x="39" y="-191" type="line"/>
			<point x="107" y="-191" type="line"/>
			<point x="107" y="-120" type="line"/>
			<point x="39" y="-120" type="line"/>
			<point x="39" y="-54" type="line"/>
			<point x="-39" y="-54" type="line"/>
			<point x="-39" y="-120" type="line"/>
			<point x="-107" y="-120" type="line"/>
			<point x="-107" y="-191" type="line"/>
			<point x="-39" y="-191" type="line"/>
		</contour>
	</outline>
	<anchor name="_belowLC" x="0" y="-22"/>
</glyph>
<glyph name="minusbelowcmb" format="2">
	<unicode hex="0320"/>
	<outline>
		<contour>
			<point x="-107" y="-191" type="line"/>
			<point x="107" y="-191" type="line"/>
			<point x="107" y="-120" type="line"/>
			<point x="-107" y="-120" type="line"/>
		</contour>
	</outline>
	<anchor name="_belowLC" x="0" y="-22"/>
</glyph>
<glyph name="ogonekcmb" format="2">
	<unicode hex="0328"/>
	<outline>
		<contour>
			<point x="12" y="-219" type="curve" smooth="yes"/>
			<point x="49" y="-219"/>
			<point x="93" y="-205"/>
			<point x="120" y="-184" type="curve"/>
			<point x="90" y="-108" type="line"/>
			<point x="77" y="-115"/>
			<point x="61" y="-121"/>
			<point x="42" y="-121" type="curve" smooth="yes"/>
			<point x="22" y="-121"/>
			<point x="1" y="-110"/>
			<point x="1" y="-84" type="curve" smooth="yes"/>
			<point x="1" y="-54"/>
			<point x="22" y="-24"/>
			<point x="54" y="2" type="curve"/>
			<point x="-38" y="2" type="line"/>
			<point x="-64" y="-17"/>
			<point x="-107" y="-61"/>
			<point x="-107" y="-118" type="curve" smooth="yes"/>
			<point x="-107" y="-186"/>
			<point x="-54" y="-219"/>
		</contour>
	</outline>
	<anchor name="_ogonekLC" x="0" y="0"/>
</glyph>
<glyph name="slashshortcmb" format="2">
	<unicode hex="0337"/>
	<outline>
		<contour>
			<point x="-454" y="-25" type="line"/>
			<point x="-46" y="480" type="line"/>
			<point x="-101" y="523" type="line"/>
			<point x="-509" y="17" type="line"/>
		</contour>
	</outline>
</glyph>
<glyph name="slashlongcmb" format="2">
	<unicode hex="0338"/>
	<outline>
		<contour>
			<point x="-568" y="-41" type="line"/>
			<point x="-24" y="634" type="line"/>
			<point x="-100" y="693" type="line"/>
			<point x="-644" y="17" type="line"/>
		</contour>
	</outline>
</glyph>
<glyph name="bridgeinvertedbelowcmb" format="2">
	<unicode hex="033A"/>
	<outline>
		<contour>
			<point x="-128" y="-214" type="line"/>
			<point x="128" y="-214" type="line"/>
			<point x="128" y="-72" type="line"/>
			<point x="55" y="-72" type="line"/>
			<point x="55" y="-143" type="line"/>
			<point x="-55" y="-143" type="line"/>
			<point x="-55" y="-72" type="line"/>
			<point x="-128" y="-72" type="line"/>
		</contour>
	</outline>
	<anchor name="_belowLC" x="0" y="-22"/>
</glyph>
<glyph name="variacmb" format="2">
	<unicode hex="0340"/>
	<outline>
		<contour>
			<point x="-40" y="569" type="line"/>
			<point x="63" y="569" type="line"/>
			<point x="30" y="779" type="line"/>
			<point x="-116" y="779" type="line"/>
			<point x="-124" y="764" type="line"/>
		</contour>
	</outline>
	<anchor name="_aboveLC" x="0" y="518"/>
</glyph>
<glyph name="macrondoublebelowcmb" format="2">
	<unicode hex="035F"/>
	<outline>
		<contour>
			<point x="-468" y="-181" type="line"/>
			<point x="468" y="-181" type="line"/>
			<point x="468" y="-98" type="line"/>
			<point x="-468" y="-98" type="line"/>
		</contour>
	</outline>
</glyph>
<glyph name="lownumeralsign" format="2">
	<unicode hex="0375"/>
	<advance width="300"/>
	<outline>
		<contour>
			<point x="53" y="0" type="line"/>
			<point x="199" y="0" type="line"/>
			<point x="218" y="298" type="line"/>
			<point x="122" y="298" type="line"/>
			<point x="75" y="127" type="line"/>
		</contour>
	</outline>
</glyph>
<glyph name="Psi" format="2">
	<unicode hex="03A8"/>
	<advance width="752"/>
	<outline>
		<contour>
			<point x="349" y="218" type="curve" smooth="yes"/>
			<point x="403" y="218" type="line" smooth="yes"/>
			<point x="586" y="218"/>
			<point x="699" y="297"/>
			<point x="699" y="491" type="curve" smooth="yes"/>
			<point x="699" y="652" type="line"/>
			<point x="555" y="652" type="line"/>
			<point x="555" y="500" type="line" smooth="yes"/>
			<point x="555" y="371"/>
			<point x="505" y="334"/>
			<point x="411" y="334" type="curve" smooth="yes"/>
			<point x="341" y="334" type="line" smooth="yes"/>
			<point x="247" y="334"/>
			<point x="196" y="371"/>
			<point x="196" y="500" type="curve" smooth="yes"/>
			<point x="196" y="652" type="line"/>
			<point x="52" y="652" type="line"/>
			<point x="52" y="491" type="line" smooth="yes"/>
			<point x="52" y="297"/>
			<point x="165" y="218"/>
		</contour>
		<contour>
			<point x="307" y="0" type="line"/>
			<point x="445" y="0" type="line"/>
			<point x="445" y="652" type="line"/>
			<point x="307" y="652" type="line"/>
		</contour>
	</outline>
</glyph>
<glyph name="iota" format="2">
	<unicode hex="03B9"/>
	<advance width="301"/>
	<outline>
		<contour>
			<point x="206" y="-11" type="curve" smooth="yes"/>
			<point x="248" y="-11"/>
			<point x="272" y="-4"/>
			<point x="293" y="5" type="curve"/>
			<point x="276" y="113" type="line"/>
			<point x="265" y="109"/>
			<point x="252" y="107"/>
			<point x="244" y="107" type="curve" smooth="yes"/>
			<point x="217" y="107"/>
			<point x="203" y="118"/>
			<point x="203" y="150" type="curve" smooth="yes"/>
			<point x="203" y="233"/>
			<point x="210" y="380"/>
			<point x="213" y="496" type="curve"/>
			<point x="65" y="496" type="line"/>
			<point x="65" y="156" type="line" smooth="yes"/>
			<point x="65" y="55"/>
			<point x="96" y="-11"/>
		</contour>
	</outline>
	<anchor name="aboveLC" x="138" y="518"/>
	<anchor name="belowLC" x="173" y="-22"/>
</glyph>
<glyph name="sigma.end" format="2">
	<unicode hex="03C2"/>
	<advance width="446"/>
	<outline>
		<contour>
			<point x="349" y="-186" type="line"/>
			<point x="392" y="-121"/>
			<point x="411" y="-54"/>
			<point x="411" y="-19" type="curve" smooth="yes"/>
			<point x="411" y="65"/>
			<point x="380" y="96"/>
			<point x="287" y="129" type="curve" smooth="yes"/>
			<point x="223" y="152"/>
			<point x="187" y="181"/>
			<point x="187" y="257" type="curve" smooth="yes"/>
			<point x="187" y="337"/>
			<point x="226" y="389"/>
			<point x="292" y="389" type="curve" smooth="yes"/>
			<point x="316" y="389"/>
			<point x="337" y="380"/>
			<point x="360" y="360" type="curve"/>
			<point x="430" y="455" type="line"/>
			<point x="394" y="486"/>
			<point x="344" y="508"/>
			<point x="283" y="508" type="curve" smooth="yes"/>
			<point x="150" y="508"/>
			<point x="36" y="416"/>
			<point x="36" y="257" type="curve" smooth="yes"/>
			<point x="36" y="97"/>
			<point x="134" y="42"/>
			<point x="226" y="11" type="curve" smooth="yes"/>
			<point x="267" y="-3"/>
			<point x="282" y="-23"/>
			<point x="282" y="-57" type="curve" smooth="yes"/>
			<point x="282" y="-83"/>
			<point x="261" y="-110"/>
			<point x="233" y="-148" type="curve"/>
		</contour>
	</outline>
	<anchor name="aboveLC" x="265" y="518"/>
	<anchor name="belowLC" x="216" y="-182"/>
</glyph>
<glyph name="Kai" format="2">
	<unicode hex="03CF"/>
	<advance width="616"/>
	<outline>
		<contour>
			<point x="77" y="0" type="line"/>
			<point x="224" y="0" type="line"/>
			<point x="224" y="175" type="line"/>
			<point x="380" y="384" type="line"/>
			<point x="584" y="652" type="line"/>
			<point x="422" y="652" type="line"/>
			<point x="228" y="385" type="line"/>
			<point x="224" y="385" type="line"/>
			<point x="224" y="652" type="line"/>
			<point x="77" y="652" type="line"/>
		</contour>
		<contour>
			<point x="256" y="-182" type="curve" smooth="yes"/>
			<point x="452" y="-182"/>
			<point x="592" y="-83"/>
			<point x="592" y="120" type="curve" smooth="yes"/>
			<point x="592" y="321"/>
			<point x="455" y="397"/>
			<point x="306" y="397" type="curve"/>
			<point x="282" y="281" type="line"/>
			<point x="390" y="281"/>
			<point x="448" y="227"/>
			<point x="448" y="118" type="curve" smooth="yes"/>
			<point x="448" y="3"/>
			<point x="365" y="-66"/>
			<point x="247" y="-66" type="curve" smooth="yes"/>
			<point x="196" y="-66"/>
			<point x="133" y="-55"/>
			<point x="92" y="-32" type="curve"/>
			<point x="48" y="-134" type="line"/>
			<point x="103" y="-170"/>
			<point x="177" y="-182"/>
		</contour>
	</outline>
</glyph>
<glyph name="Sho" format="2">
	<unicode hex="03F7"/>
	<advance width="599"/>
	<outline>
		<contour>
			<point x="77" y="-4" type="line"/>
			<point x="224" y="-4" type="line"/>
			<point x="224" y="82" type="line"/>
			<point x="242" y="82" type="line" smooth="yes"/>
			<point x="426" y="82"/>
			<point x="551" y="160"/>
			<point x="551" y="329" type="curve" smooth="yes"/>
			<point x="551" y="497"/>
			<point x="426" y="571"/>
			<point x="242" y="571" type="curve" smooth="yes"/>
			<point x="224" y="571" type="line"/>
			<point x="224" y="656" type="line"/>
			<point x="77" y="656" type="line"/>
		</contour>
		<contour>
			<point x="224" y="193" type="line"/>
			<point x="224" y="461" type="line"/>
			<point x="251" y="461" type="line" smooth="yes"/>
			<point x="347" y="461"/>
			<point x="412" y="421"/>
			<point x="412" y="329" type="curve" smooth="yes"/>
			<point x="412" y="236"/>
			<point x="347" y="193"/>
			<point x="251" y="193" type="curve" smooth="yes"/>
		</contour>
	</outline>
</glyph>
<glyph name="Lje" format="2">
	<unicode hex="0409"/>
	<advance width="906"/>
	<outline>
		<contour>
			<point x="66" y="-11" type="curve" smooth="yes"/>
			<point x="171" y="-11"/>
			<point x="225" y="48"/>
			<point x="269" y="266" type="curve" smooth="yes"/>
			<point x="286" y="352"/>
			<point x="301" y="436"/>
			<point x="315" y="528" type="curve"/>
			<point x="413" y="528" type="line"/>
			<point x="413" y="0" type="line"/>
			<point x="612" y="0" type="line" smooth="yes"/>
			<point x="757" y="0"/>
			<point x="870" y="56"/>
			<point x="870" y="213" type="curve" smooth="yes"/>
			<point x="870" y="357"/>
			<point x="762" y="414"/>
			<point x="615" y="414" type="curve" smooth="yes"/>
			<point x="561" y="414" type="line"/>
			<point x="561" y="652" type="line"/>
			<point x="202" y="652" type="line"/>
			<point x="180" y="526"/>
			<point x="159" y="404"/>
			<point x="132" y="282" type="curve" smooth="yes"/>
			<point x="100" y="142"/>
			<point x="77" y="127"/>
			<point x="44" y="127" type="curve" smooth="yes"/>
			<point x="33" y="127"/>
			<point x="25" y="129"/>
			<point x="16" y="131" type="curve"/>
			<point x="-10" y="-2" type="line"/>
			<point x="11" y="-8"/>
			<point x="31" y="-11"/>
		</contour>
		<contour>
			<point x="561" y="117" type="line"/>
			<point x="561" y="297" type="line"/>
			<point x="603" y="297" type="line" smooth="yes"/>
			<point x="685" y="297"/>
			<point x="726" y="269"/>
			<point x="726" y="211" type="curve" smooth="yes"/>
			<point x="726" y="144"/>
			<point x="680" y="117"/>
			<point x="603" y="117" type="curve" smooth="yes"/>
		</contour>
	</outline>
</glyph>
<glyph name="Dzhe" format="2">
	<unicode hex="040F"/>
	<advance width="663"/>
	<outline>
		<contour>
			<point x="267" y="-188" type="line"/>
			<point x="399" y="-188" type="line"/>
			<point x="410" y="0" type="line"/>
			<point x="586" y="0" type="line"/>
			<point x="586" y="652" type="line"/>
			<point x="439" y="652" type="line"/>
			<point x="439" y="124" type="line"/>
			<point x="224" y="124" type="line"/>
			<point x="224" y="652" type="line"/>
			<point x="77" y="652" type="line"/>
			<point x="77" y="0" type="line"/>
			<point x="267" y="0" type="line"/>
		</contour>
	</outline>
</glyph>
<glyph name="Icyr" format="2">
	<unicode hex="0418"/>
	<advance width="678"/>
	<outline>
		<contour>
			<point x="77" y="0" type="line"/>
			<point x="235" y="0" type="line"/>
			<point x="405" y="325" type="line"/>
			<point x="469" y="468" type="line"/>
			<point x="473" y="468" type="line"/>
			<point x="466" y="396"/>
			<point x="453" y="308"/>
			<point x="453" y="231" type="curve" smooth="yes"/>
			<point x="453" y="0" type="line"/>
			<point x="599" y="0" type="line"/>
			<point x="599" y="652" type="line"/>
			<point x="441" y="652" type="line"/>
			<point x="271" y="327" type="line"/>
			<point x="207" y="184" type="line"/>
			<point x="203" y="184" type="line"/>
			<point x="211" y="252"/>
			<point x="223" y="344"/>
			<point x="223" y="422" type="curve" smooth="yes"/>
			<point x="223" y="652" type="line"/>
			<point x="77" y="652" type="line"/>
		</contour>
	</outline>
	<anchor name="aboveUC" x="342" y="682"/>
</glyph>
<glyph name="El" format="2">
	<unicode hex="041B"/>
	<advance width="657"/>
	<outline>
		<contour>
			<point x="66" y="-11" type="curve" smooth="yes"/>
			<point x="171" y="-11"/>
			<point x="223" y="48"/>
			<point x="267" y="266" type="curve" smooth="yes"/>
			<point x="285" y="352"/>
			<point x="301" y="436"/>
			<point x="315" y="528" type="curve"/>
			<point x="433" y="528" type="line"/>
			<point x="433" y="0" type="line"/>
			<point x="581" y="0" type="line"/>
			<point x="581" y="652" type="line"/>
			<point x="202" y="652" type="line"/>
			<point x="180" y="526"/>
			<point x="159" y="404"/>
			<point x="132" y="282" type="curve" smooth="yes"/>
			<point x="100" y="142"/>
			<point x="77" y="127"/>
			<point x="44" y="127" type="curve" smooth="yes"/>
			<point x="33" y="127"/>
			<point x="25" y="129"/>
			<point x="16" y="131" type="curve"/>
			<point x="-10" y="-2" type="line"/>
			<point x="11" y="-8"/>
			<point x="31" y="-11"/>
		</contour>
	</outline>
</glyph>
<glyph name="Che" format="2">
	<unicode hex="0427"/>
	<advance width="630"/>
	<outline>
		<contour>
			<point x="405" y="0" type="line"/>
			<point x="553" y="0" type="line"/>
			<point x="553" y="652" type="line"/>
			<point x="405" y="652" type="line"/>
			<point x="405" y="361" type="line"/>
			<point x="385" y="357"/>
			<point x="360" y="354"/>
			<point x="321" y="354" type="curve" smooth="yes"/>
			<point x="240" y="354"/>
			<point x="205" y="385"/>
			<point x="205" y="475" type="curve" smooth="yes"/>
			<point x="205" y="652" type="line"/>
			<point x="60" y="652" type="line"/>
			<point x="60" y="475" type="line" smooth="yes"/>
			<point x="60" y="300"/>
			<point x="151" y="237"/>
			<point x="306" y="237" type="curve" smooth="yes"/>
			<point x="350" y="237"/>
			<point x="376" y="240"/>
			<point x="405" y="244" type="curve"/>
		</contour>
	</outline>
	<anchor name="aboveUC" x="308" y="674"/>
</glyph>
<glyph name="Shcha" format="2">
	<unicode hex="0429"/>
	<advance width="928"/>
	<outline>
		<contour>
			<point x="771" y="-188" type="line"/>
			<point x="902" y="-188" type="line"/>
			<point x="915" y="32" type="line"/>
			<point x="915" y="124" type="line"/>
			<point x="743" y="124" type="line"/>
			<point x="743" y="0" type="line"/>
			<point x="771" y="0" type="line"/>
		</contour>
		<component base="Sha"/>
	</outline>
</glyph>
<glyph name="Hard" format="2">
	<unicode hex="042A"/>
	<advance width="730"/>
	<outline>
		<contour>
			<point x="216" y="0" type="line"/>
			<point x="439" y="0" type="line" smooth="yes"/>
			<point x="580" y="0"/>
			<point x="693" y="56"/>
			<point x="693" y="213" type="curve" smooth="yes"/>
			<point x="693" y="354"/>
			<point x="573" y="414"/>
			<point x="434" y="414" type="curve" smooth="yes"/>
			<point x="364" y="414" type="line"/>
			<point x="364" y="652" type="line"/>
			<point x="25" y="652" type="line"/>
			<point x="25" y="528" type="line"/>
			<point x="216" y="528" type="line"/>
		</contour>
		<contour>
			<point x="364" y="117" type="line"/>
			<point x="364" y="297" type="line"/>
			<point x="426" y="297" type="line" smooth="yes"/>
			<point x="508" y="297"/>
			<point x="549" y="267"/>
			<point x="549" y="211" type="curve" smooth="yes"/>
			<point x="549" y="144"/>
			<point x="507" y="117"/>
			<point x="430" y="117" type="curve" smooth="yes"/>
		</contour>
	</outline>
</glyph>
<glyph name="Soft" format="2">
	<unicode hex="042C"/>
	<advance width="600"/>
	<outline>
		<contour>
			<point x="77" y="0" type="line"/>
			<point x="306" y="0" type="line" smooth="yes"/>
			<point x="450" y="0"/>
			<point x="563" y="56"/>
			<point x="563" y="213" type="curve" smooth="yes"/>
			<point x="563" y="357"/>
			<point x="455" y="414"/>
			<point x="308" y="414" type="curve" smooth="yes"/>
			<point x="224" y="414" type="line"/>
			<point x="224" y="652" type="line"/>
			<point x="77" y="652" type="line"/>
		</contour>
		<contour>
			<point x="224" y="117" type="line"/>
			<point x="224" y="297" type="line"/>
			<point x="296" y="297" type="line" smooth="yes"/>
			<point x="379" y="297"/>
			<point x="419" y="269"/>
			<point x="419" y="211" type="curve" smooth="yes"/>
			<point x="419" y="144"/>
			<point x="374" y="117"/>
			<point x="297" y="117" type="curve" smooth="yes"/>
		</contour>
	</outline>
</glyph>
<glyph name="Ecyr" format="2">
	<unicode hex="042D"/>
	<advance width="582"/>
	<outline>
		<contour>
			<point x="239" y="-12" type="curve" smooth="yes"/>
			<point x="402" y="-12"/>
			<point x="536" y="91"/>
			<point x="536" y="322" type="curve" smooth="yes"/>
			<point x="536" y="553"/>
			<point x="408" y="664"/>
			<point x="242" y="664" type="curve" smooth="yes"/>
			<point x="154" y="664"/>
			<point x="88" y="629"/>
			<point x="39" y="579" type="curve"/>
			<point x="108" y="490" type="line"/>
			<point x="144" y="522"/>
			<point x="185" y="537"/>
			<point x="234" y="537" type="curve" smooth="yes"/>
			<point x="333" y="537"/>
			<point x="390" y="473"/>
			<point x="390" y="328" type="curve" smooth="yes"/>
			<point x="390" y="177"/>
			<point x="332" y="115"/>
			<point x="237" y="115" type="curve" smooth="yes"/>
			<point x="180" y="115"/>
			<point x="135" y="135"/>
			<point x="100" y="171" type="curve"/>
			<point x="22" y="84" type="line"/>
			<point x="80" y="19"/>
			<point x="154" y="-12"/>
		</contour>
		<contour>
			<point x="160" y="274" type="line"/>
			<point x="452" y="274" type="line"/>
			<point x="452" y="397" type="line"/>
			<point x="160" y="397" type="line"/>
		</contour>
	</outline>
	<anchor name="aboveUC" x="263" y="674"/>
</glyph>
<glyph name="ghe" format="2">
	<unicode hex="0433"/>
	<advance width="432"/>
	<outline>
		<contour>
			<point x="65" y="0" type="line"/>
			<point x="212" y="0" type="line"/>
			<point x="212" y="381" type="line"/>
			<point x="406" y="381" type="line"/>
			<point x="406" y="496" type="line"/>
			<point x="65" y="496" type="line"/>
		</contour>
	</outline>
	<anchor name="aboveLC" x="242" y="518"/>
</glyph>
<glyph name="ze" format="2">
	<unicode hex="0437"/>
	<advance width="476"/>
	<outline>
		<contour>
			<point x="220" y="-12" type="curve" smooth="yes"/>
			<point x="331" y="-12"/>
			<point x="442" y="41"/>
			<point x="442" y="141" type="curve" smooth="yes"/>
			<point x="442" y="208"/>
			<point x="406" y="243"/>
			<point x="345" y="258" type="curve"/>
			<point x="345" y="262" type="line"/>
			<point x="400" y="279"/>
			<point x="423" y="325"/>
			<point x="423" y="367" type="curve" smooth="yes"/>
			<point x="423" y="465"/>
			<point x="326" y="508"/>
			<point x="218" y="508" type="curve" smooth="yes"/>
			<point x="152" y="508"/>
			<point x="91" y="492"/>
			<point x="36" y="457" type="curve"/>
			<point x="91" y="363" type="line"/>
			<point x="129" y="387"/>
			<point x="165" y="396"/>
			<point x="209" y="396" type="curve" smooth="yes"/>
			<point x="256" y="396"/>
			<point x="282" y="379"/>
			<point x="282" y="350" type="curve" smooth="yes"/>
			<point x="282" y="320"/>
			<point x="259" y="304"/>
			<point x="213" y="304" type="curve" smooth="yes"/>
			<point x="143" y="304" type="line"/>
			<point x="143" y="203" type="line"/>
			<point x="222" y="203" type="line" smooth="yes"/>
			<point x="274" y="203"/>
			<point x="298" y="189"/>
			<point x="298" y="156" type="curve" smooth="yes"/>
			<point x="298" y="121"/>
			<point x="258" y="100"/>
			<point x="206" y="100" type="curve" smooth="yes"/>
			<point x="171" y="100"/>
			<point x="126" y="112"/>
			<point x="86" y="140" type="curve"/>
			<point x="28" y="47" type="line"/>
			<point x="91" y="-1"/>
			<point x="153" y="-12"/>
		</contour>
	</outline>
</glyph>
<glyph name="el" format="2">
	<unicode hex="043B"/>
	<advance width="573"/>
	<outline>
		<contour>
			<point x="65" y="-11" type="curve" smooth="yes"/>
			<point x="161" y="-11"/>
			<point x="215" y="50"/>
			<point x="231" y="160" type="curve" smooth="yes"/>
			<point x="242" y="233"/>
			<point x="250" y="308"/>
			<point x="259" y="381" type="curve"/>
			<point x="362" y="381" type="line"/>
			<point x="362" y="0" type="line"/>
			<point x="509" y="0" type="line"/>
			<point x="509" y="496" type="line"/>
			<point x="143" y="496" type="line"/>
			<point x="131" y="397"/>
			<point x="122" y="299"/>
			<point x="109" y="201" type="curve" smooth="yes"/>
			<point x="102" y="148"/>
			<point x="82" y="128"/>
			<point x="55" y="128" type="curve" smooth="yes"/>
			<point x="46" y="128"/>
			<point x="38" y="130"/>
			<point x="30" y="132" type="curve"/>
			<point x="6" y="0" type="line"/>
			<point x="24" y="-8"/>
			<point x="42" y="-11"/>
		</contour>
	</outline>
</glyph>
<glyph name="pe" format="2">
	<unicode hex="043F"/>
	<advance width="574"/>
	<outline>
		<contour>
			<point x="65" y="0" type="line"/>
			<point x="212" y="0" type="line"/>
			<point x="212" y="381" type="line"/>
			<point x="362" y="381" type="line"/>
			<point x="362" y="0" type="line"/>
			<point x="509" y="0" type="line"/>
			<point x="509" y="496" type="line"/>
			<point x="65" y="496" type="line"/>
		</contour>
	</outline>
</glyph>
<glyph name="sha" format="2">
	<unicode hex="0448"/>
	<advance width="803"/>
	<outline>
		<contour>
			<point x="65" y="0" type="line"/>
			<point x="739" y="0" type="line"/>
			<point x="739" y="496" type="line"/>
			<point x="593" y="496" type="line"/>
			<point x="593" y="115" type="line"/>
			<point x="472" y="115" type="line"/>
			<point x="472" y="496" type="line"/>
			<point x="331" y="496" type="line"/>
			<point x="331" y="115" type="line"/>
			<point x="210" y="115" type="line"/>
			<point x="210" y="496" type="line"/>
			<point x="65" y="496" type="line"/>
		</contour>
	</outline>
</glyph>
<glyph name="Gheup" format="2">
	<unicode hex="0490"/>
	<advance width="521"/>
	<outline>
		<contour>
			<point x="77" y="0" type="line"/>
			<point x="224" y="0" type="line"/>
			<point x="224" y="528" type="line"/>
			<point x="488" y="528" type="line"/>
			<point x="498" y="824" type="line"/>
			<point x="372" y="824" type="line"/>
			<point x="352" y="652" type="line"/>
			<point x="77" y="652" type="line"/>
		</contour>
	</outline>
</glyph>
<glyph name="zhedescender" format="2">
	<unicode hex="0497"/>
	<advance width="806"/>
	<outline>
		<contour>
			<point x="656" y="-172" type="line"/>
			<point x="781" y="-172" type="line"/>
			<point x="795" y="19" type="line"/>
			<point x="795" y="115" type="line"/>
			<point x="627" y="115" type="line"/>
			<point x="627" y="0" type="line"/>
			<point x="656" y="0" type="line"/>
		</contour>
		<component base="zhe"/>
	</outline>
</glyph>
<glyph name="Zedescender" format="2">
	<unicode hex="0498"/>
	<advance width="564"/>
	<outline>
		<contour>
			<point x="216" y="-188" type="line"/>
			<point x="347" y="-188" type="line"/>
			<point x="360" y="22" type="line"/>
			<point x="216" y="0" type="line"/>
		</contour>
		<component base="Ze"/>
	</outline>
</glyph>
<glyph name="kabashkir" format="2">
	<unicode hex="04A1"/>
	<advance width="658"/>
	<outline>
		<contour>
			<point x="320" y="496" type="line"/>
			<point x="26" y="496" type="line"/>
			<point x="26" y="381" type="line"/>
			<point x="175" y="381" type="line"/>
		</contour>
		<component base="ka" xOffset="110"/>
	</outline>
</glyph>
<glyph name="Ustraightstroke" format="2">
	<unicode hex="04B0"/>
	<advance width="525"/>
	<outline>
		<contour>
			<point x="48" y="205" type="line"/>
			<point x="478" y="205" type="line"/>
			<point x="478" y="306" type="line"/>
			<point x="142" y="306" type="line"/>
			<point x="48" y="301" type="line"/>
		</contour>
		<component base="Y"/>
	</outline>
	<anchor name="aboveUC" x="261" y="674"/>
</glyph>
<glyph name="ustraightstroke" format="2">
	<unicode hex="04B1"/>
	<advance width="522"/>
	<outline>
		<contour>
			<point x="49" y="0" type="line"/>
			<point x="473" y="0" type="line"/>
			<point x="473" y="101" type="line"/>
			<point x="126" y="101" type="line"/>
			<point x="49" y="95" type="line"/>
		</contour>
		<component base="ustraight"/>
	</outline>
	<anchor name="aboveLC" x="263" y="518"/>
</glyph>
<glyph name="chedescender" format="2">
	<unicode hex="04B7"/>
	<advance width="575"/>
	<outline>
		<contour>
			<point x="425" y="-172" type="line"/>
			<point x="550" y="-172" type="line"/>
			<point x="564" y="19" type="line"/>
			<point x="564" y="115" type="line"/>
			<point x="392" y="115" type="line"/>
			<point x="392" y="0" type="line"/>
			<point x="425" y="0" type="line"/>
		</contour>
		<component base="che"/>
	</outline>
</glyph>
<glyph name="Shha" format="2">
	<unicode hex="04BA"/>
	<advance width="630"/>
	<outline>
		<contour>
			<point x="77" y="0" type="line"/>
			<point x="224" y="0" type="line"/>
			<point x="224" y="298" type="line"/>
			<point x="245" y="302"/>
			<point x="269" y="305"/>
			<point x="307" y="305" type="curve" smooth="yes"/>
			<point x="389" y="305"/>
			<point x="425" y="274"/>
			<point x="425" y="184" type="curve" smooth="yes"/>
			<point x="425" y="0" type="line"/>
			<point x="569" y="0" type="line"/>
			<point x="569" y="184" type="line" smooth="yes"/>
			<point x="569" y="359"/>
			<point x="476" y="422"/>
			<point x="322" y="422" type="curve" smooth="yes"/>
			<point x="279" y="422"/>
			<point x="253" y="420"/>
			<point x="224" y="415" type="curve"/>
			<point x="224" y="652" type="line"/>
			<point x="77" y="652" type="line"/>
		</contour>
	</outline>
</glyph>
<glyph name="Kahook" format="2">
	<unicode hex="04C3"/>
	<advance width="628"/>
	<outline>
		<contour>
			<point x="339" y="-182" type="curve" smooth="yes"/>
			<point x="483" y="-182"/>
			<point x="591" y="-84"/>
			<point x="591" y="110" type="curve" smooth="yes"/>
			<point x="591" y="315"/>
			<point x="450" y="394"/>
			<point x="306" y="394" type="curve"/>
			<point x="414" y="345" type="line"/>
			<point x="475" y="467" type="line" smooth="yes"/>
			<point x="498" y="514"/>
			<point x="515" y="525"/>
			<point x="540" y="525" type="curve" smooth="yes"/>
			<point x="552" y="525"/>
			<point x="561" y="524"/>
			<point x="568" y="522" type="curve"/>
			<point x="592" y="654" type="line"/>
			<point x="578" y="661"/>
			<point x="556" y="663"/>
			<point x="534" y="663" type="curve" smooth="yes"/>
			<point x="464" y="663"/>
			<point x="409" y="637"/>
			<point x="368" y="546" type="curve" smooth="yes"/>
			<point x="299" y="396" type="line"/>
			<point x="224" y="396" type="line"/>
			<point x="224" y="652" type="line"/>
			<point x="77" y="652" type="line"/>
			<point x="77" y="0" type="line"/>
			<point x="224" y="0" type="line"/>
			<point x="224" y="277" type="line"/>
			<point x="282" y="277" type="line" smooth="yes"/>
			<point x="385" y="277"/>
			<point x="446" y="222"/>
			<point x="446" y="108" type="curve" smooth="yes"/>
			<point x="446" y="-15"/>
			<point x="375" y="-66"/>
			<point x="316" y="-66" type="curve" smooth="yes"/>
			<point x="303" y="-66"/>
			<point x="290" y="-64"/>
			<point x="277" y="-60" type="curve"/>
			<point x="251" y="-168" type="line"/>
			<point x="271" y="-176"/>
			<point x="298" y="-182"/>
		</contour>
	</outline>
</glyph>
<glyph name="Enhook" format="2">
	<unicode hex="04C7"/>
	<advance width="674"/>
	<outline>
		<contour>
			<point x="419" y="-182" type="curve" smooth="yes"/>
			<point x="554" y="-182"/>
			<point x="597" y="-91"/>
			<point x="597" y="18" type="curve" smooth="yes"/>
			<point x="597" y="652" type="line"/>
			<point x="449" y="652" type="line"/>
			<point x="449" y="401" type="line"/>
			<point x="224" y="401" type="line"/>
			<point x="224" y="652" type="line"/>
			<point x="77" y="652" type="line"/>
			<point x="77" y="0" type="line"/>
			<point x="224" y="0" type="line"/>
			<point x="224" y="272" type="line"/>
			<point x="449" y="272" type="line"/>
			<point x="449" y="14" type="line" smooth="yes"/>
			<point x="449" y="-41"/>
			<point x="436" y="-66"/>
			<point x="396" y="-66" type="curve" smooth="yes"/>
			<point x="383" y="-66"/>
			<point x="371" y="-63"/>
			<point x="358" y="-59" type="curve"/>
			<point x="332" y="-168" type="line"/>
			<point x="352" y="-176"/>
			<point x="378" y="-182"/>
		</contour>
	</outline>
</glyph>
<glyph name="ghedescender" format="2">
	<unicode hex="04F7"/>
	<advance width="432"/>
	<outline>
		<contour>
			<point x="148" y="-172" type="line"/>
			<point x="275" y="-172" type="line"/>
			<point x="289" y="19" type="line"/>
			<point x="289" y="115" type="line"/>
			<point x="118" y="115" type="line"/>
			<point x="118" y="0" type="line"/>
			<point x="148" y="0" type="line"/>
		</contour>
		<component base="ghe"/>
	</outline>
</glyph>
<glyph name="B.sups" format="2">
	<unicode hex="1D2E"/>
	<advance width="407"/>
	<outline>
		<contour>
			<point x="50" y="375" type="line"/>
			<point x="216" y="375" type="line" smooth="yes"/>
			<point x="310" y="375"/>
			<point x="386" y="416"/>
			<point x="386" y="504" type="curve" smooth="yes"/>
			<point x="386" y="561"/>
			<point x="354" y="593"/>
			<point x="292" y="605" type="curve"/>
			<point x="292" y="607" type="line"/>
			<point x="343" y="622"/>
			<point x="365" y="663"/>
			<point x="365" y="702" type="curve" smooth="yes"/>
			<point x="365" y="783"/>
			<point x="294" y="807"/>
			<point x="203" y="807" type="curve" smooth="yes"/>
			<point x="50" y="807" type="line"/>
		</contour>
		<contour>
			<point x="154" y="635" type="line"/>
			<point x="154" y="728" type="line"/>
			<point x="199" y="728" type="line" smooth="yes"/>
			<point x="243" y="728"/>
			<point x="264" y="715"/>
			<point x="264" y="685" type="curve" smooth="yes"/>
			<point x="264" y="655"/>
			<point x="244" y="635"/>
			<point x="198" y="635" type="curve" smooth="yes"/>
		</contour>
		<contour>
			<point x="154" y="455" type="line"/>
			<point x="154" y="563" type="line"/>
			<point x="207" y="563" type="line" smooth="yes"/>
			<point x="259" y="563"/>
			<point x="284" y="547"/>
			<point x="284" y="512" type="curve" smooth="yes"/>
			<point x="284" y="474"/>
			<point x="259" y="455"/>
			<point x="207" y="455" type="curve" smooth="yes"/>
		</contour>
	</outline>
</glyph>
<glyph name="G.sups" format="2">
	<unicode hex="1D33"/>
	<advance width="431"/>
	<outline>
		<contour>
			<point x="245" y="367" type="curve" smooth="yes"/>
			<point x="306" y="367"/>
			<point x="359" y="391"/>
			<point x="391" y="419" type="curve"/>
			<point x="391" y="622" type="line"/>
			<point x="231" y="622" type="line"/>
			<point x="231" y="538" type="line"/>
			<point x="301" y="538" type="line"/>
			<point x="301" y="467" type="line"/>
			<point x="290" y="460"/>
			<point x="274" y="456"/>
			<point x="256" y="456" type="curve" smooth="yes"/>
			<point x="176" y="456"/>
			<point x="137" y="507"/>
			<point x="137" y="593" type="curve" smooth="yes"/>
			<point x="137" y="677"/>
			<point x="183" y="727"/>
			<point x="248" y="727" type="curve" smooth="yes"/>
			<point x="286" y="727"/>
			<point x="307" y="715"/>
			<point x="328" y="696" type="curve"/>
			<point x="384" y="760" type="line"/>
			<point x="352" y="789"/>
			<point x="309" y="815"/>
			<point x="248" y="815" type="curve" smooth="yes"/>
			<point x="128" y="815"/>
			<point x="31" y="733"/>
			<point x="31" y="588" type="curve" smooth="yes"/>
			<point x="31" y="444"/>
			<point x="123" y="367"/>
		</contour>
	</outline>
</glyph>
<glyph name="H.sups" format="2">
	<unicode hex="1D34"/>
	<advance width="452"/>
	<outline>
		<contour>
			<point x="50" y="375" type="line"/>
			<point x="154" y="375" type="line"/>
			<point x="154" y="554" type="line"/>
			<point x="299" y="554" type="line"/>
			<point x="299" y="375" type="line"/>
			<point x="403" y="375" type="line"/>
			<point x="403" y="807" type="line"/>
			<point x="299" y="807" type="line"/>
			<point x="299" y="643" type="line"/>
			<point x="154" y="643" type="line"/>
			<point x="154" y="807" type="line"/>
			<point x="50" y="807" type="line"/>
		</contour>
	</outline>
</glyph>
<glyph name="K.sups" format="2">
	<unicode hex="1D37"/>
	<advance width="414"/>
	<outline>
		<contour>
			<point x="50" y="375" type="line"/>
			<point x="154" y="375" type="line"/>
			<point x="154" y="492" type="line"/>
			<point x="203" y="556" type="line"/>
			<point x="307" y="375" type="line"/>
			<point x="420" y="375" type="line"/>
			<point x="264" y="636" type="line"/>
			<point x="396" y="807" type="line"/>
			<point x="281" y="807" type="line"/>
			<point x="157" y="636" type="line"/>
			<point x="154" y="636" type="line"/>
			<point x="154" y="807" type="line"/>
			<point x="50" y="807" type="line"/>
		</contour>
	</outline>
</glyph>
<glyph name="R.sups" format="2">
	<unicode hex="1D3F"/>
	<advance width="416"/>
	<outline>
		<contour>
			<point x="50" y="375" type="line"/>
			<point x="154" y="375" type="line"/>
			<point x="154" y="528" type="line"/>
			<point x="211" y="528" type="line" smooth="yes"/>
			<point x="304" y="528"/>
			<point x="381" y="575"/>
			<point x="381" y="673" type="curve" smooth="yes"/>
			<point x="381" y="775"/>
			<point x="304" y="807"/>
			<point x="211" y="807" type="curve" smooth="yes"/>
			<point x="50" y="807" type="line"/>
		</contour>
		<contour>
			<point x="154" y="609" type="line"/>
			<point x="154" y="726" type="line"/>
			<point x="203" y="726" type="line" smooth="yes"/>
			<point x="253" y="726"/>
			<point x="280" y="710"/>
			<point x="280" y="670" type="curve" smooth="yes"/>
			<point x="280" y="631"/>
			<point x="253" y="609"/>
			<point x="203" y="609" type="curve" smooth="yes"/>
		</contour>
		<contour>
			<point x="287" y="375" type="line"/>
			<point x="403" y="375" type="line"/>
			<point x="263" y="622" type="line"/>
			<point x="192" y="555" type="line"/>
		</contour>
	</outline>
</glyph>
<glyph name="e.sups" format="2">
	<unicode hex="1D49"/>
	<advance width="346"/>
	<outline>
		<contour>
			<point x="193" y="367" type="curve" smooth="yes"/>
			<point x="238" y="367"/>
			<point x="276" y="382"/>
			<point x="313" y="406" type="curve"/>
			<point x="279" y="466" type="line"/>
			<point x="254" y="452"/>
			<point x="231" y="446"/>
			<point x="203" y="446" type="curve" smooth="yes"/>
			<point x="157" y="446"/>
			<point x="121" y="474"/>
			<point x="121" y="540" type="curve" smooth="yes"/>
			<point x="121" y="609"/>
			<point x="146" y="633"/>
			<point x="182" y="633" type="curve" smooth="yes"/>
			<point x="219" y="633"/>
			<point x="238" y="611"/>
			<point x="238" y="554" type="curve"/>
			<point x="262" y="573" type="line"/>
			<point x="97" y="573" type="line"/>
			<point x="97" y="511" type="line"/>
			<point x="320" y="511" type="line"/>
			<point x="322" y="520"/>
			<point x="325" y="535"/>
			<point x="325" y="553" type="curve" smooth="yes"/>
			<point x="325" y="642"/>
			<point x="277" y="712"/>
			<point x="182" y="712" type="curve" smooth="yes"/>
			<point x="98" y="712"/>
			<point x="24" y="644"/>
			<point x="24" y="540" type="curve" smooth="yes"/>
			<point x="24" y="432"/>
			<point x="98" y="367"/>
		</contour>
	</outline>
</glyph>
<glyph name="eopen.sups" format="2">
	<unicode hex="1D4B"/>
	<advance width="326"/>
	<outline>
		<contour>
			<point x="179" y="367" type="curve" smooth="yes"/>
			<point x="232" y="367"/>
			<point x="272" y="379"/>
			<point x="307" y="406" type="curve"/>
			<point x="273" y="467" type="line"/>
			<point x="250" y="452"/>
			<point x="223" y="446"/>
			<point x="202" y="446" type="curve" smooth="yes"/>
			<point x="165" y="446"/>
			<point x="143" y="459"/>
			<point x="143" y="480" type="curve" smooth="yes"/>
			<point x="143" y="500"/>
			<point x="158" y="509"/>
			<point x="192" y="509" type="curve" smooth="yes"/>
			<point x="244" y="509" type="line"/>
			<point x="244" y="579" type="line"/>
			<point x="201" y="579" type="line" smooth="yes"/>
			<point x="173" y="579"/>
			<point x="159" y="588"/>
			<point x="159" y="606" type="curve" smooth="yes"/>
			<point x="159" y="623"/>
			<point x="174" y="633"/>
			<point x="200" y="633" type="curve" smooth="yes"/>
			<point x="225" y="633"/>
			<point x="244" y="631"/>
			<point x="267" y="619" type="curve"/>
			<point x="303" y="680" type="line"/>
			<point x="273" y="701"/>
			<point x="231" y="712"/>
			<point x="190" y="712" type="curve" smooth="yes"/>
			<point x="116" y="712"/>
			<point x="53" y="683"/>
			<point x="53" y="620" type="curve" smooth="yes"/>
			<point x="53" y="591"/>
			<point x="70" y="561"/>
			<point x="110" y="551" type="curve"/>
			<point x="110" y="547" type="line"/>
			<point x="67" y="537"/>
			<point x="37" y="511"/>
			<point x="37" y="464" type="curve" smooth="yes"/>
			<point x="37" y="400"/>
			<point x="107" y="367"/>
		</contour>
	</outline>
</glyph>
<glyph name="k.sups" format="2">
	<unicode hex="1D4F"/>
	<advance width="371"/>
	<outline>
		<contour>
			<point x="42" y="375" type="line"/>
			<point x="146" y="375" type="line"/>
			<point x="146" y="456" type="line"/>
			<point x="181" y="499" type="line"/>
			<point x="255" y="375" type="line"/>
			<point x="367" y="375" type="line"/>
			<point x="239" y="565" type="line"/>
			<point x="359" y="705" type="line"/>
			<point x="247" y="705" type="line"/>
			<point x="150" y="578" type="line"/>
			<point x="146" y="578" type="line"/>
			<point x="146" y="838" type="line"/>
			<point x="42" y="838" type="line"/>
		</contour>
	</outline>
</glyph>
<glyph name="mmiddletilde" format="2">
	<unicode hex="1D6F"/>
	<advance width="1013"/>
	<outline>
		<contour>
			<point x="903" y="130" type="curve" smooth="yes"/>
			<point x="978" y="130"/>
			<point x="1021" y="174"/>
			<point x="1025" y="265" type="curve"/>
			<point x="933" y="283" type="line"/>
			<point x="929" y="248"/>
			<point x="914" y="231"/>
			<point x="887" y="231" type="curve" smooth="yes"/>
			<point x="821" y="231"/>
			<point x="217" y="295"/>
			<point x="110" y="295" type="curve" smooth="yes"/>
			<point x="35" y="295"/>
			<point x="-8" y="251"/>
			<point x="-12" y="160" type="curve"/>
			<point x="80" y="142" type="line"/>
			<point x="83" y="177"/>
			<point x="99" y="193"/>
			<point x="126" y="193" type="curve" smooth="yes"/>
			<point x="191" y="193"/>
			<point x="797" y="130"/>
		</contour>
		<component base="m" xOffset="75"/>
	</outline>
	<anchor name="aboveLC" x="518" y="518"/>
	<anchor name="belowLC" x="510" y="-22"/>
</glyph>
<glyph name="nmiddletilde" format="2">
	<unicode hex="1D70"/>
	<advance width="728"/>
	<outline>
		<contour>
			<point x="618" y="130" type="curve" smooth="yes"/>
			<point x="693" y="130"/>
			<point x="736" y="174"/>
			<point x="740" y="265" type="curve"/>
			<point x="648" y="283" type="line"/>
			<point x="644" y="248"/>
			<point x="629" y="231"/>
			<point x="602" y="231" type="curve" smooth="yes"/>
			<point x="540" y="231"/>
			<point x="213" y="295"/>
			<point x="110" y="295" type="curve" smooth="yes"/>
			<point x="35" y="295"/>
			<point x="-8" y="251"/>
			<point x="-12" y="160" type="curve"/>
			<point x="80" y="142" type="line"/>
			<point x="83" y="177"/>
			<point x="99" y="193"/>
			<point x="126" y="193" type="curve" smooth="yes"/>
			<point x="188" y="193"/>
			<point x="516" y="130"/>
		</contour>
		<component base="n" xOffset="75"/>
	</outline>
	<anchor name="aboveLC" x="388" y="518"/>
	<anchor name="belowLC" x="361" y="-22"/>
</glyph>
<glyph name="ginsular" format="2">
	<unicode hex="1D79"/>
	<advance width="514"/>
	<outline>
		<contour>
			<point x="249" y="-203" type="curve" smooth="yes"/>
			<point x="403" y="-203"/>
			<point x="496" y="-129"/>
			<point x="496" y="-25" type="curve" smooth="yes"/>
			<point x="496" y="65"/>
			<point x="451" y="101"/>
			<point x="324" y="144" type="curve" smooth="yes"/>
			<point x="232" y="176"/>
			<point x="189" y="210"/>
			<point x="189" y="267" type="curve" smooth="yes"/>
			<point x="189" y="331"/>
			<point x="235" y="381"/>
			<point x="336" y="381" type="curve" smooth="yes"/>
			<point x="473" y="381" type="line"/>
			<point x="473" y="496" type="line"/>
			<point x="98" y="496" type="line"/>
			<point x="24" y="490" type="line"/>
			<point x="24" y="381" type="line"/>
			<point x="132" y="381" type="line"/>
			<point x="132" y="377" type="line"/>
			<point x="81" y="346"/>
			<point x="49" y="301"/>
			<point x="49" y="239" type="curve" smooth="yes"/>
			<point x="49" y="168"/>
			<point x="86" y="121"/>
			<point x="141" y="86" type="curve"/>
			<point x="141" y="82" type="line"/>
			<point x="71" y="51"/>
			<point x="34" y="3"/>
			<point x="34" y="-58" type="curve" smooth="yes"/>
			<point x="34" y="-160"/>
			<point x="132" y="-203"/>
		</contour>
		<contour>
			<point x="264" y="-102" type="curve" smooth="yes"/>
			<point x="197" y="-102"/>
			<point x="155" y="-76"/>
			<point x="155" y="-33" type="curve" smooth="yes"/>
			<point x="155" y="0"/>
			<point x="171" y="23"/>
			<point x="210" y="46" type="curve"/>
			<point x="284" y="11"/>
			<point x="359" y="13"/>
			<point x="359" y="-43" type="curve" smooth="yes"/>
			<point x="359" y="-75"/>
			<point x="326" y="-102"/>
		</contour>
	</outline>
	<anchor name="aboveLC" x="258" y="518"/>
	<anchor name="belowLC" x="248" y="-189"/>
</glyph>
<glyph name="c.sups" format="2">
	<unicode hex="1D9C"/>
	<advance width="313"/>
	<outline>
		<contour>
			<point x="187" y="367" type="curve" smooth="yes"/>
			<point x="240" y="367"/>
			<point x="278" y="387"/>
			<point x="300" y="405" type="curve"/>
			<point x="258" y="472" type="line"/>
			<point x="244" y="460"/>
			<point x="228" y="449"/>
			<point x="200" y="449" type="curve" smooth="yes"/>
			<point x="158" y="449"/>
			<point x="130" y="486"/>
			<point x="130" y="540" type="curve" smooth="yes"/>
			<point x="130" y="594"/>
			<point x="160" y="631"/>
			<point x="201" y="631" type="curve" smooth="yes"/>
			<point x="220" y="631"/>
			<point x="234" y="624"/>
			<point x="248" y="612" type="curve"/>
			<point x="296" y="678" type="line"/>
			<point x="279" y="695"/>
			<point x="242" y="713"/>
			<point x="192" y="713" type="curve" smooth="yes"/>
			<point x="102" y="713"/>
			<point x="24" y="648"/>
			<point x="24" y="540" type="curve" smooth="yes"/>
			<point x="24" y="431"/>
			<point x="93" y="367"/>
		</contour>
	</outline>
</glyph>
<glyph name="f.sups" format="2">
	<unicode hex="1DA0"/>
	<advance width="232"/>
	<outline>
		<contour>
			<point x="60" y="375" type="line"/>
			<point x="164" y="375" type="line"/>
			<point x="164" y="720" type="line" smooth="yes"/>
			<point x="164" y="756"/>
			<point x="178" y="772"/>
			<point x="200" y="772" type="curve" smooth="yes"/>
			<point x="213" y="772"/>
			<point x="225" y="770"/>
			<point x="234" y="767" type="curve"/>
			<point x="253" y="841" type="line"/>
			<point x="237" y="847"/>
			<point x="213" y="852"/>
			<point x="186" y="852" type="curve" smooth="yes"/>
			<point x="93" y="852"/>
			<point x="60" y="788"/>
			<point x="60" y="716" type="curve" smooth="yes"/>
		</contour>
		<contour>
			<point x="15" y="625" type="line"/>
			<point x="222" y="625" type="line"/>
			<point x="222" y="705" type="line"/>
			<point x="66" y="705" type="line"/>
			<point x="15" y="701" type="line"/>
		</contour>
	</outline>
</glyph>
<glyph name="mhook.sups" format="2">
	<unicode hex="1DAC"/>
	<advance width="577"/>
	<outline>
		<contour>
			<point x="418" y="240" type="curve" smooth="yes"/>
			<point x="510" y="240"/>
			<point x="539" y="302"/>
			<point x="539" y="376" type="curve" smooth="yes"/>
			<point x="539" y="578" type="line" smooth="yes"/>
			<point x="539" y="659"/>
			<point x="506" y="713"/>
			<point x="433" y="713" type="curve" smooth="yes"/>
			<point x="388" y="713"/>
			<point x="356" y="686"/>
			<point x="329" y="657" type="curve"/>
			<point x="311" y="693"/>
			<point x="281" y="713"/>
			<point x="236" y="713" type="curve" smooth="yes"/>
			<point x="191" y="713"/>
			<point x="162" y="689"/>
			<point x="136" y="662" type="curve"/>
			<point x="134" y="662" type="line"/>
			<point x="126" y="705" type="line"/>
			<point x="42" y="705" type="line"/>
			<point x="42" y="375" type="line"/>
			<point x="146" y="375" type="line"/>
			<point x="146" y="595" type="line"/>
			<point x="166" y="616"/>
			<point x="182" y="626"/>
			<point x="198" y="626" type="curve" smooth="yes"/>
			<point x="229" y="626"/>
			<point x="239" y="605"/>
			<point x="239" y="565" type="curve" smooth="yes"/>
			<point x="239" y="375" type="line"/>
			<point x="342" y="375" type="line"/>
			<point x="342" y="595" type="line"/>
			<point x="363" y="616"/>
			<point x="379" y="626"/>
			<point x="394" y="626" type="curve" smooth="yes"/>
			<point x="426" y="626"/>
			<point x="435" y="605"/>
			<point x="435" y="565" type="curve" smooth="yes"/>
			<point x="435" y="372" type="line" smooth="yes"/>
			<point x="435" y="335"/>
			<point x="428" y="321"/>
			<point x="403" y="321" type="curve" smooth="yes"/>
			<point x="391" y="321"/>
			<point x="383" y="323"/>
			<point x="376" y="325" type="curve"/>
			<point x="358" y="248" type="line"/>
			<point x="373" y="244"/>
			<point x="389" y="240"/>
		</contour>
	</outline>
</glyph>
<glyph name="nhookleft.sups" format="2">
	<unicode hex="1DAE"/>
	<advance width="386"/>
	<outline>
		<contour>
			<point x="53" y="240" type="curve" smooth="yes"/>
			<point x="124" y="240"/>
			<point x="148" y="286"/>
			<point x="148" y="355" type="curve" smooth="yes"/>
			<point x="148" y="594" type="line"/>
			<point x="168" y="614"/>
			<point x="184" y="626"/>
			<point x="205" y="626" type="curve" smooth="yes"/>
			<point x="239" y="626"/>
			<point x="244" y="605"/>
			<point x="244" y="565" type="curve" smooth="yes"/>
			<point x="244" y="375" type="line"/>
			<point x="348" y="375" type="line"/>
			<point x="348" y="578" type="line" smooth="yes"/>
			<point x="348" y="659"/>
			<point x="319" y="713"/>
			<point x="244" y="713" type="curve" smooth="yes"/>
			<point x="200" y="713"/>
			<point x="165" y="689"/>
			<point x="138" y="662" type="curve"/>
			<point x="136" y="662" type="line"/>
			<point x="127" y="705" type="line"/>
			<point x="44" y="705" type="line"/>
			<point x="44" y="350" type="line" smooth="yes"/>
			<point x="44" y="330"/>
			<point x="36" y="322"/>
			<point x="26" y="322" type="curve" smooth="yes"/>
			<point x="22" y="322"/>
			<point x="20" y="322"/>
			<point x="14" y="324" type="curve"/>
			<point x="1" y="249" type="line"/>
			<point x="14" y="244"/>
			<point x="28" y="240"/>
		</contour>
	</outline>
</glyph>
<glyph name="nsmall.sups" format="2">
	<unicode hex="1DB0"/>
	<advance width="380"/>
	<outline>
		<contour>
			<point x="42" y="375" type="line"/>
			<point x="137" y="375" type="line"/>
			<point x="137" y="464" type="line" smooth="yes"/>
			<point x="137" y="496"/>
			<point x="134" y="538"/>
			<point x="127" y="581" type="curve"/>
			<point x="131" y="581" type="line"/>
			<point x="141" y="555"/>
			<point x="155" y="528"/>
			<point x="165" y="509" type="curve" smooth="yes"/>
			<point x="240" y="375" type="line"/>
			<point x="338" y="375" type="line"/>
			<point x="338" y="704" type="line"/>
			<point x="242" y="704" type="line"/>
			<point x="242" y="616" type="line" smooth="yes"/>
			<point x="242" y="583"/>
			<point x="245" y="541"/>
			<point x="252" y="499" type="curve"/>
			<point x="248" y="499" type="line"/>
			<point x="238" y="525"/>
			<point x="226" y="552"/>
			<point x="215" y="571" type="curve" smooth="yes"/>
			<point x="140" y="704" type="line"/>
			<point x="42" y="704" type="line"/>
		</contour>
	</outline>
</glyph>
<glyph name="iotaadscript" format="2">
	<unicode hex="1FBE"/>
	<advance width="301"/>
	<outline>
		<contour>
			<point x="206" y="-11" type="curve" smooth="yes"/>
			<point x="248" y="-11"/>
			<point x="272" y="-4"/>
			<point x="293" y="5" type="curve"/>
			<point x="276" y="113" type="line"/>
			<point x="265" y="109"/>
			<point x="252" y="107"/>
			<point x="244" y="107" type="curve" smooth="yes"/>
			<point x="217" y="107"/>
			<point x="203" y="118"/>
			<point x="203" y="150" type="curve" smooth="yes"/>
			<point x="203" y="215"/>
			<point x="208" y="324"/>
			<point x="213" y="416" type="curve"/>
			<point x="65" y="416" type="line"/>
			<point x="65" y="156" type="line" smooth="yes"/>
			<point x="65" y="55"/>
			<point x="96" y="-11"/>
		</contour>
	</outline>
</glyph>
<glyph name="hyphen" format="2">
	<unicode hex="2011"/>
	<unicode hex="002D"/>
	<unicode hex="00AD"/>
	<unicode hex="2010"/>
	<advance width="332"/>
	<outline>
		<contour>
			<point x="43" y="201" type="line"/>
			<point x="289" y="201" type="line"/>
			<point x="289" y="305" type="line"/>
			<point x="43" y="305" type="line"/>
		</contour>
	</outline>
</glyph>
<glyph name="endash" format="2">
	<unicode hex="2013"/>
	<advance width="480"/>
	<outline>
		<contour>
			<point x="43" y="206" type="line"/>
			<point x="437" y="206" type="line"/>
			<point x="437" y="300" type="line"/>
			<point x="43" y="300" type="line"/>
		</contour>
	</outline>
</glyph>
<glyph name="dagger" format="2">
	<unicode hex="2020"/>
	<advance width="510"/>
	<outline>
		<contour>
			<point x="196" y="-80" type="line"/>
			<point x="314" y="-80" type="line"/>
			<point x="305" y="436" type="line"/>
			<point x="466" y="428" type="line"/>
			<point x="466" y="545" type="line"/>
			<point x="305" y="537" type="line"/>
			<point x="314" y="712" type="line"/>
			<point x="196" y="712" type="line"/>
			<point x="205" y="537" type="line"/>
			<point x="44" y="545" type="line"/>
			<point x="44" y="428" type="line"/>
			<point x="205" y="436" type="line"/>
		</contour>
	</outline>
</glyph>
<glyph name="bullet" format="2">
	<unicode hex="2022"/>
	<advance width="345"/>
	<outline>
		<contour>
			<point x="172" y="123" type="curve" smooth="yes"/>
			<point x="247" y="123"/>
			<point x="305" y="183"/>
			<point x="305" y="262" type="curve" smooth="yes"/>
			<point x="305" y="342"/>
			<point x="247" y="401"/>
			<point x="172" y="401" type="curve" smooth="yes"/>
			<point x="98" y="401"/>
			<point x="40" y="342"/>
			<point x="40" y="262" type="curve" smooth="yes"/>
			<point x="40" y="183"/>
			<point x="98" y="123"/>
		</contour>
	</outline>
</glyph>
<glyph name="prime" format="2">
	<unicode hex="2032"/>
	<advance width="300"/>
	<outline>
		<contour>
			<point x="168" y="388" type="line"/>
			<point x="227" y="556" type="line"/>
			<point x="256" y="679" type="line"/>
			<point x="111" y="691" type="line"/>
			<point x="72" y="395" type="line"/>
		</contour>
	</outline>
</glyph>
<glyph name="guilsinglleft" format="2">
	<unicode hex="2039"/>
	<advance width="292"/>
	<outline>
		<contour>
			<point x="183" y="56" type="line"/>
			<point x="238" y="100" type="line"/>
			<point x="127" y="252" type="line"/>
			<point x="238" y="404" type="line"/>
			<point x="183" y="448" type="line"/>
			<point x="49" y="304" type="line"/>
			<point x="49" y="200" type="line"/>
		</contour>
	</outline>
</glyph>
<glyph name="ettironian" format="2">
	<unicode hex="204A"/>
	<advance width="503"/>
	<outline>
		<contour>
			<point x="145" y="-176" type="line"/>
			<point x="293" y="-176" type="line"/>
			<point x="452" y="418" type="line"/>
			<point x="452" y="496" type="line"/>
			<point x="46" y="496" type="line"/>
			<point x="46" y="381" type="line"/>
			<point x="323" y="381" type="line"/>
		</contour>
	</outline>
</glyph>
<glyph name="Euro" format="2">
	<unicode hex="20AC"/>
	<advance width="528"/>
	<outline>
		<contour>
			<point x="340" y="-12" type="curve" smooth="yes"/>
			<point x="418" y="-12"/>
			<point x="481" y="32"/>
			<point x="513" y="98" type="curve"/>
			<point x="436" y="153" type="line"/>
			<point x="414" y="119"/>
			<point x="385" y="102"/>
			<point x="347" y="102" type="curve" smooth="yes"/>
			<point x="267" y="102"/>
			<point x="222" y="181"/>
			<point x="222" y="319" type="curve" smooth="yes"/>
			<point x="222" y="453"/>
			<point x="265" y="533"/>
			<point x="343" y="533" type="curve" smooth="yes"/>
			<point x="379" y="533"/>
			<point x="405" y="520"/>
			<point x="430" y="491" type="curve"/>
			<point x="506" y="559" type="line"/>
			<point x="472" y="610"/>
			<point x="413" y="647"/>
			<point x="335" y="647" type="curve" smooth="yes"/>
			<point x="191" y="647"/>
			<point x="75" y="524"/>
			<point x="75" y="314" type="curve" smooth="yes"/>
			<point x="75" y="101"/>
			<point x="187" y="-12"/>
		</contour>
		<contour>
			<point x="21" y="216" type="line"/>
			<point x="405" y="216" type="line"/>
			<point x="405" y="292" type="line"/>
			<point x="95" y="292" type="line"/>
			<point x="21" y="286" type="line"/>
		</contour>
		<contour>
			<point x="21" y="344" type="line"/>
			<point x="445" y="344" type="line"/>
			<point x="445" y="420" type="line"/>
			<point x="95" y="420" type="line"/>
			<point x="21" y="414" type="line"/>
		</contour>
	</outline>
</glyph>
<glyph name="tugrik" format="2">
	<unicode hex="20AE"/>
	<advance width="528"/>
	<outline>
		<contour>
			<point x="190" y="0" type="line"/>
			<point x="338" y="0" type="line"/>
			<point x="338" y="528" type="line"/>
			<point x="495" y="528" type="line"/>
			<point x="495" y="635" type="line"/>
			<point x="33" y="635" type="line"/>
			<point x="33" y="528" type="line"/>
			<point x="190" y="528" type="line"/>
		</contour>
		<contour>
			<point x="97" y="78" type="line"/>
			<point x="194" y="131" type="line"/>
			<point x="334" y="197" type="line"/>
			<point x="465" y="267" type="line"/>
			<point x="432" y="332" type="line"/>
			<point x="334" y="278" type="line"/>
			<point x="194" y="212" type="line"/>
			<point x="65" y="143" type="line"/>
		</contour>
		<contour>
			<point x="97" y="216" type="line"/>
			<point x="194" y="268" type="line"/>
			<point x="334" y="334" type="line"/>
			<point x="465" y="405" type="line"/>
			<point x="432" y="470" type="line"/>
			<point x="334" y="415" type="line"/>
			<point x="194" y="349" type="line"/>
			<point x="65" y="281" type="line"/>
		</contour>
	</outline>
</glyph>
<glyph name="cedi" format="2">
	<unicode hex="20B5"/>
	<advance width="528"/>
	<outline>
		<contour>
			<point x="326" y="-12" type="curve" smooth="yes"/>
			<point x="401" y="-12"/>
			<point x="465" y="20"/>
			<point x="515" y="80" type="curve"/>
			<point x="434" y="155" type="line"/>
			<point x="407" y="121"/>
			<point x="376" y="102"/>
			<point x="335" y="102" type="curve" smooth="yes"/>
			<point x="250" y="102"/>
			<point x="202" y="181"/>
			<point x="202" y="319" type="curve" smooth="yes"/>
			<point x="202" y="453"/>
			<point x="249" y="533"/>
			<point x="340" y="533" type="curve" smooth="yes"/>
			<point x="377" y="533"/>
			<point x="403" y="518"/>
			<point x="426" y="491" type="curve"/>
			<point x="507" y="569" type="line"/>
			<point x="465" y="620"/>
			<point x="405" y="647"/>
			<point x="344" y="647" type="curve" smooth="yes"/>
			<point x="174" y="647"/>
			<point x="54" y="524"/>
			<point x="54" y="314" type="curve" smooth="yes"/>
			<point x="54" y="101"/>
			<point x="170" y="-12"/>
		</contour>
		<contour>
			<point x="287" y="-110" type="line"/>
			<point x="368" y="-110" type="line"/>
			<point x="368" y="736" type="line"/>
			<point x="287" y="736" type="line"/>
		</contour>
	</outline>
</glyph>
<glyph name="tenge" format="2">
	<unicode hex="20B8"/>
	<advance width="528"/>
	<outline>
		<contour>
			<point x="190" y="0" type="line"/>
			<point x="338" y="0" type="line"/>
			<point x="338" y="430" type="line"/>
			<point x="495" y="430" type="line"/>
			<point x="495" y="507" type="line"/>
			<point x="107" y="507" type="line"/>
			<point x="33" y="501" type="line"/>
			<point x="33" y="430" type="line"/>
			<point x="190" y="430" type="line"/>
		</contour>
		<contour>
			<point x="33" y="558" type="line"/>
			<point x="495" y="558" type="line"/>
			<point x="495" y="635" type="line"/>
			<point x="33" y="635" type="line"/>
		</contour>
	</outline>
</glyph>
<glyph name="rupeeindian" format="2">
	<unicode hex="20B9"/>
	<advance width="528"/>
	<outline>
		<contour>
			<point x="69" y="200" type="line"/>
			<point x="146" y="200" type="line" smooth="yes"/>
			<point x="284" y="200"/>
			<point x="398" y="267"/>
			<point x="398" y="425" type="curve" smooth="yes"/>
			<point x="398" y="483"/>
			<point x="375" y="529"/>
			<point x="336" y="558" type="curve"/>
			<point x="465" y="558" type="line"/>
			<point x="465" y="635" type="line"/>
			<point x="69" y="635" type="line"/>
			<point x="69" y="517" type="line"/>
			<point x="134" y="517" type="line" smooth="yes"/>
			<point x="211" y="517"/>
			<point x="253" y="494"/>
			<point x="253" y="425" type="curve" smooth="yes"/>
			<point x="253" y="354"/>
			<point x="211" y="318"/>
			<point x="134" y="318" type="curve" smooth="yes"/>
			<point x="69" y="318" type="line"/>
		</contour>
		<contour>
			<point x="69" y="387" type="line"/>
			<point x="465" y="387" type="line"/>
			<point x="465" y="464" type="line"/>
			<point x="143" y="464" type="line"/>
			<point x="69" y="458" type="line"/>
		</contour>
		<contour>
			<point x="283" y="0" type="line"/>
			<point x="448" y="0" type="line"/>
			<point x="219" y="302" type="line"/>
			<point x="118" y="231" type="line"/>
		</contour>
	</outline>
</glyph>
<glyph name="liraturkish" format="2">
	<unicode hex="20BA"/>
	<advance width="528"/>
	<outline>
		<contour>
			<point x="90" y="-12" type="line"/>
			<point x="349" y="-19"/>
			<point x="499" y="79"/>
			<point x="499" y="261" type="curve" smooth="yes"/>
			<point x="499" y="274"/>
			<point x="497" y="292"/>
			<point x="491" y="312" type="curve"/>
			<point x="370" y="284" type="line"/>
			<point x="373" y="269"/>
			<point x="373" y="261"/>
			<point x="373" y="254" type="curve" smooth="yes"/>
			<point x="373" y="184"/>
			<point x="311" y="134"/>
			<point x="237" y="126" type="curve"/>
			<point x="237" y="635" type="line"/>
			<point x="90" y="635" type="line"/>
		</contour>
		<contour>
			<point x="33" y="185" type="line"/>
			<point x="106" y="224" type="line"/>
			<point x="230" y="282" type="line"/>
			<point x="404" y="374" type="line"/>
			<point x="372" y="438" type="line"/>
			<point x="230" y="363" type="line"/>
			<point x="106" y="306" type="line"/>
			<point x="0" y="250" type="line"/>
		</contour>
		<contour>
			<point x="33" y="322" type="line"/>
			<point x="106" y="362" type="line"/>
			<point x="230" y="419" type="line"/>
			<point x="404" y="511" type="line"/>
			<point x="372" y="576" type="line"/>
			<point x="230" y="500" type="line"/>
			<point x="106" y="443" type="line"/>
			<point x="0" y="387" type="line"/>
		</contour>
	</outline>
</glyph>
<glyph name="ruble" format="2">
	<unicode hex="20BD"/>
	<advance width="528"/>
	<outline>
		<contour>
			<point x="112" y="0" type="line"/>
			<point x="250" y="0" type="line"/>
			<point x="250" y="266" type="line"/>
			<point x="279" y="266" type="line" smooth="yes"/>
			<point x="397" y="266"/>
			<point x="502" y="322"/>
			<point x="502" y="459" type="curve" smooth="yes"/>
			<point x="502" y="582"/>
			<point x="401" y="635"/>
			<point x="279" y="635" type="curve" smooth="yes"/>
			<point x="112" y="635" type="line"/>
		</contour>
		<contour>
			<point x="250" y="343" type="line"/>
			<point x="250" y="543" type="line"/>
			<point x="273" y="543" type="line" smooth="yes"/>
			<point x="331" y="543"/>
			<point x="366" y="516"/>
			<point x="366" y="450" type="curve" smooth="yes"/>
			<point x="366" y="385"/>
			<point x="331" y="343"/>
			<point x="273" y="343" type="curve" smooth="yes"/>
		</contour>
		<contour>
			<point x="42" y="138" type="line"/>
			<point x="437" y="138" type="line"/>
			<point x="437" y="215" type="line"/>
			<point x="118" y="215" type="line"/>
			<point x="42" y="209" type="line"/>
		</contour>
		<contour>
			<point x="42" y="266" type="line"/>
			<point x="167" y="266" type="line"/>
			<point x="167" y="343" type="line"/>
			<point x="118" y="343" type="line"/>
			<point x="42" y="337" type="line"/>
		</contour>
	</outline>
</glyph>
<glyph name="soundcopyright" format="2">
	<unicode hex="2117"/>
	<advance width="750"/>
	<outline>
		<contour>
			<point x="375" y="-9" type="curve" smooth="yes"/>
			<point x="552" y="-9"/>
			<point x="704" y="118"/>
			<point x="704" y="325" type="curve" smooth="yes"/>
			<point x="704" y="531"/>
			<point x="552" y="655"/>
			<point x="375" y="655" type="curve" smooth="yes"/>
			<point x="198" y="655"/>
			<point x="45" y="532"/>
			<point x="45" y="325" type="curve" smooth="yes"/>
			<point x="45" y="118"/>
			<point x="198" y="-9"/>
		</contour>
		<contour>
			<point x="375" y="52" type="curve" smooth="yes"/>
			<point x="228" y="52"/>
			<point x="113" y="161"/>
			<point x="113" y="325" type="curve" smooth="yes"/>
			<point x="113" y="489"/>
			<point x="228" y="595"/>
			<point x="375" y="595" type="curve" smooth="yes"/>
			<point x="522" y="595"/>
			<point x="637" y="489"/>
			<point x="637" y="325" type="curve" smooth="yes"/>
			<point x="637" y="161"/>
			<point x="522" y="52"/>
		</contour>
		<contour>
			<point x="239" y="140" type="line"/>
			<point x="345" y="140" type="line"/>
			<point x="345" y="231" type="line"/>
			<point x="384" y="231" type="line" smooth="yes"/>
			<point x="477" y="231"/>
			<point x="556" y="276"/>
			<point x="556" y="374" type="curve" smooth="yes"/>
			<point x="556" y="471"/>
			<point x="480" y="505"/>
			<point x="384" y="505" type="curve" smooth="yes"/>
			<point x="239" y="505" type="line"/>
		</contour>
		<contour>
			<point x="345" y="307" type="line"/>
			<point x="345" y="426" type="line"/>
			<point x="376" y="426" type="line" smooth="yes"/>
			<point x="425" y="426"/>
			<point x="452" y="410"/>
			<point x="452" y="371" type="curve" smooth="yes"/>
			<point x="452" y="327"/>
			<point x="427" y="307"/>
			<point x="376" y="307" type="curve" smooth="yes"/>
		</contour>
	</outline>
</glyph>
<glyph name="prescription" format="2">
	<unicode hex="211E"/>
	<advance width="742"/>
	<outline>
		<contour>
			<point x="77" y="0" type="line"/>
			<point x="224" y="0" type="line"/>
			<point x="224" y="235" type="line"/>
			<point x="312" y="235" type="line" smooth="yes"/>
			<point x="450" y="235"/>
			<point x="563" y="299"/>
			<point x="563" y="449" type="curve" smooth="yes"/>
			<point x="563" y="604"/>
			<point x="450" y="652"/>
			<point x="312" y="652" type="curve" smooth="yes"/>
			<point x="77" y="652" type="line"/>
		</contour>
		<contour>
			<point x="224" y="352" type="line"/>
			<point x="224" y="535" type="line"/>
			<point x="300" y="535" type="line" smooth="yes"/>
			<point x="377" y="535"/>
			<point x="419" y="513"/>
			<point x="419" y="449" type="curve" smooth="yes"/>
			<point x="419" y="385"/>
			<point x="377" y="352"/>
			<point x="300" y="352" type="curve" smooth="yes"/>
		</contour>
		<contour>
			<point x="275" y="-184" type="line"/>
			<point x="428" y="-184" type="line"/>
			<point x="458" y="-127" type="line" smooth="yes"/>
			<point x="471" y="-99"/>
			<point x="480" y="-71"/>
			<point x="492" y="-43" type="curve"/>
			<point x="496" y="-43" type="line"/>
			<point x="512" y="-71"/>
			<point x="529" y="-99"/>
			<point x="545" y="-127" type="curve" smooth="yes"/>
			<point x="579" y="-184" type="line"/>
			<point x="736" y="-184" type="line"/>
			<point x="599" y="33" type="line"/>
			<point x="734" y="263" type="line"/>
			<point x="581" y="263" type="line"/>
			<point x="556" y="207" type="line" smooth="yes"/>
			<point x="545" y="180"/>
			<point x="536" y="152"/>
			<point x="526" y="125" type="curve"/>
			<point x="522" y="125" type="line"/>
			<point x="508" y="153"/>
			<point x="496" y="179"/>
			<point x="479" y="207" type="curve" smooth="yes"/>
			<point x="426" y="299" type="line"/>
			<point x="269" y="299" type="line"/>
			<point x="418" y="49" type="line"/>
		</contour>
	</outline>
</glyph>
<glyph name="arrowboth" format="2">
	<unicode hex="2194"/>
	<advance width="617"/>
	<outline>
		<contour>
			<point x="620" y="254" type="line"/>
			<point x="441" y="478" type="line"/>
			<point x="363" y="418" type="line"/>
			<point x="454" y="310" type="line"/>
			<point x="162" y="310" type="line"/>
			<point x="254" y="418" type="line"/>
			<point x="176" y="478" type="line"/>
			<point x="-4" y="254" type="line"/>
			<point x="-4" y="250" type="line"/>
			<point x="176" y="26" type="line"/>
			<point x="254" y="86" type="line"/>
			<point x="162" y="194" type="line"/>
			<point x="454" y="194" type="line"/>
			<point x="363" y="86" type="line"/>
			<point x="441" y="26" type="line"/>
			<point x="620" y="250" type="line"/>
		</contour>
	</outline>
</glyph>
<glyph name="arrowupdn" format="2">
	<unicode hex="2195"/>
	<advance width="617"/>
	<outline>
		<contour>
			<point x="310" y="-56" type="line"/>
			<point x="534" y="123" type="line"/>
			<point x="475" y="201" type="line"/>
			<point x="367" y="110" type="line"/>
			<point x="367" y="394" type="line"/>
			<point x="475" y="303" type="line"/>
			<point x="534" y="380" type="line"/>
			<point x="310" y="560" type="line"/>
			<point x="306" y="560" type="line"/>
			<point x="83" y="380" type="line"/>
			<point x="142" y="303" type="line"/>
			<point x="250" y="394" type="line"/>
			<point x="250" y="110" type="line"/>
			<point x="142" y="201" type="line"/>
			<point x="83" y="123" type="line"/>
			<point x="306" y="-56" type="line"/>
		</contour>
	</outline>
</glyph>
<glyph name="arrowupright" format="2">
	<unicode hex="2197"/>
	<advance width="617"/>
	<outline>
		<contour>
			<point x="154" y="14" type="line"/>
			<point x="406" y="267" type="line"/>
			<point x="393" y="68" type="line"/>
			<point x="499" y="61" type="line"/>
			<point x="506" y="446" type="line"/>
			<point x="503" y="449" type="line"/>
			<point x="118" y="442" type="line"/>
			<point x="125" y="337" type="line"/>
			<point x="324" y="350" type="line"/>
			<point x="71" y="97" type="line"/>
		</contour>
	</outline>
</glyph>
<glyph name="arrowdblup" format="2">
	<unicode hex="21D1"/>
	<advance width="617"/>
	<outline>
		<contour>
			<point x="118" y="182" type="line"/>
			<point x="306" y="398" type="line"/>
			<point x="310" y="398" type="line"/>
			<point x="498" y="182" type="line"/>
			<point x="578" y="251" type="line"/>
			<point x="310" y="529" type="line"/>
			<point x="306" y="529" type="line"/>
			<point x="39" y="251" type="line"/>
		</contour>
		<contour>
			<point x="345" y="-26" type="line"/>
			<point x="431" y="-26" type="line"/>
			<point x="431" y="385" type="line"/>
			<point x="345" y="385" type="line"/>
		</contour>
		<contour>
			<point x="186" y="-26" type="line"/>
			<point x="272" y="-26" type="line"/>
			<point x="272" y="385" type="line"/>
			<point x="186" y="385" type="line"/>
		</contour>
	</outline>
</glyph>
<glyph name="arrowdbldown" format="2">
	<unicode hex="21D3"/>
	<advance width="617"/>
	<outline>
		<contour>
			<point x="306" y="-26" type="line"/>
			<point x="310" y="-26" type="line"/>
			<point x="578" y="252" type="line"/>
			<point x="498" y="322" type="line"/>
			<point x="310" y="106" type="line"/>
			<point x="306" y="106" type="line"/>
			<point x="118" y="322" type="line"/>
			<point x="39" y="252" type="line"/>
		</contour>
		<contour>
			<point x="186" y="118" type="line"/>
			<point x="272" y="118" type="line"/>
			<point x="272" y="529" type="line"/>
			<point x="186" y="529" type="line"/>
		</contour>
		<contour>
			<point x="345" y="118" type="line"/>
			<point x="431" y="118" type="line"/>
			<point x="431" y="529" type="line"/>
			<point x="345" y="529" type="line"/>
		</contour>
	</outline>
</glyph>
<glyph name="shift" format="2">
	<unicode hex="21E7"/>
	<advance width="800"/>
	<outline>
		<contour>
			<point x="209" y="-62" type="line"/>
			<point x="591" y="-62" type="line"/>
			<point x="591" y="276" type="line"/>
			<point x="749" y="276" type="line"/>
			<point x="783" y="355" type="line"/>
			<point x="402" y="708" type="line"/>
			<point x="398" y="708" type="line"/>
			<point x="17" y="355" type="line"/>
			<point x="51" y="276" type="line"/>
			<point x="209" y="276" type="line"/>
		</contour>
		<contour>
			<point x="305" y="24" type="line"/>
			<point x="305" y="363" type="line"/>
			<point x="178" y="363" type="line"/>
			<point x="176" y="367" type="line"/>
			<point x="398" y="576" type="line"/>
			<point x="402" y="576" type="line"/>
			<point x="624" y="367" type="line"/>
			<point x="622" y="363" type="line"/>
			<point x="495" y="363" type="line"/>
			<point x="495" y="24" type="line"/>
		</contour>
	</outline>
</glyph>
<glyph name="partialdiff" format="2">
	<unicode hex="2202"/>
	<advance width="577"/>
	<outline>
		<contour>
			<point x="244" y="-12" type="curve" smooth="yes"/>
			<point x="412" y="-12"/>
			<point x="529" y="142"/>
			<point x="529" y="377" type="curve" smooth="yes"/>
			<point x="529" y="555"/>
			<point x="452" y="664"/>
			<point x="297" y="664" type="curve" smooth="yes"/>
			<point x="227" y="664"/>
			<point x="168" y="636"/>
			<point x="115" y="590" type="curve"/>
			<point x="178" y="499" type="line"/>
			<point x="209" y="529"/>
			<point x="242" y="545"/>
			<point x="281" y="545" type="curve" smooth="yes"/>
			<point x="360" y="545"/>
			<point x="390" y="485"/>
			<point x="390" y="373" type="curve" smooth="yes"/>
			<point x="390" y="172"/>
			<point x="328" y="107"/>
			<point x="260" y="107" type="curve" smooth="yes"/>
			<point x="220" y="107"/>
			<point x="183" y="136"/>
			<point x="183" y="194" type="curve" smooth="yes"/>
			<point x="183" y="269"/>
			<point x="224" y="302"/>
			<point x="280" y="302" type="curve" smooth="yes"/>
			<point x="318" y="302"/>
			<point x="354" y="285"/>
			<point x="383" y="237" type="curve"/>
			<point x="400" y="340" type="line"/>
			<point x="366" y="387"/>
			<point x="315" y="414"/>
			<point x="263" y="414" type="curve" smooth="yes"/>
			<point x="137" y="414"/>
			<point x="48" y="322"/>
			<point x="48" y="185" type="curve" smooth="yes"/>
			<point x="48" y="64"/>
			<point x="137" y="-12"/>
		</contour>
	</outline>
</glyph>
<glyph name="radical" format="2">
	<unicode hex="221A"/>
	<advance width="588"/>
	<outline>
		<contour>
			<point x="277" y="-80" type="line"/>
			<point x="379" y="-80" type="line"/>
			<point x="595" y="820" type="line"/>
			<point x="497" y="820" type="line"/>
			<point x="340" y="146" type="line"/>
			<point x="334" y="119"/>
			<point x="329" y="91"/>
			<point x="325" y="64" type="curve"/>
			<point x="321" y="64" type="line"/>
			<point x="315" y="91"/>
			<point x="308" y="119"/>
			<point x="300" y="146" type="curve"/>
			<point x="201" y="440" type="line"/>
			<point x="27" y="369" type="line"/>
			<point x="53" y="300" type="line"/>
			<point x="127" y="331" type="line"/>
		</contour>
	</outline>
</glyph>
<glyph name="orthogonal" format="2">
	<unicode hex="221F"/>
	<advance width="528"/>
	<outline>
		<contour>
			<point x="34" y="94" type="line"/>
			<point x="494" y="94" type="line"/>
			<point x="494" y="198" type="line"/>
			<point x="142" y="198" type="line"/>
			<point x="142" y="566" type="line"/>
			<point x="34" y="566" type="line"/>
		</contour>
	</outline>
</glyph>
<glyph name="integral" format="2">
	<unicode hex="222B"/>
	<advance width="396"/>
	<outline>
		<contour>
			<point x="99" y="-144" type="curve" smooth="yes"/>
			<point x="256" y="-144"/>
			<point x="287" y="-38"/>
			<point x="287" y="103" type="curve" smooth="yes"/>
			<point x="287" y="268"/>
			<point x="250" y="409"/>
			<point x="250" y="562" type="curve" smooth="yes"/>
			<point x="250" y="656"/>
			<point x="261" y="695"/>
			<point x="313" y="695" type="curve" smooth="yes"/>
			<point x="327" y="695"/>
			<point x="339" y="694"/>
			<point x="348" y="691" type="curve"/>
			<point x="363" y="798" type="line"/>
			<point x="352" y="801"/>
			<point x="329" y="805"/>
			<point x="306" y="805" type="curve" smooth="yes"/>
			<point x="149" y="805"/>
			<point x="117" y="699"/>
			<point x="117" y="558" type="curve" smooth="yes"/>
			<point x="117" y="393"/>
			<point x="155" y="252"/>
			<point x="155" y="99" type="curve" smooth="yes"/>
			<point x="155" y="4"/>
			<point x="144" y="-34"/>
			<point x="92" y="-34" type="curve" smooth="yes"/>
			<point x="78" y="-34"/>
			<point x="66" y="-32"/>
			<point x="56" y="-30" type="curve"/>
			<point x="42" y="-136" type="line"/>
			<point x="53" y="-140"/>
			<point x="75" y="-144"/>
		</contour>
	</outline>
</glyph>
<glyph name="integralbt" format="2">
	<unicode hex="2321"/>
	<advance width="396"/>
	<outline>
		<contour>
			<point x="80" y="-313" type="curve" smooth="yes"/>
			<point x="237" y="-313"/>
			<point x="268" y="-208"/>
			<point x="268" y="-66" type="curve" smooth="yes"/>
			<point x="268" y="687" type="line"/>
			<point x="136" y="687" type="line"/>
			<point x="136" y="-70" type="line" smooth="yes"/>
			<point x="136" y="-165"/>
			<point x="124" y="-203"/>
			<point x="73" y="-203" type="curve" smooth="yes"/>
			<point x="59" y="-203"/>
			<point x="47" y="-201"/>
			<point x="37" y="-199" type="curve"/>
			<point x="23" y="-305" type="line"/>
			<point x="34" y="-308"/>
			<point x="56" y="-313"/>
		</contour>
	</outline>
</glyph>
<glyph name="option" format="2">
	<unicode hex="2325"/>
	<advance width="1000"/>
	<outline>
		<contour>
			<point x="621" y="-12" type="line"/>
			<point x="962" y="-12" type="line"/>
			<point x="962" y="99" type="line"/>
			<point x="699" y="99" type="line"/>
			<point x="379" y="662" type="line"/>
			<point x="38" y="662" type="line"/>
			<point x="38" y="551" type="line"/>
			<point x="301" y="551" type="line"/>
		</contour>
		<contour>
			<point x="636" y="551" type="line"/>
			<point x="962" y="551" type="line"/>
			<point x="962" y="662" type="line"/>
			<point x="636" y="662" type="line"/>
		</contour>
	</outline>
</glyph>
<glyph name="delete" format="2">
	<unicode hex="232B"/>
	<advance width="1000"/>
	<outline>
		<contour>
			<point x="284" y="-10" type="line"/>
			<point x="935" y="-10" type="line"/>
			<point x="935" y="660" type="line"/>
			<point x="284" y="660" type="line"/>
			<point x="20" y="329" type="line"/>
			<point x="20" y="325" type="line"/>
		</contour>
		<contour>
			<point x="361" y="99" type="line"/>
			<point x="179" y="327" type="line"/>
			<point x="361" y="551" type="line"/>
			<point x="806" y="551" type="line"/>
			<point x="806" y="99" type="line"/>
		</contour>
		<contour>
			<point x="453" y="135" type="line"/>
			<point x="569" y="254" type="line"/>
			<point x="686" y="135" type="line"/>
			<point x="760" y="208" type="line"/>
			<point x="642" y="327" type="line"/>
			<point x="760" y="446" type="line"/>
			<point x="686" y="519" type="line"/>
			<point x="569" y="399" type="line"/>
			<point x="453" y="519" type="line"/>
			<point x="379" y="446" type="line"/>
			<point x="497" y="327" type="line"/>
			<point x="379" y="208" type="line"/>
		</contour>
	</outline>
</glyph>
<glyph name="trianglesmallupblack" format="2">
	<unicode hex="25B4"/>
	<advance width="345"/>
	<outline>
		<contour>
			<point x="6" y="126" type="line"/>
			<point x="338" y="126" type="line"/>
			<point x="338" y="129" type="line"/>
			<point x="174" y="430" type="line"/>
			<point x="170" y="430" type="line"/>
			<point x="6" y="129" type="line"/>
		</contour>
	</outline>
</glyph>
<glyph name="trianglesmallupwhite" format="2">
	<unicode hex="25B5"/>
	<advance width="345"/>
	<outline>
		<contour>
			<point x="-26" y="108" type="line"/>
			<point x="370" y="108" type="line"/>
			<point x="370" y="112" type="line"/>
			<point x="174" y="465" type="line"/>
			<point x="170" y="465" type="line"/>
			<point x="-26" y="112" type="line"/>
		</contour>
		<contour>
			<point x="95" y="178" type="line"/>
			<point x="172" y="330" type="line"/>
			<point x="250" y="178" type="line"/>
		</contour>
	</outline>
</glyph>
<glyph name="trianglesmalldownblack" format="2">
	<unicode hex="25BE"/>
	<advance width="345"/>
	<outline>
		<contour>
			<point x="170" y="94" type="line"/>
			<point x="174" y="94" type="line"/>
			<point x="338" y="395" type="line"/>
			<point x="338" y="398" type="line"/>
			<point x="6" y="398" type="line"/>
			<point x="6" y="395" type="line"/>
		</contour>
	</outline>
</glyph>
<glyph name="trianglesmallleftwhite" format="2">
	<unicode hex="25C3"/>
	<advance width="345"/>
	<outline>
		<contour>
			<point x="336" y="64" type="line"/>
			<point x="340" y="64" type="line"/>
			<point x="340" y="460" type="line"/>
			<point x="336" y="460" type="line"/>
			<point x="-17" y="264" type="line"/>
			<point x="-17" y="260" type="line"/>
		</contour>
		<contour>
			<point x="270" y="185" type="line"/>
			<point x="117" y="262" type="line"/>
			<point x="270" y="340" type="line"/>
		</contour>
	</outline>
</glyph>
<glyph name="bulletwhite" format="2">
	<unicode hex="25E6"/>
	<advance width="345"/>
	<outline>
		<contour>
			<point x="172" y="95" type="curve" smooth="yes"/>
			<point x="270" y="95"/>
			<point x="341" y="168"/>
			<point x="341" y="262" type="curve" smooth="yes"/>
			<point x="341" y="356"/>
			<point x="270" y="429"/>
			<point x="172" y="429" type="curve" smooth="yes"/>
			<point x="75" y="429"/>
			<point x="4" y="356"/>
			<point x="4" y="262" type="curve" smooth="yes"/>
			<point x="4" y="168"/>
			<point x="75" y="95"/>
		</contour>
		<contour>
			<point x="172" y="169" type="curve" smooth="yes"/>
			<point x="123" y="169"/>
			<point x="87" y="208"/>
			<point x="87" y="262" type="curve" smooth="yes"/>
			<point x="87" y="316"/>
			<point x="123" y="355"/>
			<point x="172" y="355" type="curve" smooth="yes"/>
			<point x="222" y="355"/>
			<point x="258" y="316"/>
			<point x="258" y="262" type="curve" smooth="yes"/>
			<point x="258" y="208"/>
			<point x="222" y="169"/>
		</contour>
	</outline>
</glyph>
<glyph name="xballotheavy" format="2">
	<unicode hex="2718"/>
	<advance width="606"/>
	<outline>
		<contour>
			<point x="180" y="-58" type="line"/>
			<point x="266" y="190"/>
			<point x="424" y="434"/>
			<point x="603" y="590" type="curve"/>
			<point x="494" y="688" type="line"/>
			<point x="312" y="524"/>
			<point x="125" y="263"/>
			<point x="40" y="6" type="curve"/>
		</contour>
		<contour>
			<point x="402" y="-28" type="curve"/>
			<point x="564" y="26" type="line"/>
			<point x="508" y="282"/>
			<point x="387" y="509"/>
			<point x="258" y="680" type="curve"/>
			<point x="108" y="604" type="line"/>
			<point x="240" y="427"/>
			<point x="342" y="226"/>
		</contour>
	</outline>
</glyph>
<glyph name="quoterightheavy" format="2">
	<unicode hex="275C"/>
	<advance width="360"/>
	<outline>
		<contour>
			<point x="130" y="204" type="line"/>
			<point x="275" y="264"/>
			<point x="345" y="372"/>
			<point x="345" y="506" type="curve" smooth="yes"/>
			<point x="345" y="628"/>
			<point x="283" y="706"/>
			<point x="170" y="706" type="curve" smooth="yes"/>
			<point x="78" y="706"/>
			<point x="15" y="638"/>
			<point x="15" y="540" type="curve" smooth="yes"/>
			<point x="15" y="452"/>
			<point x="79" y="394"/>
			<point x="161" y="394" type="curve" smooth="yes"/>
			<point x="194" y="394"/>
			<point x="225" y="405"/>
			<point x="244" y="425" type="curve"/>
			<point x="205" y="536" type="line"/>
			<point x="209" y="417" type="line"/>
			<point x="209" y="347"/>
			<point x="165" y="302"/>
			<point x="90" y="269" type="curve"/>
		</contour>
	</outline>
</glyph>
<glyph name="Lbardbl" format="2">
	<unicode hex="2C60"/>
	<advance width="537"/>
	<outline>
		<contour>
			<point x="22" y="258" type="line"/>
			<point x="407" y="258" type="line"/>
			<point x="407" y="335" type="line"/>
			<point x="98" y="335" type="line"/>
			<point x="22" y="329" type="line"/>
		</contour>
		<contour>
			<point x="22" y="386" type="line"/>
			<point x="407" y="386" type="line"/>
			<point x="407" y="463" type="line"/>
			<point x="98" y="463" type="line"/>
			<point x="22" y="457" type="line"/>
		</contour>
		<component base="L" xOffset="20"/>
	</outline>
	<anchor name="aboveUC" x="173" y="674"/>
	<anchor name="belowLC" x="308" y="-22"/>
</glyph>
<glyph name="lbardbl" format="2">
	<unicode hex="2C61"/>
	<advance width="333"/>
	<outline>
		<contour>
			<point x="22" y="401" type="line"/>
			<point x="314" y="401" type="line"/>
			<point x="314" y="478" type="line"/>
			<point x="93" y="478" type="line"/>
			<point x="22" y="472" type="line"/>
		</contour>
		<contour>
			<point x="22" y="273" type="line"/>
			<point x="314" y="273" type="line"/>
			<point x="314" y="350" type="line"/>
			<point x="93" y="350" type="line"/>
			<point x="22" y="344" type="line"/>
		</contour>
		<component base="l" xOffset="28"/>
	</outline>
	<anchor name="aboveUC" x="171" y="724"/>
	<anchor name="belowLC" x="191" y="-22"/>
</glyph>
<glyph name="brackhalftopright" format="2">
	<unicode hex="2E23"/>
	<advance width="344"/>
	<outline>
		<contour>
			<point x="148" y="278" type="line"/>
			<point x="257" y="278" type="line"/>
			<point x="257" y="708" type="line"/>
			<point x="46" y="708" type="line"/>
			<point x="46" y="630" type="line"/>
			<point x="148" y="630" type="line"/>
		</contour>
	</outline>
</glyph>
<glyph name="twoemdash" format="2">
	<unicode hex="2E3A"/>
	<advance width="1500"/>
	<outline>
		<contour>
			<point x="43" y="206" type="line"/>
			<point x="1457" y="206" type="line"/>
			<point x="1457" y="300" type="line"/>
			<point x="43" y="300" type="line"/>
		</contour>
	</outline>
</glyph>
<glyph name="Ettironian" format="2">
	<unicode hex="2E52"/>
	<advance width="500"/>
	<outline>
		<contour>
			<point x="132" y="0" type="line"/>
			<point x="294" y="0" type="line"/>
			<point x="446" y="563" type="line"/>
			<point x="446" y="652" type="line"/>
			<point x="28" y="652" type="line"/>
			<point x="28" y="528" type="line"/>
			<point x="309" y="528" type="line"/>
		</contour>
	</outline>
</glyph>
<glyph name="arrowdownmod" format="2">
	<unicode hex="A71C"/>
	<advance width="300"/>
	<outline>
		<contour>
			<point x="143" y="385" type="line"/>
			<point x="157" y="385" type="line"/>
			<point x="267" y="562" type="line"/>
			<point x="198" y="562" type="line"/>
			<point x="209" y="701" type="line"/>
			<point x="91" y="701" type="line"/>
			<point x="102" y="562" type="line"/>
			<point x="33" y="562" type="line"/>
		</contour>
	</outline>
</glyph>
<glyph name="AlefEgypt" format="2">
	<unicode hex="A722"/>
	<advance width="340"/>
	<outline>
		<contour>
			<point x="92" y="-12" type="line"/>
			<point x="228" y="-7"/>
			<point x="301" y="58"/>
			<point x="301" y="163" type="curve" smooth="yes"/>
			<point x="301" y="249"/>
			<point x="248" y="301"/>
			<point x="162" y="301" type="curve" smooth="yes"/>
			<point x="93" y="301"/>
			<point x="55" y="266"/>
			<point x="55" y="211" type="curve" smooth="yes"/>
			<point x="55" y="161"/>
			<point x="92" y="130"/>
			<point x="144" y="130" type="curve" smooth="yes"/>
			<point x="169" y="130"/>
			<point x="197" y="144"/>
			<point x="212" y="160" type="curve"/>
			<point x="178" y="160" type="line"/>
			<point x="182" y="153"/>
			<point x="185" y="144"/>
			<point x="185" y="129" type="curve" smooth="yes"/>
			<point x="185" y="98"/>
			<point x="142" y="74"/>
			<point x="74" y="65" type="curve"/>
		</contour>
		<contour>
			<point x="92" y="351" type="line"/>
			<point x="228" y="356"/>
			<point x="301" y="420"/>
			<point x="301" y="526" type="curve" smooth="yes"/>
			<point x="301" y="612"/>
			<point x="248" y="663"/>
			<point x="162" y="663" type="curve" smooth="yes"/>
			<point x="93" y="663"/>
			<point x="55" y="629"/>
			<point x="55" y="574" type="curve" smooth="yes"/>
			<point x="55" y="523"/>
			<point x="92" y="492"/>
			<point x="144" y="492" type="curve" smooth="yes"/>
			<point x="169" y="492"/>
			<point x="197" y="506"/>
			<point x="212" y="522" type="curve"/>
			<point x="178" y="522" type="line"/>
			<point x="182" y="515"/>
			<point x="185" y="507"/>
			<point x="185" y="492" type="curve" smooth="yes"/>
			<point x="185" y="460"/>
			<point x="142" y="436"/>
			<point x="74" y="427" type="curve"/>
		</contour>
	</outline>
</glyph>
<glyph name="OO" format="2">
	<unicode hex="A74E"/>
	<advance width="1045"/>
	<outline>
		<contour>
			<point x="311" y="-12" type="curve" smooth="yes"/>
			<point x="401" y="-12"/>
			<point x="490" y="27"/>
			<point x="539" y="162" type="curve"/>
			<point x="507" y="162" type="line"/>
			<point x="556" y="27"/>
			<point x="644" y="-12"/>
			<point x="733" y="-12" type="curve" smooth="yes"/>
			<point x="889" y="-12"/>
			<point x="999" y="116"/>
			<point x="999" y="329" type="curve" smooth="yes"/>
			<point x="999" y="541"/>
			<point x="889" y="664"/>
			<point x="733" y="664" type="curve" smooth="yes"/>
			<point x="644" y="664"/>
			<point x="556" y="624"/>
			<point x="507" y="490" type="curve"/>
			<point x="539" y="490" type="line"/>
			<point x="490" y="624"/>
			<point x="401" y="664"/>
			<point x="311" y="664" type="curve" smooth="yes"/>
			<point x="157" y="664"/>
			<point x="46" y="542"/>
			<point x="46" y="329" type="curve" smooth="yes"/>
			<point x="46" y="116"/>
			<point x="157" y="-12"/>
		</contour>
		<contour>
			<point x="329" y="115" type="curve" smooth="yes"/>
			<point x="245" y="115"/>
			<point x="197" y="198"/>
			<point x="197" y="329" type="curve" smooth="yes"/>
			<point x="197" y="459"/>
			<point x="245" y="537"/>
			<point x="329" y="537" type="curve" smooth="yes"/>
			<point x="406" y="537"/>
			<point x="454" y="459"/>
			<point x="454" y="329" type="curve" smooth="yes"/>
			<point x="454" y="198"/>
			<point x="406" y="115"/>
		</contour>
		<contour>
			<point x="717" y="115" type="curve" smooth="yes"/>
			<point x="640" y="115"/>
			<point x="592" y="198"/>
			<point x="592" y="329" type="curve" smooth="yes"/>
			<point x="592" y="459"/>
			<point x="640" y="537"/>
			<point x="717" y="537" type="curve" smooth="yes"/>
			<point x="800" y="537"/>
			<point x="848" y="459"/>
			<point x="848" y="329" type="curve" smooth="yes"/>
			<point x="848" y="198"/>
			<point x="800" y="115"/>
		</contour>
	</outline>
	<anchor name="aboveUC" x="522" y="674"/>
	<anchor name="belowLC" x="522" y="-22"/>
</glyph>
<glyph name="Rrotunda" format="2">
	<unicode hex="A75A"/>
	<advance width="494"/>
	<outline>
		<contour>
			<point x="336" y="-12" type="curve" smooth="yes"/>
			<point x="389" y="-12"/>
			<point x="431" y="-1"/>
			<point x="456" y="13" type="curve"/>
			<point x="430" y="119" type="line"/>
			<point x="409" y="110"/>
			<point x="378" y="106"/>
			<point x="344" y="106" type="curve" smooth="yes"/>
			<point x="282" y="106"/>
			<point x="238" y="122"/>
			<point x="207" y="163" type="curve"/>
			<point x="382" y="262"/>
			<point x="446" y="361"/>
			<point x="446" y="492" type="curve" smooth="yes"/>
			<point x="446" y="607"/>
			<point x="363" y="664"/>
			<point x="247" y="664" type="curve" smooth="yes"/>
			<point x="167" y="664"/>
			<point x="98" y="633"/>
			<point x="34" y="566" type="curve"/>
			<point x="106" y="485" type="line"/>
			<point x="138" y="517"/>
			<point x="177" y="537"/>
			<point x="220" y="537" type="curve" smooth="yes"/>
			<point x="271" y="537"/>
			<point x="302" y="512"/>
			<point x="302" y="461" type="curve" smooth="yes"/>
			<point x="302" y="386"/>
			<point x="245" y="297"/>
			<point x="49" y="200" type="curve"/>
			<point x="86" y="54"/>
			<point x="189" y="-12"/>
		</contour>
	</outline>
	<anchor name="aboveUC" x="261" y="674"/>
	<anchor name="belowLC" x="255" y="-22"/>
</glyph>
<glyph name="rrotunda" format="2">
	<unicode hex="A75B"/>
	<advance width="428"/>
	<outline>
		<contour>
			<point x="291" y="-12" type="curve" smooth="yes"/>
			<point x="327" y="-12"/>
			<point x="355" y="-5"/>
			<point x="372" y="5" type="curve"/>
			<point x="349" y="113" type="line"/>
			<point x="337" y="109"/>
			<point x="318" y="107"/>
			<point x="298" y="107" type="curve" smooth="yes"/>
			<point x="267" y="107"/>
			<point x="223" y="113"/>
			<point x="201" y="139" type="curve"/>
			<point x="303" y="203"/>
			<point x="364" y="271"/>
			<point x="364" y="362" type="curve" smooth="yes"/>
			<point x="364" y="451"/>
			<point x="297" y="508"/>
			<point x="194" y="508" type="curve" smooth="yes"/>
			<point x="132" y="508"/>
			<point x="72" y="482"/>
			<point x="27" y="442" type="curve"/>
			<point x="85" y="359" type="line"/>
			<point x="107" y="377"/>
			<point x="132" y="389"/>
			<point x="159" y="389" type="curve" smooth="yes"/>
			<point x="192" y="389"/>
			<point x="213" y="368"/>
			<point x="213" y="331" type="curve" smooth="yes"/>
			<point x="213" y="279"/>
			<point x="164" y="216"/>
			<point x="58" y="158" type="curve"/>
			<point x="88" y="35"/>
			<point x="174" y="-12"/>
		</contour>
	</outline>
	<anchor name="aboveLC" x="219" y="518"/>
	<anchor name="belowLC" x="203" y="-22"/>
</glyph>
<glyph name="that" format="2">
	<unicode hex="A765"/>
	<advance width="576"/>
	<outline>
		<contour>
			<point x="68" y="-184" type="line"/>
			<point x="215" y="-184" type="line"/>
			<point x="215" y="-39" type="line"/>
			<point x="210" y="40" type="line"/>
			<point x="246" y="7"/>
			<point x="286" y="-12"/>
			<point x="329" y="-12" type="curve" smooth="yes"/>
			<point x="436" y="-12"/>
			<point x="537" y="81"/>
			<point x="537" y="234" type="curve" smooth="yes"/>
			<point x="537" y="370"/>
			<point x="463" y="461"/>
			<point x="343" y="461" type="curve" smooth="yes"/>
			<point x="296" y="461"/>
			<point x="249" y="440"/>
			<point x="212" y="406" type="curve"/>
			<point x="215" y="483" type="line"/>
			<point x="215" y="701" type="line"/>
			<point x="68" y="701" type="line"/>
		</contour>
		<contour>
			<point x="-3" y="530" type="line"/>
			<point x="384" y="530" type="line"/>
			<point x="384" y="627" type="line"/>
			<point x="76" y="627" type="line"/>
			<point x="-3" y="621" type="line"/>
		</contour>
		<contour>
			<point x="387" y="232" type="curve" smooth="yes"/>
			<point x="387" y="150"/>
			<point x="346" y="108"/>
			<point x="294" y="108" type="curve" smooth="yes"/>
			<point x="270" y="108"/>
			<point x="242" y="116"/>
			<point x="215" y="140" type="curve"/>
			<point x="215" y="297" type="line"/>
			<point x="244" y="327"/>
			<point x="270" y="341"/>
			<point x="300" y="341" type="curve" smooth="yes"/>
			<point x="359" y="341"/>
			<point x="387" y="301"/>
		</contour>
	</outline>
</glyph>
<glyph name="dinsular" format="2">
	<unicode hex="A77A"/>
	<advance width="553"/>
	<outline>
		<contour>
			<point x="276" y="-12" type="curve" smooth="yes"/>
			<point x="422" y="-12"/>
			<point x="508" y="97"/>
			<point x="508" y="268" type="curve" smooth="yes"/>
			<point x="508" y="466"/>
			<point x="365" y="597"/>
			<point x="135" y="716" type="curve"/>
			<point x="58" y="614" type="line"/>
			<point x="266" y="513"/>
			<point x="373" y="382"/>
			<point x="373" y="248" type="curve" smooth="yes"/>
			<point x="373" y="149"/>
			<point x="328" y="107"/>
			<point x="276" y="107" type="curve" smooth="yes"/>
			<point x="224" y="107"/>
			<point x="176" y="152"/>
			<point x="176" y="238" type="curve" smooth="yes"/>
			<point x="176" y="325"/>
			<point x="229" y="388"/>
			<point x="341" y="390" type="curve"/>
			<point x="275" y="478" type="line"/>
			<point x="142" y="477"/>
			<point x="42" y="377"/>
			<point x="42" y="236" type="curve" smooth="yes"/>
			<point x="42" y="84"/>
			<point x="146" y="-12"/>
		</contour>
	</outline>
	<anchor name="aboveUC" x="296" y="724"/>
	<anchor name="belowLC" x="268" y="-22"/>
</glyph>
